0
SECTION
2
HEADER
9
$ANGDIR
70
1
9
$AUNITS
70
0
9
$PROJECTNAME
1
Spannungsversorgung_V3
9
$TDCREATE
40
2459644.16491075
9
$INSUNITS
70
4
0
ENDSEC
0
SECTION
2
ENTITIES
0
POLYLINE
66
1
8
1_copper
10
0.0
20
0.0
30
0.0
70
1
0
VERTEX
8
0
10
35.16394375
20
124.97533750000001
30
0
42
0.9063472543261978
0
VERTEX
8
0
10
35.089434375
20
126.492
30
0
0
VERTEX
8
0
10
33.490565625
20
126.492
30
0
0
VERTEX
8
0
10
33.416056250000004
20
126.48466250000001
30
0
42
0.9063472543261978
0
VERTEX
8
0
10
33.490565625
20
124.968
30
0
0
VERTEX
8
0
10
35.089434375
20
124.968
30
0
0
SEQEND
0
POLYLINE
66
1
8
1_copper
10
0.0
20
0.0
30
0.0
70
1
0
VERTEX
8
0
10
35.16394375
20
122.4353375
30
0
42
0.9063472543261978
0
VERTEX
8
0
10
35.089434375
20
123.95200000000001
30
0
0
VERTEX
8
0
10
33.490565625
20
123.95200000000001
30
0
0
VERTEX
8
0
10
33.416056250000004
20
123.9446625
30
0
42
0.9063472543261978
0
VERTEX
8
0
10
33.490565625
20
122.42800000000001
30
0
0
VERTEX
8
0
10
35.089434375
20
122.42800000000001
30
0
0
SEQEND
0
POLYLINE
66
1
8
1_copper
10
0.0
20
0.0
30
0.0
70
1
0
VERTEX
8
0
10
35.16394375
20
119.89533750000001
30
0
42
0.9063472543261978
0
VERTEX
8
0
10
35.089434375
20
121.412
30
0
0
VERTEX
8
0
10
33.490565625
20
121.412
30
0
0
VERTEX
8
0
10
33.416056250000004
20
121.4046625
30
0
42
0.9063472543261978
0
VERTEX
8
0
10
33.490565625
20
119.888
30
0
0
VERTEX
8
0
10
35.089434375
20
119.888
30
0
0
SEQEND
0
POLYLINE
66
1
8
1_copper
10
0.0
20
0.0
30
0.0
70
1
0
VERTEX
8
0
10
12.30394375
20
117.3553375
30
0
42
0.9063472543261978
0
VERTEX
8
0
10
12.229434375
20
118.872
30
0
0
VERTEX
8
0
10
10.630565625000001
20
118.872
30
0
0
VERTEX
8
0
10
10.556056250000001
20
118.86466250000001
30
0
42
0.9063472543261978
0
VERTEX
8
0
10
10.630565625000001
20
117.348
30
0
0
VERTEX
8
0
10
12.229434375
20
117.348
30
0
0
SEQEND
0
POLYLINE
66
1
8
1_copper
10
0.0
20
0.0
30
0.0
70
1
0
VERTEX
8
0
10
35.16394375
20
117.3553375
30
0
42
0.9063472543261978
0
VERTEX
8
0
10
35.089434375
20
118.872
30
0
0
VERTEX
8
0
10
33.490565625
20
118.872
30
0
0
VERTEX
8
0
10
33.416056250000004
20
118.86466250000001
30
0
42
0.9063472543261978
0
VERTEX
8
0
10
33.490565625
20
117.348
30
0
0
VERTEX
8
0
10
35.089434375
20
117.348
30
0
0
SEQEND
0
POLYLINE
66
1
8
1_copper
10
0.0
20
0.0
30
0.0
70
1
0
VERTEX
8
0
10
35.16394375
20
114.81533750000001
30
0
42
0.9063472543261978
0
VERTEX
8
0
10
35.089434375
20
116.33200000000001
30
0
0
VERTEX
8
0
10
33.490565625
20
116.33200000000001
30
0
0
VERTEX
8
0
10
33.416056250000004
20
116.3246625
30
0
42
0.9063472543261978
0
VERTEX
8
0
10
33.490565625
20
114.808
30
0
0
VERTEX
8
0
10
35.089434375
20
114.808
30
0
0
SEQEND
0
POLYLINE
66
1
8
1_copper
10
0.0
20
0.0
30
0.0
70
1
0
VERTEX
8
0
10
35.16394375
20
112.2753375
30
0
42
0.9063472543261978
0
VERTEX
8
0
10
35.089434375
20
113.792
30
0
0
VERTEX
8
0
10
33.490565625
20
113.792
30
0
0
VERTEX
8
0
10
33.416056250000004
20
113.78466250000001
30
0
42
0.9063472543261978
0
VERTEX
8
0
10
33.490565625
20
112.268
30
0
0
VERTEX
8
0
10
35.089434375
20
112.268
30
0
0
SEQEND
0
POLYLINE
66
1
8
1_copper
10
0.0
20
0.0
30
0.0
70
1
0
VERTEX
8
0
10
12.30394375
20
109.7353375
30
0
42
0.9063472543261978
0
VERTEX
8
0
10
12.229434375
20
111.25200000000001
30
0
0
VERTEX
8
0
10
10.630565625000001
20
111.25200000000001
30
0
0
VERTEX
8
0
10
10.556056250000001
20
111.2446625
30
0
42
0.9063472543261978
0
VERTEX
8
0
10
10.630565625000001
20
109.72800000000001
30
0
0
VERTEX
8
0
10
12.229434375
20
109.72800000000001
30
0
0
SEQEND
0
POLYLINE
66
1
8
1_copper
10
0.0
20
0.0
30
0.0
70
1
0
VERTEX
8
0
10
12.30394375
20
107.19533750000001
30
0
42
0.9063472543261978
0
VERTEX
8
0
10
12.229434375
20
108.712
30
0
0
VERTEX
8
0
10
10.630565625000001
20
108.712
30
0
0
VERTEX
8
0
10
10.556056250000001
20
108.70466250000001
30
0
42
0.9063472543261978
0
VERTEX
8
0
10
10.630565625000001
20
107.188
30
0
0
VERTEX
8
0
10
12.229434375
20
107.188
30
0
0
SEQEND
0
POLYLINE
66
1
8
1_copper
10
0.0
20
0.0
30
0.0
70
1
0
VERTEX
8
0
10
11.03394375
20
76.7153375
30
0
42
0.9063472543261978
0
VERTEX
8
0
10
10.959434375
20
78.232
30
0
0
VERTEX
8
0
10
9.360565625000001
20
78.232
30
0
0
VERTEX
8
0
10
9.28605625
20
78.22466250000001
30
0
42
0.9063472543261978
0
VERTEX
8
0
10
9.360565625000001
20
76.708
30
0
0
VERTEX
8
0
10
10.959434375
20
76.708
30
0
0
SEQEND
0
POLYLINE
66
1
8
1_copper
10
0.0
20
0.0
30
0.0
70
1
0
VERTEX
8
0
10
11.03394375
20
74.1753375
30
0
42
0.9063472543261978
0
VERTEX
8
0
10
10.959434375
20
75.69200000000001
30
0
0
VERTEX
8
0
10
9.360565625000001
20
75.69200000000001
30
0
0
VERTEX
8
0
10
9.28605625
20
75.6846625
30
0
42
0.9063472543261978
0
VERTEX
8
0
10
9.360565625000001
20
74.168
30
0
0
VERTEX
8
0
10
10.959434375
20
74.168
30
0
0
SEQEND
0
POLYLINE
66
1
8
1_copper
10
0.0
20
0.0
30
0.0
70
1
0
VERTEX
8
0
10
11.03394375
20
64.0153375
30
0
42
0.9063472543261978
0
VERTEX
8
0
10
10.959434375
20
65.532
30
0
0
VERTEX
8
0
10
9.360565625000001
20
65.532
30
0
0
VERTEX
8
0
10
9.28605625
20
65.5246625
30
0
42
0.9063472543261978
0
VERTEX
8
0
10
9.360565625000001
20
64.00800000000001
30
0
0
VERTEX
8
0
10
10.959434375
20
64.00800000000001
30
0
0
SEQEND
0
POLYLINE
66
1
8
1_copper
10
0.0
20
0.0
30
0.0
70
1
0
VERTEX
8
0
10
11.03394375
20
61.4753375
30
0
42
0.9063472543261978
0
VERTEX
8
0
10
10.959434375
20
62.992000000000004
30
0
0
VERTEX
8
0
10
9.360565625000001
20
62.992000000000004
30
0
0
VERTEX
8
0
10
9.28605625
20
62.984662500000006
30
0
42
0.9063472543261978
0
VERTEX
8
0
10
9.360565625000001
20
61.468
30
0
0
VERTEX
8
0
10
10.959434375
20
61.468
30
0
0
SEQEND
0
POLYLINE
66
1
8
1_copper
10
0.0
20
0.0
30
0.0
70
1
0
VERTEX
8
0
10
11.03394375
20
58.9353375
30
0
42
0.9063472543261978
0
VERTEX
8
0
10
10.959434375
20
60.452000000000005
30
0
0
VERTEX
8
0
10
9.360565625000001
20
60.452000000000005
30
0
0
VERTEX
8
0
10
9.28605625
20
60.4446625
30
0
42
0.9063472543261978
0
VERTEX
8
0
10
9.360565625000001
20
58.928000000000004
30
0
0
VERTEX
8
0
10
10.959434375
20
58.928000000000004
30
0
0
SEQEND
0
POLYLINE
66
1
8
1_copper
10
0.0
20
0.0
30
0.0
70
1
0
VERTEX
8
0
10
11.03394375
20
56.395337500000004
30
0
42
0.9063472543261978
0
VERTEX
8
0
10
10.959434375
20
57.912000000000006
30
0
0
VERTEX
8
0
10
9.360565625000001
20
57.912000000000006
30
0
0
VERTEX
8
0
10
9.28605625
20
57.9046625
30
0
42
0.9063472543261978
0
VERTEX
8
0
10
9.360565625000001
20
56.388000000000005
30
0
0
VERTEX
8
0
10
10.959434375
20
56.388000000000005
30
0
0
SEQEND
0
POLYLINE
66
1
8
1_copper
10
0.0
20
0.0
30
0.0
70
1
0
VERTEX
8
0
10
11.03394375
20
53.855337500000005
30
0
42
0.9063472543261978
0
VERTEX
8
0
10
10.959434375
20
55.372
30
0
0
VERTEX
8
0
10
9.360565625000001
20
55.372
30
0
0
VERTEX
8
0
10
9.28605625
20
55.3646625
30
0
42
0.9063472543261978
0
VERTEX
8
0
10
9.360565625000001
20
53.848000000000006
30
0
0
VERTEX
8
0
10
10.959434375
20
53.848000000000006
30
0
0
SEQEND
0
POLYLINE
66
1
8
1_copper
10
0.0
20
0.0
30
0.0
70
1
0
VERTEX
8
0
10
11.03394375
20
51.315337500000005
30
0
42
0.9063472543261978
0
VERTEX
8
0
10
10.959434375
20
52.832
30
0
0
VERTEX
8
0
10
9.360565625000001
20
52.832
30
0
0
VERTEX
8
0
10
9.28605625
20
52.8246625
30
0
42
0.9063472543261978
0
VERTEX
8
0
10
9.360565625000001
20
51.308
30
0
0
VERTEX
8
0
10
10.959434375
20
51.308
30
0
0
SEQEND
0
POLYLINE
66
1
8
1_copper
10
0.0
20
0.0
30
0.0
70
1
0
VERTEX
8
0
10
36.433943750000005
20
51.315337500000005
30
0
42
0.9063472543261978
0
VERTEX
8
0
10
36.359434375
20
52.832
30
0
0
VERTEX
8
0
10
34.760565625
20
52.832
30
0
0
VERTEX
8
0
10
34.68605625
20
52.8246625
30
0
42
0.9063472543261978
0
VERTEX
8
0
10
34.760565625
20
51.308
30
0
0
VERTEX
8
0
10
36.359434375
20
51.308
30
0
0
SEQEND
0
POLYLINE
66
1
8
1_copper
10
0.0
20
0.0
30
0.0
70
1
0
VERTEX
8
0
10
11.03394375
20
48.7753375
30
0
42
0.9063472543261978
0
VERTEX
8
0
10
10.959434375
20
50.292
30
0
0
VERTEX
8
0
10
9.360565625000001
20
50.292
30
0
0
VERTEX
8
0
10
9.28605625
20
50.2846625
30
0
42
0.9063472543261978
0
VERTEX
8
0
10
9.360565625000001
20
48.768
30
0
0
VERTEX
8
0
10
10.959434375
20
48.768
30
0
0
SEQEND
0
POLYLINE
66
1
8
1_copper
10
0.0
20
0.0
30
0.0
70
1
0
VERTEX
8
0
10
36.433943750000005
20
48.7753375
30
0
42
0.9063472543261978
0
VERTEX
8
0
10
36.359434375
20
50.292
30
0
0
VERTEX
8
0
10
34.760565625
20
50.292
30
0
0
VERTEX
8
0
10
34.68605625
20
50.2846625
30
0
42
0.9063472543261978
0
VERTEX
8
0
10
34.760565625
20
48.768
30
0
0
VERTEX
8
0
10
36.359434375
20
48.768
30
0
0
SEQEND
0
POLYLINE
66
1
8
1_copper
10
0.0
20
0.0
30
0.0
70
1
0
VERTEX
8
0
10
11.03394375
20
46.2353375
30
0
42
0.9063472543261978
0
VERTEX
8
0
10
10.959434375
20
47.752
30
0
0
VERTEX
8
0
10
9.360565625000001
20
47.752
30
0
0
VERTEX
8
0
10
9.28605625
20
47.744662500000004
30
0
42
0.9063472543261978
0
VERTEX
8
0
10
9.360565625000001
20
46.228
30
0
0
VERTEX
8
0
10
10.959434375
20
46.228
30
0
0
SEQEND
0
POLYLINE
66
1
8
1_copper
10
0.0
20
0.0
30
0.0
70
1
0
VERTEX
8
0
10
36.433943750000005
20
46.2353375
30
0
42
0.9063472543261978
0
VERTEX
8
0
10
36.359434375
20
47.752
30
0
0
VERTEX
8
0
10
34.760565625
20
47.752
30
0
0
VERTEX
8
0
10
34.68605625
20
47.744662500000004
30
0
42
0.9063472543261978
0
VERTEX
8
0
10
34.760565625
20
46.228
30
0
0
VERTEX
8
0
10
36.359434375
20
46.228
30
0
0
SEQEND
0
POLYLINE
66
1
8
1_copper
10
0.0
20
0.0
30
0.0
70
1
0
VERTEX
8
0
10
36.433943750000005
20
43.6953375
30
0
42
0.9063472543261978
0
VERTEX
8
0
10
36.359434375
20
45.212
30
0
0
VERTEX
8
0
10
34.760565625
20
45.212
30
0
0
VERTEX
8
0
10
34.68605625
20
45.204662500000005
30
0
42
0.9063472543261978
0
VERTEX
8
0
10
34.760565625
20
43.688
30
0
0
VERTEX
8
0
10
36.359434375
20
43.688
30
0
0
SEQEND
0
POLYLINE
66
1
8
1_copper
10
0.0
20
0.0
30
0.0
70
1
0
VERTEX
8
0
10
11.03394375
20
43.6953375
30
0
42
0.9063472543261978
0
VERTEX
8
0
10
10.959434375
20
45.212
30
0
0
VERTEX
8
0
10
9.360565625000001
20
45.212
30
0
0
VERTEX
8
0
10
9.28605625
20
45.204662500000005
30
0
42
0.9063472543261978
0
VERTEX
8
0
10
9.360565625000001
20
43.688
30
0
0
VERTEX
8
0
10
10.959434375
20
43.688
30
0
0
SEQEND
0
POLYLINE
66
1
8
1_copper
10
0.0
20
0.0
30
0.0
70
1
0
VERTEX
8
0
10
36.433943750000005
20
41.1553375
30
0
42
0.9063472543261978
0
VERTEX
8
0
10
36.359434375
20
42.672000000000004
30
0
0
VERTEX
8
0
10
34.760565625
20
42.672000000000004
30
0
0
VERTEX
8
0
10
34.68605625
20
42.6646625
30
0
42
0.9063472543261978
0
VERTEX
8
0
10
34.760565625
20
41.148
30
0
0
VERTEX
8
0
10
36.359434375
20
41.148
30
0
0
SEQEND
0
POLYLINE
66
1
8
1_copper
10
0.0
20
0.0
30
0.0
70
1
0
VERTEX
8
0
10
11.03394375
20
41.1553375
30
0
42
0.9063472543261978
0
VERTEX
8
0
10
10.959434375
20
42.672000000000004
30
0
0
VERTEX
8
0
10
9.360565625000001
20
42.672000000000004
30
0
0
VERTEX
8
0
10
9.28605625
20
42.6646625
30
0
42
0.9063472543261978
0
VERTEX
8
0
10
9.360565625000001
20
41.148
30
0
0
VERTEX
8
0
10
10.959434375
20
41.148
30
0
0
SEQEND
0
POLYLINE
66
1
8
1_copper
10
0.0
20
0.0
30
0.0
70
1
0
VERTEX
8
0
10
11.03394375
20
38.6153375
30
0
42
0.9063472543261978
0
VERTEX
8
0
10
10.959434375
20
40.132000000000005
30
0
0
VERTEX
8
0
10
9.360565625000001
20
40.132000000000005
30
0
0
VERTEX
8
0
10
9.28605625
20
40.1246625
30
0
42
0.9063472543261978
0
VERTEX
8
0
10
9.360565625000001
20
38.608000000000004
30
0
0
VERTEX
8
0
10
10.959434375
20
38.608000000000004
30
0
0
SEQEND
0
POLYLINE
66
1
8
1_copper
10
0.0
20
0.0
30
0.0
70
1
0
VERTEX
8
0
10
36.433943750000005
20
38.6153375
30
0
42
0.9063472543261978
0
VERTEX
8
0
10
36.359434375
20
40.132000000000005
30
0
0
VERTEX
8
0
10
34.760565625
20
40.132000000000005
30
0
0
VERTEX
8
0
10
34.68605625
20
40.1246625
30
0
42
0.9063472543261978
0
VERTEX
8
0
10
34.760565625
20
38.608000000000004
30
0
0
VERTEX
8
0
10
36.359434375
20
38.608000000000004
30
0
0
SEQEND
0
POLYLINE
66
1
8
1_copper
10
0.0
20
0.0
30
0.0
70
1
0
VERTEX
8
0
10
11.03394375
20
36.0753375
30
0
42
0.9063472543261978
0
VERTEX
8
0
10
10.959434375
20
37.592
30
0
0
VERTEX
8
0
10
9.360565625000001
20
37.592
30
0
0
VERTEX
8
0
10
9.28605625
20
37.5846625
30
0
42
0.9063472543261978
0
VERTEX
8
0
10
9.360565625000001
20
36.068000000000005
30
0
0
VERTEX
8
0
10
10.959434375
20
36.068000000000005
30
0
0
SEQEND
0
POLYLINE
66
1
8
1_copper
10
0.0
20
0.0
30
0.0
70
1
0
VERTEX
8
0
10
36.433943750000005
20
36.0753375
30
0
42
0.9063472543261978
0
VERTEX
8
0
10
36.359434375
20
37.592
30
0
0
VERTEX
8
0
10
34.760565625
20
37.592
30
0
0
VERTEX
8
0
10
34.68605625
20
37.5846625
30
0
42
0.9063472543261978
0
VERTEX
8
0
10
34.760565625
20
36.068000000000005
30
0
0
VERTEX
8
0
10
36.359434375
20
36.068000000000005
30
0
0
SEQEND
0
POLYLINE
66
1
8
1_copper
10
0.0
20
0.0
30
0.0
70
1
0
VERTEX
8
0
10
11.03394375
20
33.535337500000004
30
0
42
0.9063472543261978
0
VERTEX
8
0
10
10.959434375
20
35.052
30
0
0
VERTEX
8
0
10
9.360565625000001
20
35.052
30
0
0
VERTEX
8
0
10
9.28605625
20
35.0446625
30
0
42
0.9063472543261978
0
VERTEX
8
0
10
9.360565625000001
20
33.528
30
0
0
VERTEX
8
0
10
10.959434375
20
33.528
30
0
0
SEQEND
0
POLYLINE
66
1
8
1_copper
10
0.0
20
0.0
30
0.0
70
1
0
VERTEX
8
0
10
36.433943750000005
20
33.535337500000004
30
0
42
0.9063472543261978
0
VERTEX
8
0
10
36.359434375
20
35.052
30
0
0
VERTEX
8
0
10
34.760565625
20
35.052
30
0
0
VERTEX
8
0
10
34.68605625
20
35.0446625
30
0
42
0.9063472543261978
0
VERTEX
8
0
10
34.760565625
20
33.528
30
0
0
VERTEX
8
0
10
36.359434375
20
33.528
30
0
0
SEQEND
0
POLYLINE
66
1
8
1_copper
10
0.0
20
0.0
30
0.0
70
1
0
VERTEX
8
0
10
11.03394375
20
30.9953375
30
0
42
0.9063472543261978
0
VERTEX
8
0
10
10.959434375
20
32.512
30
0
0
VERTEX
8
0
10
9.360565625000001
20
32.512
30
0
0
VERTEX
8
0
10
9.28605625
20
32.5046625
30
0
42
0.9063472543261978
0
VERTEX
8
0
10
9.360565625000001
20
30.988000000000003
30
0
0
VERTEX
8
0
10
10.959434375
20
30.988000000000003
30
0
0
SEQEND
0
POLYLINE
66
1
8
1_copper
10
0.0
20
0.0
30
0.0
70
1
0
VERTEX
8
0
10
36.433943750000005
20
30.9953375
30
0
42
0.9063472543261978
0
VERTEX
8
0
10
36.359434375
20
32.512
30
0
0
VERTEX
8
0
10
34.760565625
20
32.512
30
0
0
VERTEX
8
0
10
34.68605625
20
32.5046625
30
0
42
0.9063472543261978
0
VERTEX
8
0
10
34.760565625
20
30.988000000000003
30
0
0
VERTEX
8
0
10
36.359434375
20
30.988000000000003
30
0
0
SEQEND
0
POLYLINE
66
1
8
1_copper
10
0.0
20
0.0
30
0.0
70
1
0
VERTEX
8
0
10
36.433943750000005
20
28.455337500000002
30
0
42
0.9063472543261978
0
VERTEX
8
0
10
36.359434375
20
29.972
30
0
0
VERTEX
8
0
10
34.760565625
20
29.972
30
0
0
VERTEX
8
0
10
34.68605625
20
29.964662500000003
30
0
42
0.9063472543261978
0
VERTEX
8
0
10
34.760565625
20
28.448
30
0
0
VERTEX
8
0
10
36.359434375
20
28.448
30
0
0
SEQEND
0
POLYLINE
66
1
8
1_copper
10
0.0
20
0.0
30
0.0
70
1
0
VERTEX
8
0
10
36.433943750000005
20
25.9153375
30
0
42
0.9063472543261978
0
VERTEX
8
0
10
36.359434375
20
27.432000000000002
30
0
0
VERTEX
8
0
10
34.760565625
20
27.432000000000002
30
0
0
VERTEX
8
0
10
34.68605625
20
27.4246625
30
0
42
0.9063472543261978
0
VERTEX
8
0
10
34.760565625
20
25.908
30
0
0
VERTEX
8
0
10
36.359434375
20
25.908
30
0
0
SEQEND
0
POLYLINE
66
1
8
16_copper
10
0.0
20
0.0
30
0.0
70
1
0
VERTEX
8
0
10
35.16394375
20
124.97533750000001
30
0
42
0.9063472543261978
0
VERTEX
8
0
10
35.089434375
20
126.492
30
0
0
VERTEX
8
0
10
33.490565625
20
126.492
30
0
0
VERTEX
8
0
10
33.416056250000004
20
126.48466250000001
30
0
42
0.9063472543261978
0
VERTEX
8
0
10
33.490565625
20
124.968
30
0
0
VERTEX
8
0
10
35.089434375
20
124.968
30
0
0
SEQEND
0
POLYLINE
66
1
8
16_copper
10
0.0
20
0.0
30
0.0
70
1
0
VERTEX
8
0
10
35.16394375
20
122.4353375
30
0
42
0.9063472543261978
0
VERTEX
8
0
10
35.089434375
20
123.95200000000001
30
0
0
VERTEX
8
0
10
33.490565625
20
123.95200000000001
30
0
0
VERTEX
8
0
10
33.416056250000004
20
123.9446625
30
0
42
0.9063472543261978
0
VERTEX
8
0
10
33.490565625
20
122.42800000000001
30
0
0
VERTEX
8
0
10
35.089434375
20
122.42800000000001
30
0
0
SEQEND
0
POLYLINE
66
1
8
16_copper
10
0.0
20
0.0
30
0.0
70
1
0
VERTEX
8
0
10
35.16394375
20
119.89533750000001
30
0
42
0.9063472543261978
0
VERTEX
8
0
10
35.089434375
20
121.412
30
0
0
VERTEX
8
0
10
33.490565625
20
121.412
30
0
0
VERTEX
8
0
10
33.416056250000004
20
121.4046625
30
0
42
0.9063472543261978
0
VERTEX
8
0
10
33.490565625
20
119.888
30
0
0
VERTEX
8
0
10
35.089434375
20
119.888
30
0
0
SEQEND
0
POLYLINE
66
1
8
16_copper
10
0.0
20
0.0
30
0.0
70
1
0
VERTEX
8
0
10
12.30394375
20
117.3553375
30
0
42
0.9063472543261978
0
VERTEX
8
0
10
12.229434375
20
118.872
30
0
0
VERTEX
8
0
10
10.630565625000001
20
118.872
30
0
0
VERTEX
8
0
10
10.556056250000001
20
118.86466250000001
30
0
42
0.9063472543261978
0
VERTEX
8
0
10
10.630565625000001
20
117.348
30
0
0
VERTEX
8
0
10
12.229434375
20
117.348
30
0
0
SEQEND
0
POLYLINE
66
1
8
16_copper
10
0.0
20
0.0
30
0.0
70
1
0
VERTEX
8
0
10
35.16394375
20
117.3553375
30
0
42
0.9063472543261978
0
VERTEX
8
0
10
35.089434375
20
118.872
30
0
0
VERTEX
8
0
10
33.490565625
20
118.872
30
0
0
VERTEX
8
0
10
33.416056250000004
20
118.86466250000001
30
0
42
0.9063472543261978
0
VERTEX
8
0
10
33.490565625
20
117.348
30
0
0
VERTEX
8
0
10
35.089434375
20
117.348
30
0
0
SEQEND
0
POLYLINE
66
1
8
16_copper
10
0.0
20
0.0
30
0.0
70
1
0
VERTEX
8
0
10
35.16394375
20
114.81533750000001
30
0
42
0.9063472543261978
0
VERTEX
8
0
10
35.089434375
20
116.33200000000001
30
0
0
VERTEX
8
0
10
33.490565625
20
116.33200000000001
30
0
0
VERTEX
8
0
10
33.416056250000004
20
116.3246625
30
0
42
0.9063472543261978
0
VERTEX
8
0
10
33.490565625
20
114.808
30
0
0
VERTEX
8
0
10
35.089434375
20
114.808
30
0
0
SEQEND
0
POLYLINE
66
1
8
16_copper
10
0.0
20
0.0
30
0.0
70
1
0
VERTEX
8
0
10
35.16394375
20
112.2753375
30
0
42
0.9063472543261978
0
VERTEX
8
0
10
35.089434375
20
113.792
30
0
0
VERTEX
8
0
10
33.490565625
20
113.792
30
0
0
VERTEX
8
0
10
33.416056250000004
20
113.78466250000001
30
0
42
0.9063472543261978
0
VERTEX
8
0
10
33.490565625
20
112.268
30
0
0
VERTEX
8
0
10
35.089434375
20
112.268
30
0
0
SEQEND
0
POLYLINE
66
1
8
16_copper
10
0.0
20
0.0
30
0.0
70
1
0
VERTEX
8
0
10
12.30394375
20
109.7353375
30
0
42
0.9063472543261978
0
VERTEX
8
0
10
12.229434375
20
111.25200000000001
30
0
0
VERTEX
8
0
10
10.630565625000001
20
111.25200000000001
30
0
0
VERTEX
8
0
10
10.556056250000001
20
111.2446625
30
0
42
0.9063472543261978
0
VERTEX
8
0
10
10.630565625000001
20
109.72800000000001
30
0
0
VERTEX
8
0
10
12.229434375
20
109.72800000000001
30
0
0
SEQEND
0
POLYLINE
66
1
8
16_copper
10
0.0
20
0.0
30
0.0
70
1
0
VERTEX
8
0
10
12.30394375
20
107.19533750000001
30
0
42
0.9063472543261978
0
VERTEX
8
0
10
12.229434375
20
108.712
30
0
0
VERTEX
8
0
10
10.630565625000001
20
108.712
30
0
0
VERTEX
8
0
10
10.556056250000001
20
108.70466250000001
30
0
42
0.9063472543261978
0
VERTEX
8
0
10
10.630565625000001
20
107.188
30
0
0
VERTEX
8
0
10
12.229434375
20
107.188
30
0
0
SEQEND
0
POLYLINE
66
1
8
16_copper
10
0.0
20
0.0
30
0.0
70
1
0
VERTEX
8
0
10
11.03394375
20
76.7153375
30
0
42
0.9063472543261978
0
VERTEX
8
0
10
10.959434375
20
78.232
30
0
0
VERTEX
8
0
10
9.360565625000001
20
78.232
30
0
0
VERTEX
8
0
10
9.28605625
20
78.22466250000001
30
0
42
0.9063472543261978
0
VERTEX
8
0
10
9.360565625000001
20
76.708
30
0
0
VERTEX
8
0
10
10.959434375
20
76.708
30
0
0
SEQEND
0
POLYLINE
66
1
8
16_copper
10
0.0
20
0.0
30
0.0
70
1
0
VERTEX
8
0
10
11.03394375
20
74.1753375
30
0
42
0.9063472543261978
0
VERTEX
8
0
10
10.959434375
20
75.69200000000001
30
0
0
VERTEX
8
0
10
9.360565625000001
20
75.69200000000001
30
0
0
VERTEX
8
0
10
9.28605625
20
75.6846625
30
0
42
0.9063472543261978
0
VERTEX
8
0
10
9.360565625000001
20
74.168
30
0
0
VERTEX
8
0
10
10.959434375
20
74.168
30
0
0
SEQEND
0
POLYLINE
66
1
8
16_copper
10
0.0
20
0.0
30
0.0
70
1
0
VERTEX
8
0
10
11.03394375
20
64.0153375
30
0
42
0.9063472543261978
0
VERTEX
8
0
10
10.959434375
20
65.532
30
0
0
VERTEX
8
0
10
9.360565625000001
20
65.532
30
0
0
VERTEX
8
0
10
9.28605625
20
65.5246625
30
0
42
0.9063472543261978
0
VERTEX
8
0
10
9.360565625000001
20
64.00800000000001
30
0
0
VERTEX
8
0
10
10.959434375
20
64.00800000000001
30
0
0
SEQEND
0
POLYLINE
66
1
8
16_copper
10
0.0
20
0.0
30
0.0
70
1
0
VERTEX
8
0
10
11.03394375
20
61.4753375
30
0
42
0.9063472543261978
0
VERTEX
8
0
10
10.959434375
20
62.992000000000004
30
0
0
VERTEX
8
0
10
9.360565625000001
20
62.992000000000004
30
0
0
VERTEX
8
0
10
9.28605625
20
62.984662500000006
30
0
42
0.9063472543261978
0
VERTEX
8
0
10
9.360565625000001
20
61.468
30
0
0
VERTEX
8
0
10
10.959434375
20
61.468
30
0
0
SEQEND
0
POLYLINE
66
1
8
16_copper
10
0.0
20
0.0
30
0.0
70
1
0
VERTEX
8
0
10
11.03394375
20
58.9353375
30
0
42
0.9063472543261978
0
VERTEX
8
0
10
10.959434375
20
60.452000000000005
30
0
0
VERTEX
8
0
10
9.360565625000001
20
60.452000000000005
30
0
0
VERTEX
8
0
10
9.28605625
20
60.4446625
30
0
42
0.9063472543261978
0
VERTEX
8
0
10
9.360565625000001
20
58.928000000000004
30
0
0
VERTEX
8
0
10
10.959434375
20
58.928000000000004
30
0
0
SEQEND
0
POLYLINE
66
1
8
16_copper
10
0.0
20
0.0
30
0.0
70
1
0
VERTEX
8
0
10
11.03394375
20
56.395337500000004
30
0
42
0.9063472543261978
0
VERTEX
8
0
10
10.959434375
20
57.912000000000006
30
0
0
VERTEX
8
0
10
9.360565625000001
20
57.912000000000006
30
0
0
VERTEX
8
0
10
9.28605625
20
57.9046625
30
0
42
0.9063472543261978
0
VERTEX
8
0
10
9.360565625000001
20
56.388000000000005
30
0
0
VERTEX
8
0
10
10.959434375
20
56.388000000000005
30
0
0
SEQEND
0
POLYLINE
66
1
8
16_copper
10
0.0
20
0.0
30
0.0
70
1
0
VERTEX
8
0
10
11.03394375
20
53.855337500000005
30
0
42
0.9063472543261978
0
VERTEX
8
0
10
10.959434375
20
55.372
30
0
0
VERTEX
8
0
10
9.360565625000001
20
55.372
30
0
0
VERTEX
8
0
10
9.28605625
20
55.3646625
30
0
42
0.9063472543261978
0
VERTEX
8
0
10
9.360565625000001
20
53.848000000000006
30
0
0
VERTEX
8
0
10
10.959434375
20
53.848000000000006
30
0
0
SEQEND
0
POLYLINE
66
1
8
16_copper
10
0.0
20
0.0
30
0.0
70
1
0
VERTEX
8
0
10
11.03394375
20
51.315337500000005
30
0
42
0.9063472543261978
0
VERTEX
8
0
10
10.959434375
20
52.832
30
0
0
VERTEX
8
0
10
9.360565625000001
20
52.832
30
0
0
VERTEX
8
0
10
9.28605625
20
52.8246625
30
0
42
0.9063472543261978
0
VERTEX
8
0
10
9.360565625000001
20
51.308
30
0
0
VERTEX
8
0
10
10.959434375
20
51.308
30
0
0
SEQEND
0
POLYLINE
66
1
8
16_copper
10
0.0
20
0.0
30
0.0
70
1
0
VERTEX
8
0
10
36.433943750000005
20
51.315337500000005
30
0
42
0.9063472543261978
0
VERTEX
8
0
10
36.359434375
20
52.832
30
0
0
VERTEX
8
0
10
34.760565625
20
52.832
30
0
0
VERTEX
8
0
10
34.68605625
20
52.8246625
30
0
42
0.9063472543261978
0
VERTEX
8
0
10
34.760565625
20
51.308
30
0
0
VERTEX
8
0
10
36.359434375
20
51.308
30
0
0
SEQEND
0
POLYLINE
66
1
8
16_copper
10
0.0
20
0.0
30
0.0
70
1
0
VERTEX
8
0
10
11.03394375
20
48.7753375
30
0
42
0.9063472543261978
0
VERTEX
8
0
10
10.959434375
20
50.292
30
0
0
VERTEX
8
0
10
9.360565625000001
20
50.292
30
0
0
VERTEX
8
0
10
9.28605625
20
50.2846625
30
0
42
0.9063472543261978
0
VERTEX
8
0
10
9.360565625000001
20
48.768
30
0
0
VERTEX
8
0
10
10.959434375
20
48.768
30
0
0
SEQEND
0
POLYLINE
66
1
8
16_copper
10
0.0
20
0.0
30
0.0
70
1
0
VERTEX
8
0
10
36.433943750000005
20
48.7753375
30
0
42
0.9063472543261978
0
VERTEX
8
0
10
36.359434375
20
50.292
30
0
0
VERTEX
8
0
10
34.760565625
20
50.292
30
0
0
VERTEX
8
0
10
34.68605625
20
50.2846625
30
0
42
0.9063472543261978
0
VERTEX
8
0
10
34.760565625
20
48.768
30
0
0
VERTEX
8
0
10
36.359434375
20
48.768
30
0
0
SEQEND
0
POLYLINE
66
1
8
16_copper
10
0.0
20
0.0
30
0.0
70
1
0
VERTEX
8
0
10
11.03394375
20
46.2353375
30
0
42
0.9063472543261978
0
VERTEX
8
0
10
10.959434375
20
47.752
30
0
0
VERTEX
8
0
10
9.360565625000001
20
47.752
30
0
0
VERTEX
8
0
10
9.28605625
20
47.744662500000004
30
0
42
0.9063472543261978
0
VERTEX
8
0
10
9.360565625000001
20
46.228
30
0
0
VERTEX
8
0
10
10.959434375
20
46.228
30
0
0
SEQEND
0
POLYLINE
66
1
8
16_copper
10
0.0
20
0.0
30
0.0
70
1
0
VERTEX
8
0
10
36.433943750000005
20
46.2353375
30
0
42
0.9063472543261978
0
VERTEX
8
0
10
36.359434375
20
47.752
30
0
0
VERTEX
8
0
10
34.760565625
20
47.752
30
0
0
VERTEX
8
0
10
34.68605625
20
47.744662500000004
30
0
42
0.9063472543261978
0
VERTEX
8
0
10
34.760565625
20
46.228
30
0
0
VERTEX
8
0
10
36.359434375
20
46.228
30
0
0
SEQEND
0
POLYLINE
66
1
8
16_copper
10
0.0
20
0.0
30
0.0
70
1
0
VERTEX
8
0
10
36.433943750000005
20
43.6953375
30
0
42
0.9063472543261978
0
VERTEX
8
0
10
36.359434375
20
45.212
30
0
0
VERTEX
8
0
10
34.760565625
20
45.212
30
0
0
VERTEX
8
0
10
34.68605625
20
45.204662500000005
30
0
42
0.9063472543261978
0
VERTEX
8
0
10
34.760565625
20
43.688
30
0
0
VERTEX
8
0
10
36.359434375
20
43.688
30
0
0
SEQEND
0
POLYLINE
66
1
8
16_copper
10
0.0
20
0.0
30
0.0
70
1
0
VERTEX
8
0
10
11.03394375
20
43.6953375
30
0
42
0.9063472543261978
0
VERTEX
8
0
10
10.959434375
20
45.212
30
0
0
VERTEX
8
0
10
9.360565625000001
20
45.212
30
0
0
VERTEX
8
0
10
9.28605625
20
45.204662500000005
30
0
42
0.9063472543261978
0
VERTEX
8
0
10
9.360565625000001
20
43.688
30
0
0
VERTEX
8
0
10
10.959434375
20
43.688
30
0
0
SEQEND
0
POLYLINE
66
1
8
16_copper
10
0.0
20
0.0
30
0.0
70
1
0
VERTEX
8
0
10
36.433943750000005
20
41.1553375
30
0
42
0.9063472543261978
0
VERTEX
8
0
10
36.359434375
20
42.672000000000004
30
0
0
VERTEX
8
0
10
34.760565625
20
42.672000000000004
30
0
0
VERTEX
8
0
10
34.68605625
20
42.6646625
30
0
42
0.9063472543261978
0
VERTEX
8
0
10
34.760565625
20
41.148
30
0
0
VERTEX
8
0
10
36.359434375
20
41.148
30
0
0
SEQEND
0
POLYLINE
66
1
8
16_copper
10
0.0
20
0.0
30
0.0
70
1
0
VERTEX
8
0
10
11.03394375
20
41.1553375
30
0
42
0.9063472543261978
0
VERTEX
8
0
10
10.959434375
20
42.672000000000004
30
0
0
VERTEX
8
0
10
9.360565625000001
20
42.672000000000004
30
0
0
VERTEX
8
0
10
9.28605625
20
42.6646625
30
0
42
0.9063472543261978
0
VERTEX
8
0
10
9.360565625000001
20
41.148
30
0
0
VERTEX
8
0
10
10.959434375
20
41.148
30
0
0
SEQEND
0
POLYLINE
66
1
8
16_copper
10
0.0
20
0.0
30
0.0
70
1
0
VERTEX
8
0
10
11.03394375
20
38.6153375
30
0
42
0.9063472543261978
0
VERTEX
8
0
10
10.959434375
20
40.132000000000005
30
0
0
VERTEX
8
0
10
9.360565625000001
20
40.132000000000005
30
0
0
VERTEX
8
0
10
9.28605625
20
40.1246625
30
0
42
0.9063472543261978
0
VERTEX
8
0
10
9.360565625000001
20
38.608000000000004
30
0
0
VERTEX
8
0
10
10.959434375
20
38.608000000000004
30
0
0
SEQEND
0
POLYLINE
66
1
8
16_copper
10
0.0
20
0.0
30
0.0
70
1
0
VERTEX
8
0
10
36.433943750000005
20
38.6153375
30
0
42
0.9063472543261978
0
VERTEX
8
0
10
36.359434375
20
40.132000000000005
30
0
0
VERTEX
8
0
10
34.760565625
20
40.132000000000005
30
0
0
VERTEX
8
0
10
34.68605625
20
40.1246625
30
0
42
0.9063472543261978
0
VERTEX
8
0
10
34.760565625
20
38.608000000000004
30
0
0
VERTEX
8
0
10
36.359434375
20
38.608000000000004
30
0
0
SEQEND
0
POLYLINE
66
1
8
16_copper
10
0.0
20
0.0
30
0.0
70
1
0
VERTEX
8
0
10
11.03394375
20
36.0753375
30
0
42
0.9063472543261978
0
VERTEX
8
0
10
10.959434375
20
37.592
30
0
0
VERTEX
8
0
10
9.360565625000001
20
37.592
30
0
0
VERTEX
8
0
10
9.28605625
20
37.5846625
30
0
42
0.9063472543261978
0
VERTEX
8
0
10
9.360565625000001
20
36.068000000000005
30
0
0
VERTEX
8
0
10
10.959434375
20
36.068000000000005
30
0
0
SEQEND
0
POLYLINE
66
1
8
16_copper
10
0.0
20
0.0
30
0.0
70
1
0
VERTEX
8
0
10
36.433943750000005
20
36.0753375
30
0
42
0.9063472543261978
0
VERTEX
8
0
10
36.359434375
20
37.592
30
0
0
VERTEX
8
0
10
34.760565625
20
37.592
30
0
0
VERTEX
8
0
10
34.68605625
20
37.5846625
30
0
42
0.9063472543261978
0
VERTEX
8
0
10
34.760565625
20
36.068000000000005
30
0
0
VERTEX
8
0
10
36.359434375
20
36.068000000000005
30
0
0
SEQEND
0
POLYLINE
66
1
8
16_copper
10
0.0
20
0.0
30
0.0
70
1
0
VERTEX
8
0
10
11.03394375
20
33.535337500000004
30
0
42
0.9063472543261978
0
VERTEX
8
0
10
10.959434375
20
35.052
30
0
0
VERTEX
8
0
10
9.360565625000001
20
35.052
30
0
0
VERTEX
8
0
10
9.28605625
20
35.0446625
30
0
42
0.9063472543261978
0
VERTEX
8
0
10
9.360565625000001
20
33.528
30
0
0
VERTEX
8
0
10
10.959434375
20
33.528
30
0
0
SEQEND
0
POLYLINE
66
1
8
16_copper
10
0.0
20
0.0
30
0.0
70
1
0
VERTEX
8
0
10
36.433943750000005
20
33.535337500000004
30
0
42
0.9063472543261978
0
VERTEX
8
0
10
36.359434375
20
35.052
30
0
0
VERTEX
8
0
10
34.760565625
20
35.052
30
0
0
VERTEX
8
0
10
34.68605625
20
35.0446625
30
0
42
0.9063472543261978
0
VERTEX
8
0
10
34.760565625
20
33.528
30
0
0
VERTEX
8
0
10
36.359434375
20
33.528
30
0
0
SEQEND
0
POLYLINE
66
1
8
16_copper
10
0.0
20
0.0
30
0.0
70
1
0
VERTEX
8
0
10
11.03394375
20
30.9953375
30
0
42
0.9063472543261978
0
VERTEX
8
0
10
10.959434375
20
32.512
30
0
0
VERTEX
8
0
10
9.360565625000001
20
32.512
30
0
0
VERTEX
8
0
10
9.28605625
20
32.5046625
30
0
42
0.9063472543261978
0
VERTEX
8
0
10
9.360565625000001
20
30.988000000000003
30
0
0
VERTEX
8
0
10
10.959434375
20
30.988000000000003
30
0
0
SEQEND
0
POLYLINE
66
1
8
16_copper
10
0.0
20
0.0
30
0.0
70
1
0
VERTEX
8
0
10
36.433943750000005
20
30.9953375
30
0
42
0.9063472543261978
0
VERTEX
8
0
10
36.359434375
20
32.512
30
0
0
VERTEX
8
0
10
34.760565625
20
32.512
30
0
0
VERTEX
8
0
10
34.68605625
20
32.5046625
30
0
42
0.9063472543261978
0
VERTEX
8
0
10
34.760565625
20
30.988000000000003
30
0
0
VERTEX
8
0
10
36.359434375
20
30.988000000000003
30
0
0
SEQEND
0
POLYLINE
66
1
8
16_copper
10
0.0
20
0.0
30
0.0
70
1
0
VERTEX
8
0
10
36.433943750000005
20
28.455337500000002
30
0
42
0.9063472543261978
0
VERTEX
8
0
10
36.359434375
20
29.972
30
0
0
VERTEX
8
0
10
34.760565625
20
29.972
30
0
0
VERTEX
8
0
10
34.68605625
20
29.964662500000003
30
0
42
0.9063472543261978
0
VERTEX
8
0
10
34.760565625
20
28.448
30
0
0
VERTEX
8
0
10
36.359434375
20
28.448
30
0
0
SEQEND
0
POLYLINE
66
1
8
16_copper
10
0.0
20
0.0
30
0.0
70
1
0
VERTEX
8
0
10
36.433943750000005
20
25.9153375
30
0
42
0.9063472543261978
0
VERTEX
8
0
10
36.359434375
20
27.432000000000002
30
0
0
VERTEX
8
0
10
34.760565625
20
27.432000000000002
30
0
0
VERTEX
8
0
10
34.68605625
20
27.4246625
30
0
42
0.9063472543261978
0
VERTEX
8
0
10
34.760565625
20
25.908
30
0
0
VERTEX
8
0
10
36.359434375
20
25.908
30
0
0
SEQEND
0
POLYLINE
66
1
8
1_copper
10
0.0
20
0.0
30
0.0
70
1
0
VERTEX
8
0
10
38.015831250000005
20
24.3332
30
0
0
VERTEX
8
0
10
14.05416875
20
24.3332
30
0
0
VERTEX
8
0
10
12.9032
20
25.484168750000002
30
0
0
VERTEX
8
0
10
12.9032
20
27.85583125
30
0
0
VERTEX
8
0
10
14.113684375
20
29.066315625
30
0
0
VERTEX
8
0
10
14.120215625
20
29.07410625
30
0
0
VERTEX
8
0
10
14.127296875
20
29.0813625
30
0
42
0.13234447677005623
0
VERTEX
8
0
10
14.170631250000001
20
29.177790625
30
0
0
VERTEX
8
0
10
14.17129375
20
29.186115625000003
30
0
42
0.01805948283611007
0
VERTEX
8
0
10
14.172459375
20
29.20070625
30
0
0
VERTEX
8
0
10
14.173200000000001
20
29.21
30
0
0
VERTEX
8
0
10
14.173200000000001
20
77.47
30
0
0
VERTEX
8
0
10
14.1723125
20
77.480103125
30
0
0
VERTEX
8
0
10
14.172187500000001
20
77.490265625
30
0
42
0.13234210275356542
0
VERTEX
8
0
10
14.13464375
20
77.589090625
30
0
0
VERTEX
8
0
10
14.129218750000001
20
77.59545625
30
0
42
0.01802390080028543
0
VERTEX
8
0
10
14.119743750000001
20
77.606575
30
0
0
VERTEX
8
0
10
14.113684375
20
77.613684375
30
0
0
VERTEX
8
0
10
12.9032
20
78.82416875
30
0
0
VERTEX
8
0
10
12.9032
20
105.32583125000001
30
0
0
VERTEX
8
0
10
14.05416875
20
106.47680000000001
30
0
0
VERTEX
8
0
10
27.94
20
106.47680000000001
30
0
0
VERTEX
8
0
10
27.950103125000002
20
106.4776875
30
0
0
VERTEX
8
0
10
27.960265625
20
106.4778125
30
0
42
0.13234210275356542
0
VERTEX
8
0
10
28.059090625
20
106.51535625000001
30
0
0
VERTEX
8
0
10
28.06545625
20
106.52078125
30
0
42
0.01802390080028543
0
VERTEX
8
0
10
28.076575000000002
20
106.53025625000001
30
0
0
VERTEX
8
0
10
28.083684375
20
106.536315625
30
0
0
VERTEX
8
0
10
29.29416875
20
107.74680000000001
30
0
0
VERTEX
8
0
10
32.793350000000004
20
107.74680000000001
30
0
0
VERTEX
8
0
10
32.809678125000005
20
107.69298125
30
0
42
0.30334709750080463
0
VERTEX
8
0
10
33.490565625
20
107.188
30
0
0
VERTEX
8
0
10
35.089434375
20
107.188
30
0
0
VERTEX
8
0
10
35.16394375
20
107.19533750000001
30
0
42
0.9063472543261978
0
VERTEX
8
0
10
35.089434375
20
108.712
30
0
0
VERTEX
8
0
10
33.490565625
20
108.712
30
0
0
VERTEX
8
0
10
33.416056250000004
20
108.70466250000001
30
0
42
0.2767375280948381
0
VERTEX
8
0
10
32.809678125000005
20
108.20701875
30
0
0
VERTEX
8
0
10
32.793350000000004
20
108.1532
30
0
0
VERTEX
8
0
10
29.21
20
108.1532
30
0
0
VERTEX
8
0
10
29.199896875
20
108.15231250000001
30
0
0
VERTEX
8
0
10
29.189734375
20
108.15218750000001
30
0
42
0.13234210275356542
0
VERTEX
8
0
10
29.090909375000003
20
108.11464375
30
0
0
VERTEX
8
0
10
29.08454375
20
108.10921875000001
30
0
42
0.01802390080028543
0
VERTEX
8
0
10
29.073425
20
108.09974375
30
0
0
VERTEX
8
0
10
29.066315625
20
108.09368437500001
30
0
0
VERTEX
8
0
10
27.85583125
20
106.8832
30
0
0
VERTEX
8
0
10
13.97
20
106.8832
30
0
0
VERTEX
8
0
10
13.959896875
20
106.88231250000001
30
0
0
VERTEX
8
0
10
13.949734375
20
106.8821875
30
0
42
0.13234210275356542
0
VERTEX
8
0
10
13.850909375
20
106.84464375
30
0
0
VERTEX
8
0
10
13.844543750000001
20
106.83921875
30
0
42
0.01802390080028543
0
VERTEX
8
0
10
13.833425
20
106.82974375
30
0
0
VERTEX
8
0
10
13.826315625000001
20
106.823684375
30
0
0
VERTEX
8
0
10
12.556315625
20
105.553684375
30
0
0
VERTEX
8
0
10
12.549784375
20
105.54589375
30
0
0
VERTEX
8
0
10
12.542703125000001
20
105.53863750000001
30
0
42
0.13234447677005623
0
VERTEX
8
0
10
12.49936875
20
105.442209375
30
0
0
VERTEX
8
0
10
12.498706250000001
20
105.433884375
30
0
42
0.01805948283611007
0
VERTEX
8
0
10
12.497540625000001
20
105.41929375000001
30
0
0
VERTEX
8
0
10
12.4968
20
105.41000000000001
30
0
0
VERTEX
8
0
10
12.4968
20
104.63056875000001
30
0
0
VERTEX
8
0
10
11.573684375000001
20
105.553684375
30
0
0
VERTEX
8
0
10
11.56589375
20
105.56021562500001
30
0
0
VERTEX
8
0
10
11.5586375
20
105.56729687500001
30
0
42
0.13234447677005623
0
VERTEX
8
0
10
11.462209375
20
105.61063125000001
30
0
0
VERTEX
8
0
10
11.453884375000001
20
105.61129375
30
0
42
0.01805948283611007
0
VERTEX
8
0
10
11.439293750000001
20
105.612459375
30
0
0
VERTEX
8
0
10
11.43
20
105.6132
30
0
0
VERTEX
8
0
10
5.16416875
20
105.6132
30
0
0
VERTEX
8
0
10
4.0132
20
106.76416875000001
30
0
0
VERTEX
8
0
10
4.0132
20
109.8296
30
0
0
VERTEX
8
0
10
4.0835437500000005
20
109.8296
30
0
0
VERTEX
8
0
10
4.470400000000001
20
110.21645625000001
30
0
0
VERTEX
8
0
10
4.470400000000001
20
110.76354375000001
30
0
0
VERTEX
8
0
10
4.0835437500000005
20
111.1504
30
0
0
VERTEX
8
0
10
3.53645625
20
111.1504
30
0
0
VERTEX
8
0
10
3.1496
20
110.76354375000001
30
0
0
VERTEX
8
0
10
3.1496
20
110.21645625000001
30
0
0
VERTEX
8
0
10
3.53645625
20
109.8296
30
0
0
VERTEX
8
0
10
3.6068000000000002
20
109.8296
30
0
0
VERTEX
8
0
10
3.6068000000000002
20
106.68
30
0
0
VERTEX
8
0
10
3.6076875000000004
20
106.669896875
30
0
0
VERTEX
8
0
10
3.6078125
20
106.659734375
30
0
42
0.13234210275356542
0
VERTEX
8
0
10
3.6453562500000003
20
106.56090937500001
30
0
0
VERTEX
8
0
10
3.65078125
20
106.55454375000001
30
0
42
0.01802390080028543
0
VERTEX
8
0
10
3.66025625
20
106.543425
30
0
0
VERTEX
8
0
10
3.666315625
20
106.536315625
30
0
0
VERTEX
8
0
10
4.936315625000001
20
105.266315625
30
0
0
VERTEX
8
0
10
4.94410625
20
105.25978437500001
30
0
0
VERTEX
8
0
10
4.9513625
20
105.25270312500001
30
0
42
0.13234447677005623
0
VERTEX
8
0
10
5.047790625
20
105.20936875000001
30
0
0
VERTEX
8
0
10
5.056115625
20
105.20870625
30
0
42
0.01805948283611007
0
VERTEX
8
0
10
5.070706250000001
20
105.20754062500001
30
0
0
VERTEX
8
0
10
5.08
20
105.2068
30
0
0
VERTEX
8
0
10
11.34583125
20
105.2068
30
0
0
VERTEX
8
0
10
12.4968
20
104.05583125000001
30
0
0
VERTEX
8
0
10
12.4968
20
85.58056875
30
0
0
VERTEX
8
0
10
11.573684375000001
20
86.503684375
30
0
0
VERTEX
8
0
10
11.56589375
20
86.510215625
30
0
0
VERTEX
8
0
10
11.5586375
20
86.517296875
30
0
42
0.13234447677005623
0
VERTEX
8
0
10
11.462209375
20
86.56063125
30
0
0
VERTEX
8
0
10
11.453884375000001
20
86.56129375
30
0
42
0.01805948283611007
0
VERTEX
8
0
10
11.439293750000001
20
86.562459375
30
0
0
VERTEX
8
0
10
11.43
20
86.56320000000001
30
0
0
VERTEX
8
0
10
10.386650000000001
20
86.56320000000001
30
0
0
VERTEX
8
0
10
10.370321875
20
86.61701875
30
0
42
0.30334709750080463
0
VERTEX
8
0
10
9.689434375000001
20
87.122
30
0
0
VERTEX
8
0
10
8.090565625
20
87.122
30
0
0
VERTEX
8
0
10
8.01605625
20
87.11466250000001
30
0
42
0.9063472543261978
0
VERTEX
8
0
10
8.090565625
20
85.598
30
0
0
VERTEX
8
0
10
9.689434375000001
20
85.598
30
0
0
VERTEX
8
0
10
9.763943750000001
20
85.6053375
30
0
42
0.2767375280948381
0
VERTEX
8
0
10
10.370321875
20
86.10298125
30
0
0
VERTEX
8
0
10
10.386650000000001
20
86.1568
30
0
0
VERTEX
8
0
10
11.34583125
20
86.1568
30
0
0
VERTEX
8
0
10
12.4968
20
85.00583125
30
0
0
VERTEX
8
0
10
12.4968
20
78.74000000000001
30
0
0
VERTEX
8
0
10
12.497687500000001
20
78.72989687500001
30
0
0
VERTEX
8
0
10
12.4978125
20
78.719734375
30
0
42
0.13234210275356542
0
VERTEX
8
0
10
12.535356250000001
20
78.62090937500001
30
0
0
VERTEX
8
0
10
12.54078125
20
78.61454375000001
30
0
42
0.01802390080028543
0
VERTEX
8
0
10
12.55025625
20
78.603425
30
0
0
VERTEX
8
0
10
12.556315625
20
78.596315625
30
0
0
VERTEX
8
0
10
13.7668
20
77.38583125000001
30
0
0
VERTEX
8
0
10
13.7668
20
57.64056875
30
0
0
VERTEX
8
0
10
12.843684375
20
58.563684375
30
0
0
VERTEX
8
0
10
12.83589375
20
58.570215625
30
0
0
VERTEX
8
0
10
12.828637500000001
20
58.577296875
30
0
42
0.13234447677005623
0
VERTEX
8
0
10
12.732209375
20
58.62063125
30
0
0
VERTEX
8
0
10
12.723884375
20
58.62129375
30
0
42
0.01805948283611007
0
VERTEX
8
0
10
12.70929375
20
58.622459375000005
30
0
0
VERTEX
8
0
10
12.700000000000001
20
58.623200000000004
30
0
0
VERTEX
8
0
10
7.70416875
20
58.623200000000004
30
0
0
VERTEX
8
0
10
6.493684375
20
59.833684375000004
30
0
0
VERTEX
8
0
10
6.485893750000001
20
59.840215625000006
30
0
0
VERTEX
8
0
10
6.4786375000000005
20
59.847296875000005
30
0
42
0.13234447677005623
0
VERTEX
8
0
10
6.382209375
20
59.890631250000006
30
0
0
VERTEX
8
0
10
6.373884375
20
59.89129375
30
0
42
0.01805948283611007
0
VERTEX
8
0
10
6.35929375
20
59.892459375
30
0
0
VERTEX
8
0
10
6.3500000000000005
20
59.8932
30
0
0
VERTEX
8
0
10
5.30665
20
59.8932
30
0
0
VERTEX
8
0
10
5.290321875
20
59.947018750000005
30
0
42
0.30334709750080463
0
VERTEX
8
0
10
4.609434375
20
60.452000000000005
30
0
0
VERTEX
8
0
10
3.0105656250000004
20
60.452000000000005
30
0
0
VERTEX
8
0
10
2.93605625
20
60.4446625
30
0
42
0.9063472543261978
0
VERTEX
8
0
10
3.0105656250000004
20
58.928000000000004
30
0
0
VERTEX
8
0
10
3.6068000000000002
20
58.928000000000004
30
0
0
VERTEX
8
0
10
3.6068000000000002
20
57.912000000000006
30
0
0
VERTEX
8
0
10
3.0105656250000004
20
57.912000000000006
30
0
0
VERTEX
8
0
10
2.93605625
20
57.9046625
30
0
42
0.9063472543261978
0
VERTEX
8
0
10
3.0105656250000004
20
56.388000000000005
30
0
0
VERTEX
8
0
10
4.609434375
20
56.388000000000005
30
0
0
VERTEX
8
0
10
4.68394375
20
56.395337500000004
30
0
42
0.9063472543261978
0
VERTEX
8
0
10
4.609434375
20
57.912000000000006
30
0
0
VERTEX
8
0
10
4.0132
20
57.912000000000006
30
0
0
VERTEX
8
0
10
4.0132
20
58.928000000000004
30
0
0
VERTEX
8
0
10
4.609434375
20
58.928000000000004
30
0
0
VERTEX
8
0
10
4.68394375
20
58.9353375
30
0
42
0.2767375280948381
0
VERTEX
8
0
10
5.290321875
20
59.432981250000005
30
0
0
VERTEX
8
0
10
5.30665
20
59.4868
30
0
0
VERTEX
8
0
10
6.265831250000001
20
59.4868
30
0
0
VERTEX
8
0
10
7.476315625000001
20
58.276315625
30
0
0
VERTEX
8
0
10
7.48410625
20
58.269784375
30
0
0
VERTEX
8
0
10
7.4913625
20
58.262703125
30
0
42
0.13234447677005623
0
VERTEX
8
0
10
7.587790625
20
58.21936875
30
0
0
VERTEX
8
0
10
7.596115625
20
58.218706250000004
30
0
42
0.01805948283611007
0
VERTEX
8
0
10
7.610706250000001
20
58.217540625000005
30
0
0
VERTEX
8
0
10
7.62
20
58.216800000000006
30
0
0
VERTEX
8
0
10
12.615831250000001
20
58.216800000000006
30
0
0
VERTEX
8
0
10
13.7668
20
57.06583125
30
0
0
VERTEX
8
0
10
13.7668
20
29.29416875
30
0
0
VERTEX
8
0
10
12.700000000000001
20
28.22736875
30
0
0
VERTEX
8
0
10
11.684000000000001
20
29.243368750000002
30
0
0
VERTEX
8
0
10
11.684000000000001
20
29.247434375
30
0
42
0.3857427802303482
0
VERTEX
8
0
10
10.959434375
20
29.972
30
0
0
VERTEX
8
0
10
9.360565625000001
20
29.972
30
0
0
VERTEX
8
0
10
9.28605625
20
29.964662500000003
30
0
42
0.2767375280948381
0
VERTEX
8
0
10
8.679678125
20
29.46701875
30
0
0
VERTEX
8
0
10
8.663350000000001
20
29.4132
30
0
0
VERTEX
8
0
10
7.70416875
20
29.4132
30
0
0
VERTEX
8
0
10
6.5532
20
30.56416875
30
0
0
VERTEX
8
0
10
6.5532
20
48.260000000000005
30
0
0
VERTEX
8
0
10
6.5523125
20
48.270103125000006
30
0
0
VERTEX
8
0
10
6.5521875000000005
20
48.280265625000006
30
0
42
0.13234210275356542
0
VERTEX
8
0
10
6.51464375
20
48.379090625
30
0
0
VERTEX
8
0
10
6.5092187500000005
20
48.385456250000004
30
0
42
0.01802390080028543
0
VERTEX
8
0
10
6.49974375
20
48.396575000000006
30
0
0
VERTEX
8
0
10
6.493684375
20
48.403684375000005
30
0
0
VERTEX
8
0
10
5.3340000000000005
20
49.56336875
30
0
0
VERTEX
8
0
10
5.3340000000000005
20
49.567434375000005
30
0
42
0.3857427802303482
0
VERTEX
8
0
10
4.609434375
20
50.292
30
0
0
VERTEX
8
0
10
3.0105656250000004
20
50.292
30
0
0
VERTEX
8
0
10
2.93605625
20
50.2846625
30
0
42
0.9063472543261978
0
VERTEX
8
0
10
3.0105656250000004
20
48.768
30
0
0
VERTEX
8
0
10
4.609434375
20
48.768
30
0
0
VERTEX
8
0
10
4.68394375
20
48.7753375
30
0
42
0.19891253782644208
0
VERTEX
8
0
10
5.18478125
20
49.075531250000004
30
0
0
VERTEX
8
0
10
5.20974375
20
49.1128875
30
0
0
VERTEX
8
0
10
6.146800000000001
20
48.17583125
30
0
0
VERTEX
8
0
10
6.146800000000001
20
30.48
30
0
0
VERTEX
8
0
10
6.1476875
20
30.469896875
30
0
0
VERTEX
8
0
10
6.147812500000001
20
30.459734375
30
0
42
0.13234210275356542
0
VERTEX
8
0
10
6.18535625
20
30.360909375000002
30
0
0
VERTEX
8
0
10
6.190781250000001
20
30.35454375
30
0
42
0.01802390080028543
0
VERTEX
8
0
10
6.200256250000001
20
30.343425
30
0
0
VERTEX
8
0
10
6.206315625
20
30.336315625
30
0
0
VERTEX
8
0
10
7.4168
20
29.12583125
30
0
0
VERTEX
8
0
10
7.4168
20
19.380000000000003
30
0
0
VERTEX
8
0
10
6.87
20
19.380000000000003
30
0
0
VERTEX
8
0
10
6.87
20
18.080000000000002
30
0
0
VERTEX
8
0
10
8.370000000000001
20
18.080000000000002
30
0
0
VERTEX
8
0
10
8.370000000000001
20
19.380000000000003
30
0
0
VERTEX
8
0
10
7.8232
20
19.380000000000003
30
0
0
VERTEX
8
0
10
7.8232
20
29.006800000000002
30
0
0
VERTEX
8
0
10
8.663350000000001
20
29.006800000000002
30
0
0
VERTEX
8
0
10
8.679678125
20
28.95298125
30
0
42
0.30334709750080463
0
VERTEX
8
0
10
9.360565625000001
20
28.448
30
0
0
VERTEX
8
0
10
10.959434375
20
28.448
30
0
0
VERTEX
8
0
10
11.03394375
20
28.455337500000002
30
0
42
0.19891253782644208
0
VERTEX
8
0
10
11.53478125
20
28.75553125
30
0
0
VERTEX
8
0
10
11.55974375
20
28.792887500000003
30
0
0
VERTEX
8
0
10
12.4968
20
27.85583125
30
0
0
VERTEX
8
0
10
12.4968
20
25.400000000000002
30
0
0
VERTEX
8
0
10
12.497687500000001
20
25.389896875
30
0
0
VERTEX
8
0
10
12.4978125
20
25.379734375
30
0
42
0.13234210275356542
0
VERTEX
8
0
10
12.535356250000001
20
25.280909375
30
0
0
VERTEX
8
0
10
12.54078125
20
25.274543750000003
30
0
42
0.01802390080028543
0
VERTEX
8
0
10
12.55025625
20
25.263425
30
0
0
VERTEX
8
0
10
12.556315625
20
25.256315625000003
30
0
0
VERTEX
8
0
10
13.826315625000001
20
23.986315625
30
0
0
VERTEX
8
0
10
13.834106250000001
20
23.979784375
30
0
0
VERTEX
8
0
10
13.8413625
20
23.972703125000002
30
0
42
0.13234447677005623
0
VERTEX
8
0
10
13.937790625
20
23.929368750000002
30
0
0
VERTEX
8
0
10
13.946115625000001
20
23.92870625
30
0
42
0.01805948283611007
0
VERTEX
8
0
10
13.960706250000001
20
23.927540625000002
30
0
0
VERTEX
8
0
10
13.97
20
23.9268
30
0
0
VERTEX
8
0
10
38.1
20
23.9268
30
0
0
VERTEX
8
0
10
38.110103125
20
23.9276875
30
0
0
VERTEX
8
0
10
38.120265625
20
23.9278125
30
0
42
0.13234210275356542
0
VERTEX
8
0
10
38.219090625
20
23.965356250000003
30
0
0
VERTEX
8
0
10
38.22545625
20
23.97078125
30
0
42
0.01802390080028543
0
VERTEX
8
0
10
38.236575
20
23.98025625
30
0
0
VERTEX
8
0
10
38.243684375
20
23.986315625
30
0
0
VERTEX
8
0
10
39.513684375000004
20
25.256315625000003
30
0
0
VERTEX
8
0
10
39.520215625
20
25.26410625
30
0
0
VERTEX
8
0
10
39.527296875000005
20
25.271362500000002
30
0
42
0.13234447677005623
0
VERTEX
8
0
10
39.570631250000005
20
25.367790625
30
0
0
VERTEX
8
0
10
39.57129375
20
25.376115625
30
0
42
0.01805948283611007
0
VERTEX
8
0
10
39.572459375
20
25.39070625
30
0
0
VERTEX
8
0
10
39.5732
20
25.400000000000002
30
0
0
VERTEX
8
0
10
39.5732
20
48.17583125
30
0
0
VERTEX
8
0
10
40.510256250000005
20
49.1128875
30
0
0
VERTEX
8
0
10
40.53521875
20
49.075531250000004
30
0
42
0.22455782798648444
0
VERTEX
8
0
10
41.110565625
20
48.768
30
0
0
VERTEX
8
0
10
42.709434375
20
48.768
30
0
0
VERTEX
8
0
10
42.78394375
20
48.7753375
30
0
42
0.9063472543261978
0
VERTEX
8
0
10
42.709434375
20
50.292
30
0
0
VERTEX
8
0
10
41.110565625
20
50.292
30
0
0
VERTEX
8
0
10
41.03605625
20
50.2846625
30
0
42
0.3578057741447831
0
VERTEX
8
0
10
40.386
20
49.567434375000005
30
0
0
VERTEX
8
0
10
40.386
20
49.56336875
30
0
0
VERTEX
8
0
10
39.5732
20
48.75056875
30
0
0
VERTEX
8
0
10
39.5732
20
54.52583125
30
0
0
VERTEX
8
0
10
41.43536875
20
56.388000000000005
30
0
0
VERTEX
8
0
10
42.709434375
20
56.388000000000005
30
0
0
VERTEX
8
0
10
42.78394375
20
56.395337500000004
30
0
42
0.9063472543261978
0
VERTEX
8
0
10
42.709434375
20
57.912000000000006
30
0
0
VERTEX
8
0
10
42.1132
20
57.912000000000006
30
0
0
VERTEX
8
0
10
42.1132
20
58.928000000000004
30
0
0
VERTEX
8
0
10
42.709434375
20
58.928000000000004
30
0
0
VERTEX
8
0
10
42.78394375
20
58.9353375
30
0
42
0.9063472543261978
0
VERTEX
8
0
10
42.709434375
20
60.452000000000005
30
0
0
VERTEX
8
0
10
41.110565625
20
60.452000000000005
30
0
0
VERTEX
8
0
10
41.03605625
20
60.4446625
30
0
42
0.9063472543261978
0
VERTEX
8
0
10
41.110565625
20
58.928000000000004
30
0
0
VERTEX
8
0
10
41.7068
20
58.928000000000004
30
0
0
VERTEX
8
0
10
41.7068
20
57.912000000000006
30
0
0
VERTEX
8
0
10
41.110565625
20
57.912000000000006
30
0
0
VERTEX
8
0
10
41.03605625
20
57.9046625
30
0
42
0.7804080451865358
0
VERTEX
8
0
10
40.89098125
20
56.431678125000005
30
0
0
VERTEX
8
0
10
40.90120625
20
56.428575
30
0
0
VERTEX
8
0
10
39.226315625000005
20
54.753684375000006
30
0
0
VERTEX
8
0
10
39.219784375
20
54.74589375
30
0
0
VERTEX
8
0
10
39.212703125000004
20
54.7386375
30
0
42
0.13234447677005623
0
VERTEX
8
0
10
39.169368750000004
20
54.642209375
30
0
0
VERTEX
8
0
10
39.16870625
20
54.633884375
30
0
42
0.01805948283611007
0
VERTEX
8
0
10
39.167540625
20
54.619293750000004
30
0
0
VERTEX
8
0
10
39.1668
20
54.61
30
0
0
VERTEX
8
0
10
39.1668
20
25.484168750000002
30
0
0
SEQEND
0
POLYLINE
66
1
8
16_copper
10
0.0
20
0.0
30
0.0
70
1
0
VERTEX
8
0
10
4.470400000000001
20
110.21645625000001
30
0
0
VERTEX
8
0
10
4.470400000000001
20
110.76354375000001
30
0
0
VERTEX
8
0
10
4.0835437500000005
20
111.1504
30
0
0
VERTEX
8
0
10
3.53645625
20
111.1504
30
0
0
VERTEX
8
0
10
3.1496
20
110.76354375000001
30
0
0
VERTEX
8
0
10
3.1496
20
110.21645625000001
30
0
0
VERTEX
8
0
10
3.53645625
20
109.8296
30
0
0
VERTEX
8
0
10
4.0835437500000005
20
109.8296
30
0
0
SEQEND
0
POLYLINE
66
1
8
16_copper
10
0.0
20
0.0
30
0.0
70
1
0
VERTEX
8
0
10
35.16394375
20
107.19533750000001
30
0
42
0.9063472543261978
0
VERTEX
8
0
10
35.089434375
20
108.712
30
0
0
VERTEX
8
0
10
33.490565625
20
108.712
30
0
0
VERTEX
8
0
10
33.416056250000004
20
108.70466250000001
30
0
42
0.9063472543261978
0
VERTEX
8
0
10
33.490565625
20
107.188
30
0
0
VERTEX
8
0
10
35.089434375
20
107.188
30
0
0
SEQEND
0
POLYLINE
66
1
8
16_copper
10
0.0
20
0.0
30
0.0
70
1
0
VERTEX
8
0
10
9.763943750000001
20
85.6053375
30
0
42
0.9063472543261978
0
VERTEX
8
0
10
9.689434375000001
20
87.122
30
0
0
VERTEX
8
0
10
8.090565625
20
87.122
30
0
0
VERTEX
8
0
10
8.01605625
20
87.11466250000001
30
0
42
0.9063472543261978
0
VERTEX
8
0
10
8.090565625
20
85.598
30
0
0
VERTEX
8
0
10
9.689434375000001
20
85.598
30
0
0
SEQEND
0
POLYLINE
66
1
8
16_copper
10
0.0
20
0.0
30
0.0
70
1
0
VERTEX
8
0
10
4.68394375
20
58.9353375
30
0
42
0.9063472543261978
0
VERTEX
8
0
10
4.609434375
20
60.452000000000005
30
0
0
VERTEX
8
0
10
3.0105656250000004
20
60.452000000000005
30
0
0
VERTEX
8
0
10
2.93605625
20
60.4446625
30
0
42
0.9063472543261978
0
VERTEX
8
0
10
3.0105656250000004
20
58.928000000000004
30
0
0
VERTEX
8
0
10
4.609434375
20
58.928000000000004
30
0
0
SEQEND
0
POLYLINE
66
1
8
16_copper
10
0.0
20
0.0
30
0.0
70
1
0
VERTEX
8
0
10
42.78394375
20
58.9353375
30
0
42
0.9063472543261978
0
VERTEX
8
0
10
42.709434375
20
60.452000000000005
30
0
0
VERTEX
8
0
10
41.110565625
20
60.452000000000005
30
0
0
VERTEX
8
0
10
41.03605625
20
60.4446625
30
0
42
0.9063472543261978
0
VERTEX
8
0
10
41.110565625
20
58.928000000000004
30
0
0
VERTEX
8
0
10
42.709434375
20
58.928000000000004
30
0
0
SEQEND
0
POLYLINE
66
1
8
16_copper
10
0.0
20
0.0
30
0.0
70
1
0
VERTEX
8
0
10
4.68394375
20
56.395337500000004
30
0
42
0.9063472543261978
0
VERTEX
8
0
10
4.609434375
20
57.912000000000006
30
0
0
VERTEX
8
0
10
3.0105656250000004
20
57.912000000000006
30
0
0
VERTEX
8
0
10
2.93605625
20
57.9046625
30
0
42
0.9063472543261978
0
VERTEX
8
0
10
3.0105656250000004
20
56.388000000000005
30
0
0
VERTEX
8
0
10
4.609434375
20
56.388000000000005
30
0
0
SEQEND
0
POLYLINE
66
1
8
16_copper
10
0.0
20
0.0
30
0.0
70
1
0
VERTEX
8
0
10
42.78394375
20
56.395337500000004
30
0
42
0.9063472543261978
0
VERTEX
8
0
10
42.709434375
20
57.912000000000006
30
0
0
VERTEX
8
0
10
41.110565625
20
57.912000000000006
30
0
0
VERTEX
8
0
10
41.03605625
20
57.9046625
30
0
42
0.9063472543261978
0
VERTEX
8
0
10
41.110565625
20
56.388000000000005
30
0
0
VERTEX
8
0
10
42.709434375
20
56.388000000000005
30
0
0
SEQEND
0
POLYLINE
66
1
8
16_copper
10
0.0
20
0.0
30
0.0
70
1
0
VERTEX
8
0
10
4.68394375
20
48.7753375
30
0
42
0.9063472543261978
0
VERTEX
8
0
10
4.609434375
20
50.292
30
0
0
VERTEX
8
0
10
3.0105656250000004
20
50.292
30
0
0
VERTEX
8
0
10
2.93605625
20
50.2846625
30
0
42
0.9063472543261978
0
VERTEX
8
0
10
3.0105656250000004
20
48.768
30
0
0
VERTEX
8
0
10
4.609434375
20
48.768
30
0
0
SEQEND
0
POLYLINE
66
1
8
16_copper
10
0.0
20
0.0
30
0.0
70
1
0
VERTEX
8
0
10
42.78394375
20
48.7753375
30
0
42
0.9063472543261978
0
VERTEX
8
0
10
42.709434375
20
50.292
30
0
0
VERTEX
8
0
10
41.110565625
20
50.292
30
0
0
VERTEX
8
0
10
41.03605625
20
50.2846625
30
0
42
0.9063472543261978
0
VERTEX
8
0
10
41.110565625
20
48.768
30
0
0
VERTEX
8
0
10
42.709434375
20
48.768
30
0
0
SEQEND
0
POLYLINE
66
1
8
16_copper
10
0.0
20
0.0
30
0.0
70
1
0
VERTEX
8
0
10
11.03394375
20
28.455337500000002
30
0
42
0.9063472543261978
0
VERTEX
8
0
10
10.959434375
20
29.972
30
0
0
VERTEX
8
0
10
9.360565625000001
20
29.972
30
0
0
VERTEX
8
0
10
9.28605625
20
29.964662500000003
30
0
42
0.9063472543261978
0
VERTEX
8
0
10
9.360565625000001
20
28.448
30
0
0
VERTEX
8
0
10
10.959434375
20
28.448
30
0
0
SEQEND
0
POLYLINE
66
1
8
1_copper
10
0.0
20
0.0
30
0.0
70
1
0
VERTEX
8
0
10
6.4619437500000005
20
140.7233375
30
0
42
0.3578057741447831
0
VERTEX
8
0
10
7.112
20
141.440565625
30
0
0
VERTEX
8
0
10
7.112
20
143.039434375
30
0
0
VERTEX
8
0
10
7.104662500000001
20
143.11394375
30
0
42
0.9063472543261978
0
VERTEX
8
0
10
5.588
20
143.039434375
30
0
0
VERTEX
8
0
10
5.588
20
141.440565625
30
0
0
VERTEX
8
0
10
5.5953375
20
141.36605625
30
0
42
0.38574240611503685
0
VERTEX
8
0
10
6.387434375000001
20
140.716
30
0
0
SEQEND
0
POLYLINE
66
1
8
1_copper
10
0.0
20
0.0
30
0.0
70
1
0
VERTEX
8
0
10
43.8404
20
140.69645625
30
0
0
VERTEX
8
0
10
43.8404
20
141.24354375000001
30
0
0
VERTEX
8
0
10
43.45354375
20
141.6304
30
0
0
VERTEX
8
0
10
42.906456250000005
20
141.6304
30
0
0
VERTEX
8
0
10
42.519600000000004
20
141.24354375000001
30
0
0
VERTEX
8
0
10
42.519600000000004
20
140.69645625
30
0
0
VERTEX
8
0
10
42.906456250000005
20
140.30960000000002
30
0
0
VERTEX
8
0
10
43.45354375
20
140.30960000000002
30
0
0
SEQEND
0
POLYLINE
66
1
8
1_copper
10
0.0
20
0.0
30
0.0
70
1
0
VERTEX
8
0
10
43.8404
20
134.34645625000002
30
0
0
VERTEX
8
0
10
43.8404
20
134.89354375000002
30
0
0
VERTEX
8
0
10
43.45354375
20
135.28040000000001
30
0
0
VERTEX
8
0
10
42.906456250000005
20
135.28040000000001
30
0
0
VERTEX
8
0
10
42.519600000000004
20
134.89354375000002
30
0
0
VERTEX
8
0
10
42.519600000000004
20
134.34645625000002
30
0
0
VERTEX
8
0
10
42.906456250000005
20
133.9596
30
0
0
VERTEX
8
0
10
43.45354375
20
133.9596
30
0
0
SEQEND
0
POLYLINE
66
1
8
1_copper
10
0.0
20
0.0
30
0.0
70
1
0
VERTEX
8
0
10
43.8404
20
127.99645625000001
30
0
0
VERTEX
8
0
10
43.8404
20
128.54354375
30
0
0
VERTEX
8
0
10
43.45354375
20
128.93040000000002
30
0
0
VERTEX
8
0
10
42.906456250000005
20
128.93040000000002
30
0
0
VERTEX
8
0
10
42.519600000000004
20
128.54354375
30
0
0
VERTEX
8
0
10
42.519600000000004
20
127.99645625000001
30
0
0
VERTEX
8
0
10
42.906456250000005
20
127.6096
30
0
0
VERTEX
8
0
10
43.45354375
20
127.6096
30
0
0
SEQEND
0
POLYLINE
66
1
8
1_copper
10
0.0
20
0.0
30
0.0
70
1
0
VERTEX
8
0
10
12.30394375
20
124.97533750000001
30
0
42
0.9063472543261978
0
VERTEX
8
0
10
12.229434375
20
126.492
30
0
0
VERTEX
8
0
10
10.630565625000001
20
126.492
30
0
0
VERTEX
8
0
10
10.556056250000001
20
126.48466250000001
30
0
42
0.9063472543261978
0
VERTEX
8
0
10
10.630565625000001
20
124.968
30
0
0
VERTEX
8
0
10
12.229434375
20
124.968
30
0
0
SEQEND
0
POLYLINE
66
1
8
1_copper
10
0.0
20
0.0
30
0.0
70
1
0
VERTEX
8
0
10
43.8404
20
121.64645625
30
0
0
VERTEX
8
0
10
43.8404
20
122.19354375
30
0
0
VERTEX
8
0
10
43.45354375
20
122.58040000000001
30
0
0
VERTEX
8
0
10
42.906456250000005
20
122.58040000000001
30
0
0
VERTEX
8
0
10
42.519600000000004
20
122.19354375
30
0
0
VERTEX
8
0
10
42.519600000000004
20
121.64645625
30
0
0
VERTEX
8
0
10
42.906456250000005
20
121.2596
30
0
0
VERTEX
8
0
10
43.45354375
20
121.2596
30
0
0
SEQEND
0
POLYLINE
66
1
8
1_copper
10
0.0
20
0.0
30
0.0
70
1
0
VERTEX
8
0
10
12.30394375
20
114.81533750000001
30
0
42
0.9063472543261978
0
VERTEX
8
0
10
12.229434375
20
116.33200000000001
30
0
0
VERTEX
8
0
10
10.630565625000001
20
116.33200000000001
30
0
0
VERTEX
8
0
10
10.556056250000001
20
116.3246625
30
0
42
0.9063472543261978
0
VERTEX
8
0
10
10.630565625000001
20
114.808
30
0
0
VERTEX
8
0
10
12.229434375
20
114.808
30
0
0
SEQEND
0
POLYLINE
66
1
8
1_copper
10
0.0
20
0.0
30
0.0
70
1
0
VERTEX
8
0
10
35.16394375
20
109.7353375
30
0
42
0.9063472543261978
0
VERTEX
8
0
10
35.089434375
20
111.25200000000001
30
0
0
VERTEX
8
0
10
33.490565625
20
111.25200000000001
30
0
0
VERTEX
8
0
10
33.416056250000004
20
111.2446625
30
0
42
0.9063472543261978
0
VERTEX
8
0
10
33.490565625
20
109.72800000000001
30
0
0
VERTEX
8
0
10
35.089434375
20
109.72800000000001
30
0
0
SEQEND
0
POLYLINE
66
1
8
1_copper
10
0.0
20
0.0
30
0.0
70
1
0
VERTEX
8
0
10
44.05394375
20
104.6553375
30
0
42
0.9063472543261978
0
VERTEX
8
0
10
43.979434375000004
20
106.17200000000001
30
0
0
VERTEX
8
0
10
42.380565625
20
106.17200000000001
30
0
0
VERTEX
8
0
10
42.306056250000005
20
106.1646625
30
0
42
0.9063472543261978
0
VERTEX
8
0
10
42.380565625
20
104.64800000000001
30
0
0
VERTEX
8
0
10
43.979434375000004
20
104.64800000000001
30
0
0
SEQEND
0
POLYLINE
66
1
8
1_copper
10
0.0
20
0.0
30
0.0
70
1
0
VERTEX
8
0
10
3.41394375
20
93.22533750000001
30
0
42
0.9063472543261978
0
VERTEX
8
0
10
3.339434375
20
94.742
30
0
0
VERTEX
8
0
10
1.7405656250000001
20
94.742
30
0
0
VERTEX
8
0
10
1.66605625
20
94.7346625
30
0
42
0.9063472543261978
0
VERTEX
8
0
10
1.7405656250000001
20
93.218
30
0
0
VERTEX
8
0
10
3.339434375
20
93.218
30
0
0
SEQEND
0
POLYLINE
66
1
8
1_copper
10
0.0
20
0.0
30
0.0
70
1
0
VERTEX
8
0
10
9.763943750000001
20
88.14533750000001
30
0
42
0.9063472543261978
0
VERTEX
8
0
10
9.689434375000001
20
89.662
30
0
0
VERTEX
8
0
10
8.090565625
20
89.662
30
0
0
VERTEX
8
0
10
8.01605625
20
89.6546625
30
0
42
0.9063472543261978
0
VERTEX
8
0
10
8.090565625
20
88.138
30
0
0
VERTEX
8
0
10
9.689434375000001
20
88.138
30
0
0
SEQEND
0
POLYLINE
66
1
8
1_copper
10
0.0
20
0.0
30
0.0
70
1
0
VERTEX
8
0
10
36.433943750000005
20
76.7153375
30
0
42
0.9063472543261978
0
VERTEX
8
0
10
36.359434375
20
78.232
30
0
0
VERTEX
8
0
10
34.760565625
20
78.232
30
0
0
VERTEX
8
0
10
34.68605625
20
78.22466250000001
30
0
42
0.9063472543261978
0
VERTEX
8
0
10
34.760565625
20
76.708
30
0
0
VERTEX
8
0
10
36.359434375
20
76.708
30
0
0
SEQEND
0
POLYLINE
66
1
8
1_copper
10
0.0
20
0.0
30
0.0
70
1
0
VERTEX
8
0
10
44.05394375
20
76.7153375
30
0
42
0.9063472543261978
0
VERTEX
8
0
10
43.979434375000004
20
78.232
30
0
0
VERTEX
8
0
10
42.380565625
20
78.232
30
0
0
VERTEX
8
0
10
42.306056250000005
20
78.22466250000001
30
0
42
0.9063472543261978
0
VERTEX
8
0
10
42.380565625
20
76.708
30
0
0
VERTEX
8
0
10
43.979434375000004
20
76.708
30
0
0
SEQEND
0
POLYLINE
66
1
8
1_copper
10
0.0
20
0.0
30
0.0
70
1
0
VERTEX
8
0
10
4.68394375
20
65.2853375
30
0
42
0.9063472543261978
0
VERTEX
8
0
10
4.609434375
20
66.802
30
0
0
VERTEX
8
0
10
3.0105656250000004
20
66.802
30
0
0
VERTEX
8
0
10
2.93605625
20
66.7946625
30
0
42
0.9063472543261978
0
VERTEX
8
0
10
3.0105656250000004
20
65.278
30
0
0
VERTEX
8
0
10
4.609434375
20
65.278
30
0
0
SEQEND
0
POLYLINE
66
1
8
1_copper
10
0.0
20
0.0
30
0.0
70
1
0
VERTEX
8
0
10
42.78394375
20
65.2853375
30
0
42
0.9063472543261978
0
VERTEX
8
0
10
42.709434375
20
66.802
30
0
0
VERTEX
8
0
10
41.110565625
20
66.802
30
0
0
VERTEX
8
0
10
41.03605625
20
66.7946625
30
0
42
0.9063472543261978
0
VERTEX
8
0
10
41.110565625
20
65.278
30
0
0
VERTEX
8
0
10
42.709434375
20
65.278
30
0
0
SEQEND
0
POLYLINE
66
1
8
1_copper
10
0.0
20
0.0
30
0.0
70
1
0
VERTEX
8
0
10
4.68394375
20
62.745337500000005
30
0
42
0.9063472543261978
0
VERTEX
8
0
10
4.609434375
20
64.262
30
0
0
VERTEX
8
0
10
3.0105656250000004
20
64.262
30
0
0
VERTEX
8
0
10
2.93605625
20
64.25466250000001
30
0
42
0.9063472543261978
0
VERTEX
8
0
10
3.0105656250000004
20
62.738
30
0
0
VERTEX
8
0
10
4.609434375
20
62.738
30
0
0
SEQEND
0
POLYLINE
66
1
8
1_copper
10
0.0
20
0.0
30
0.0
70
1
0
VERTEX
8
0
10
42.78394375
20
62.745337500000005
30
0
42
0.9063472543261978
0
VERTEX
8
0
10
42.709434375
20
64.262
30
0
0
VERTEX
8
0
10
41.110565625
20
64.262
30
0
0
VERTEX
8
0
10
41.03605625
20
64.25466250000001
30
0
42
0.9063472543261978
0
VERTEX
8
0
10
41.110565625
20
62.738
30
0
0
VERTEX
8
0
10
42.709434375
20
62.738
30
0
0
SEQEND
0
POLYLINE
66
1
8
1_copper
10
0.0
20
0.0
30
0.0
70
1
0
VERTEX
8
0
10
4.68394375
20
46.2353375
30
0
42
0.9063472543261978
0
VERTEX
8
0
10
4.609434375
20
47.752
30
0
0
VERTEX
8
0
10
3.0105656250000004
20
47.752
30
0
0
VERTEX
8
0
10
2.93605625
20
47.744662500000004
30
0
42
0.9063472543261978
0
VERTEX
8
0
10
3.0105656250000004
20
46.228
30
0
0
VERTEX
8
0
10
4.609434375
20
46.228
30
0
0
SEQEND
0
POLYLINE
66
1
8
1_copper
10
0.0
20
0.0
30
0.0
70
1
0
VERTEX
8
0
10
42.78394375
20
46.2353375
30
0
42
0.9063472543261978
0
VERTEX
8
0
10
42.709434375
20
47.752
30
0
0
VERTEX
8
0
10
41.110565625
20
47.752
30
0
0
VERTEX
8
0
10
41.03605625
20
47.744662500000004
30
0
42
0.9063472543261978
0
VERTEX
8
0
10
41.110565625
20
46.228
30
0
0
VERTEX
8
0
10
42.709434375
20
46.228
30
0
0
SEQEND
0
POLYLINE
66
1
8
1_copper
10
0.0
20
0.0
30
0.0
70
1
0
VERTEX
8
0
10
11.03394375
20
25.9153375
30
0
42
0.9063472543261978
0
VERTEX
8
0
10
10.959434375
20
27.432000000000002
30
0
0
VERTEX
8
0
10
9.360565625000001
20
27.432000000000002
30
0
0
VERTEX
8
0
10
9.28605625
20
27.4246625
30
0
42
0.9063472543261978
0
VERTEX
8
0
10
9.360565625000001
20
25.908
30
0
0
VERTEX
8
0
10
10.959434375
20
25.908
30
0
0
SEQEND
0
POLYLINE
66
1
8
1_copper
10
0.0
20
0.0
30
0.0
70
1
0
VERTEX
8
0
10
38.9001
20
18.718590625
30
0
0
VERTEX
8
0
10
38.9001
20
19.381409375
30
0
0
VERTEX
8
0
10
38.431409375
20
19.8501
30
0
0
VERTEX
8
0
10
37.768590625
20
19.8501
30
0
0
VERTEX
8
0
10
37.2999
20
19.381409375
30
0
0
VERTEX
8
0
10
37.2999
20
18.718590625
30
0
0
VERTEX
8
0
10
37.768590625
20
18.2499
30
0
0
VERTEX
8
0
10
38.431409375
20
18.2499
30
0
0
SEQEND
0
POLYLINE
66
1
8
1_copper
10
0.0
20
0.0
30
0.0
70
1
0
VERTEX
8
0
10
38.203421875000004
20
9.538781250000001
30
0
42
0.35780639137000503
0
VERTEX
8
0
10
38.804
20
10.201415625000001
30
0
0
VERTEX
8
0
10
38.804
20
11.678584375
30
0
0
VERTEX
8
0
10
38.79721875
20
11.747421875
30
0
42
0.9063482509838228
0
VERTEX
8
0
10
37.396
20
11.678584375
30
0
0
VERTEX
8
0
10
37.396
20
10.201415625000001
30
0
0
VERTEX
8
0
10
37.402781250000004
20
10.132578125
30
0
42
0.3857424939469317
0
VERTEX
8
0
10
38.134584375
20
9.532
30
0
0
SEQEND
0
POLYLINE
66
1
8
1_copper
10
0.0
20
0.0
30
0.0
70
1
0
VERTEX
8
0
10
22.97194375
20
4.8333375
30
0
42
0.3578057741447831
0
VERTEX
8
0
10
23.622
20
5.550565625
30
0
0
VERTEX
8
0
10
23.622
20
7.149434375
30
0
0
VERTEX
8
0
10
23.6146625
20
7.22394375
30
0
42
0.9063472543261978
0
VERTEX
8
0
10
22.098000000000003
20
7.149434375
30
0
0
VERTEX
8
0
10
22.098000000000003
20
5.550565625
30
0
0
VERTEX
8
0
10
22.1053375
20
5.47605625
30
0
42
0.38574240611503685
0
VERTEX
8
0
10
22.897434375
20
4.8260000000000005
30
0
0
SEQEND
0
POLYLINE
66
1
8
1_copper
10
0.0
20
0.0
30
0.0
70
1
0
VERTEX
8
0
10
5.4625843750000005
20
1.6468500000000001
30
0
42
0.9163322674645454
0
VERTEX
8
0
10
5.38429375
20
3.44
30
0
0
VERTEX
8
0
10
3.5057062500000002
20
3.44
30
0
0
VERTEX
8
0
10
3.427415625
20
3.4331500000000004
30
0
42
0.9163322674645454
0
VERTEX
8
0
10
3.5057062500000002
20
1.6400000000000001
30
0
0
VERTEX
8
0
10
5.38429375
20
1.6400000000000001
30
0
0
SEQEND
0
POLYLINE
66
1
8
16_copper
10
0.0
20
0.0
30
0.0
70
1
0
VERTEX
8
0
10
36.85138125
20
2.0331875
30
0
0
VERTEX
8
0
10
36.872796875
20
2.03380625
30
0
42
0.13956369316960346
0
VERTEX
8
0
10
37.132975
20
2.1322375
30
0
0
VERTEX
8
0
10
37.137203125
20
2.1358875
30
0
0
VERTEX
8
0
10
37.14370625
20
2.140434375
30
0
0
VERTEX
8
0
10
37.186012500000004
20
2.1776218750000003
30
0
0
VERTEX
8
0
10
37.18775625
20
2.1795343750000002
30
0
0
VERTEX
8
0
10
37.189209375000004
20
2.180790625
30
0
0
VERTEX
8
0
10
38.459209375
20
3.4507906250000002
30
0
0
VERTEX
8
0
10
38.473478125
20
3.4667375000000002
30
0
0
VERTEX
8
0
10
38.488196875
20
3.48233125
30
0
42
0.1395618413384444
0
VERTEX
8
0
10
38.60256875
20
3.735903125
30
0
0
VERTEX
8
0
10
38.602978125
20
3.74149375
30
0
0
VERTEX
8
0
10
38.604359375
20
3.749290625
30
0
0
VERTEX
8
0
10
38.60798125
20
3.8054968750000002
30
0
0
VERTEX
8
0
10
38.607859375000004
20
3.8080937500000003
30
0
0
VERTEX
8
0
10
38.608000000000004
20
3.81
30
0
0
VERTEX
8
0
10
38.608000000000004
20
9.74839375
30
0
0
VERTEX
8
0
10
38.622259375
20
9.762653125
30
0
42
0.173516411106376
0
VERTEX
8
0
10
38.804
20
10.201415625000001
30
0
0
VERTEX
8
0
10
38.804
20
11.678584375
30
0
0
VERTEX
8
0
10
38.79721875
20
11.747421875
30
0
42
0.2767376993831506
0
VERTEX
8
0
10
38.33745625
20
12.307646875000001
30
0
0
VERTEX
8
0
10
38.303200000000004
20
12.3180375
30
0
0
VERTEX
8
0
10
38.303200000000004
20
18.2499
30
0
0
VERTEX
8
0
10
38.431409375
20
18.2499
30
0
0
VERTEX
8
0
10
38.9001
20
18.718590625
30
0
0
VERTEX
8
0
10
38.9001
20
19.381409375
30
0
0
VERTEX
8
0
10
38.431409375
20
19.8501
30
0
0
VERTEX
8
0
10
38.303200000000004
20
19.8501
30
0
0
VERTEX
8
0
10
38.303200000000004
20
21.59
30
0
0
VERTEX
8
0
10
38.3023125
20
21.600103125
30
0
0
VERTEX
8
0
10
38.3021875
20
21.610265625
30
0
42
0.13234210275356542
0
VERTEX
8
0
10
38.264643750000005
20
21.709090625
30
0
0
VERTEX
8
0
10
38.25921875
20
21.715456250000003
30
0
42
0.01802390080028543
0
VERTEX
8
0
10
38.24974375
20
21.726575
30
0
0
VERTEX
8
0
10
38.243684375
20
21.733684375
30
0
0
VERTEX
8
0
10
37.32056875
20
22.6568
30
0
0
VERTEX
8
0
10
40.64
20
22.6568
30
0
0
VERTEX
8
0
10
40.650103125
20
22.6576875
30
0
0
VERTEX
8
0
10
40.660265625
20
22.657812500000002
30
0
42
0.13234210275356542
0
VERTEX
8
0
10
40.759090625
20
22.69535625
30
0
0
VERTEX
8
0
10
40.76545625
20
22.700781250000002
30
0
42
0.01802390080028543
0
VERTEX
8
0
10
40.776575
20
22.71025625
30
0
0
VERTEX
8
0
10
40.783684375
20
22.716315625
30
0
0
VERTEX
8
0
10
42.053684375
20
23.986315625
30
0
0
VERTEX
8
0
10
42.060215625000005
20
23.99410625
30
0
0
VERTEX
8
0
10
42.067296875000004
20
24.001362500000003
30
0
42
0.13234447677005623
0
VERTEX
8
0
10
42.110631250000004
20
24.097790625000002
30
0
0
VERTEX
8
0
10
42.11129375
20
24.106115625
30
0
42
0.01805948283611007
0
VERTEX
8
0
10
42.112459375
20
24.12070625
30
0
0
VERTEX
8
0
10
42.1132
20
24.130000000000003
30
0
0
VERTEX
8
0
10
42.1132
20
46.228
30
0
0
VERTEX
8
0
10
42.709434375
20
46.228
30
0
0
VERTEX
8
0
10
42.78394375
20
46.2353375
30
0
42
0.9063472543261978
0
VERTEX
8
0
10
42.709434375
20
47.752
30
0
0
VERTEX
8
0
10
41.110565625
20
47.752
30
0
0
VERTEX
8
0
10
41.03605625
20
47.744662500000004
30
0
42
0.9063472543261978
0
VERTEX
8
0
10
41.110565625
20
46.228
30
0
0
VERTEX
8
0
10
41.7068
20
46.228
30
0
0
VERTEX
8
0
10
41.7068
20
24.214168750000002
30
0
0
VERTEX
8
0
10
40.555831250000004
20
23.063200000000002
30
0
0
VERTEX
8
0
10
31.953200000000002
20
23.063200000000002
30
0
0
VERTEX
8
0
10
31.953200000000002
20
62.14583125
30
0
0
VERTEX
8
0
10
33.10416875
20
63.296800000000005
30
0
0
VERTEX
8
0
10
40.41335
20
63.296800000000005
30
0
0
VERTEX
8
0
10
40.429678125
20
63.24298125
30
0
42
0.30334709750080463
0
VERTEX
8
0
10
41.110565625
20
62.738
30
0
0
VERTEX
8
0
10
42.709434375
20
62.738
30
0
0
VERTEX
8
0
10
42.78394375
20
62.745337500000005
30
0
42
0.9063472543261978
0
VERTEX
8
0
10
42.709434375
20
64.262
30
0
0
VERTEX
8
0
10
42.1132
20
64.262
30
0
0
VERTEX
8
0
10
42.1132
20
65.278
30
0
0
VERTEX
8
0
10
42.709434375
20
65.278
30
0
0
VERTEX
8
0
10
42.78394375
20
65.2853375
30
0
42
0.9063472543261978
0
VERTEX
8
0
10
42.709434375
20
66.802
30
0
0
VERTEX
8
0
10
41.110565625
20
66.802
30
0
0
VERTEX
8
0
10
41.03605625
20
66.7946625
30
0
42
0.9063472543261978
0
VERTEX
8
0
10
41.110565625
20
65.278
30
0
0
VERTEX
8
0
10
41.7068
20
65.278
30
0
0
VERTEX
8
0
10
41.7068
20
64.262
30
0
0
VERTEX
8
0
10
41.110565625
20
64.262
30
0
0
VERTEX
8
0
10
41.03605625
20
64.25466250000001
30
0
42
0.2767375280948381
0
VERTEX
8
0
10
40.429678125
20
63.75701875
30
0
0
VERTEX
8
0
10
40.41335
20
63.7032
30
0
0
VERTEX
8
0
10
33.02
20
63.7032
30
0
0
VERTEX
8
0
10
33.009896875
20
63.702312500000005
30
0
0
VERTEX
8
0
10
32.999734375
20
63.7021875
30
0
42
0.13234210275356542
0
VERTEX
8
0
10
32.900909375000005
20
63.66464375
30
0
0
VERTEX
8
0
10
32.894543750000004
20
63.65921875
30
0
42
0.01802390080028543
0
VERTEX
8
0
10
32.883425
20
63.649743750000006
30
0
0
VERTEX
8
0
10
32.876315625000004
20
63.64368437500001
30
0
0
VERTEX
8
0
10
31.953200000000002
20
62.720568750000005
30
0
0
VERTEX
8
0
10
31.953200000000002
20
76.11583125
30
0
0
VERTEX
8
0
10
33.10416875
20
77.2668
30
0
0
VERTEX
8
0
10
34.06335
20
77.2668
30
0
0
VERTEX
8
0
10
34.079678125
20
77.21298125
30
0
42
0.30334709750080463
0
VERTEX
8
0
10
34.760565625
20
76.708
30
0
0
VERTEX
8
0
10
36.359434375
20
76.708
30
0
0
VERTEX
8
0
10
36.433943750000005
20
76.7153375
30
0
42
0.9063472543261978
0
VERTEX
8
0
10
36.359434375
20
78.232
30
0
0
VERTEX
8
0
10
34.760565625
20
78.232
30
0
0
VERTEX
8
0
10
34.68605625
20
78.22466250000001
30
0
42
0.2767375280948381
0
VERTEX
8
0
10
34.079678125
20
77.72701875
30
0
0
VERTEX
8
0
10
34.06335
20
77.67320000000001
30
0
0
VERTEX
8
0
10
33.02
20
77.67320000000001
30
0
0
VERTEX
8
0
10
33.009896875
20
77.6723125
30
0
0
VERTEX
8
0
10
32.999734375
20
77.6721875
30
0
42
0.13234210275356542
0
VERTEX
8
0
10
32.900909375000005
20
77.63464375000001
30
0
0
VERTEX
8
0
10
32.894543750000004
20
77.62921875
30
0
42
0.01802390080028543
0
VERTEX
8
0
10
32.883425
20
77.61974375
30
0
0
VERTEX
8
0
10
32.876315625000004
20
77.613684375
30
0
0
VERTEX
8
0
10
31.953200000000002
20
76.69056875
30
0
0
VERTEX
8
0
10
31.953200000000002
20
77.38583125000001
30
0
0
VERTEX
8
0
10
33.10416875
20
78.5368
30
0
0
VERTEX
8
0
10
39.28583125
20
78.5368
30
0
0
VERTEX
8
0
10
40.496315625
20
77.326315625
30
0
0
VERTEX
8
0
10
40.50410625
20
77.319784375
30
0
0
VERTEX
8
0
10
40.511362500000004
20
77.312703125
30
0
42
0.13234447677005623
0
VERTEX
8
0
10
40.607790625
20
77.26936875
30
0
0
VERTEX
8
0
10
40.616115625
20
77.26870625000001
30
0
42
0.01805948283611007
0
VERTEX
8
0
10
40.63070625
20
77.26754062500001
30
0
0
VERTEX
8
0
10
40.64
20
77.2668
30
0
0
VERTEX
8
0
10
41.683350000000004
20
77.2668
30
0
0
VERTEX
8
0
10
41.699678125000005
20
77.21298125
30
0
42
0.30334709750080463
0
VERTEX
8
0
10
42.380565625
20
76.708
30
0
0
VERTEX
8
0
10
43.979434375000004
20
76.708
30
0
0
VERTEX
8
0
10
44.05394375
20
76.7153375
30
0
42
0.9063472543261978
0
VERTEX
8
0
10
43.979434375000004
20
78.232
30
0
0
VERTEX
8
0
10
42.380565625
20
78.232
30
0
0
VERTEX
8
0
10
42.306056250000005
20
78.22466250000001
30
0
42
0.2767375280948381
0
VERTEX
8
0
10
41.699678125000005
20
77.72701875
30
0
0
VERTEX
8
0
10
41.683350000000004
20
77.67320000000001
30
0
0
VERTEX
8
0
10
40.724168750000004
20
77.67320000000001
30
0
0
VERTEX
8
0
10
39.513684375000004
20
78.883684375
30
0
0
VERTEX
8
0
10
39.50589375
20
78.89021562500001
30
0
0
VERTEX
8
0
10
39.4986375
20
78.89729687500001
30
0
42
0.13234447677005623
0
VERTEX
8
0
10
39.402209375000005
20
78.94063125000001
30
0
0
VERTEX
8
0
10
39.393884375
20
78.94129375
30
0
42
0.01805948283611007
0
VERTEX
8
0
10
39.37929375
20
78.942459375
30
0
0
VERTEX
8
0
10
39.370000000000005
20
78.9432
30
0
0
VERTEX
8
0
10
33.2232
20
78.9432
30
0
0
VERTEX
8
0
10
33.2232
20
105.41000000000001
30
0
0
VERTEX
8
0
10
33.2223125
20
105.42010312500001
30
0
0
VERTEX
8
0
10
33.222187500000004
20
105.430265625
30
0
42
0.13234210275356542
0
VERTEX
8
0
10
33.18464375
20
105.52909062500001
30
0
0
VERTEX
8
0
10
33.179218750000004
20
105.53545625000001
30
0
42
0.01802390080028543
0
VERTEX
8
0
10
33.16974375
20
105.546575
30
0
0
VERTEX
8
0
10
33.163684375
20
105.553684375
30
0
0
VERTEX
8
0
10
31.953200000000002
20
106.76416875000001
30
0
0
VERTEX
8
0
10
31.953200000000002
20
109.13583125000001
30
0
0
VERTEX
8
0
10
32.89025625
20
110.07288750000001
30
0
0
VERTEX
8
0
10
32.91521875
20
110.03553125
30
0
42
0.22455782798648444
0
VERTEX
8
0
10
33.490565625
20
109.72800000000001
30
0
0
VERTEX
8
0
10
35.089434375
20
109.72800000000001
30
0
0
VERTEX
8
0
10
35.16394375
20
109.7353375
30
0
42
0.9063472543261978
0
VERTEX
8
0
10
35.089434375
20
111.25200000000001
30
0
0
VERTEX
8
0
10
33.490565625
20
111.25200000000001
30
0
0
VERTEX
8
0
10
33.416056250000004
20
111.2446625
30
0
42
0.3578057741447831
0
VERTEX
8
0
10
32.766
20
110.527434375
30
0
0
VERTEX
8
0
10
32.766
20
110.52336875
30
0
0
VERTEX
8
0
10
31.953200000000002
20
109.71056875000001
30
0
0
VERTEX
8
0
10
31.953200000000002
20
130.72583125
30
0
0
VERTEX
8
0
10
33.10416875
20
131.8768
30
0
0
VERTEX
8
0
10
41.910000000000004
20
131.8768
30
0
0
VERTEX
8
0
10
41.920103125000004
20
131.8776875
30
0
0
VERTEX
8
0
10
41.930265625000004
20
131.8778125
30
0
42
0.13234210275356542
0
VERTEX
8
0
10
42.029090625
20
131.91535625
30
0
0
VERTEX
8
0
10
42.03545625
20
131.92078125
30
0
42
0.01802390080028543
0
VERTEX
8
0
10
42.046575000000004
20
131.93025625
30
0
0
VERTEX
8
0
10
42.053684375
20
131.93631562500002
30
0
0
VERTEX
8
0
10
42.976800000000004
20
132.85943125
30
0
0
VERTEX
8
0
10
42.976800000000004
20
128.93040000000002
30
0
0
VERTEX
8
0
10
42.906456250000005
20
128.93040000000002
30
0
0
VERTEX
8
0
10
42.519600000000004
20
128.54354375
30
0
0
VERTEX
8
0
10
42.519600000000004
20
127.99645625000001
30
0
0
VERTEX
8
0
10
42.906456250000005
20
127.6096
30
0
0
VERTEX
8
0
10
42.976800000000004
20
127.6096
30
0
0
VERTEX
8
0
10
42.976800000000004
20
122.58040000000001
30
0
0
VERTEX
8
0
10
42.906456250000005
20
122.58040000000001
30
0
0
VERTEX
8
0
10
42.519600000000004
20
122.19354375
30
0
0
VERTEX
8
0
10
42.519600000000004
20
121.64645625
30
0
0
VERTEX
8
0
10
42.906456250000005
20
121.2596
30
0
0
VERTEX
8
0
10
42.976800000000004
20
121.2596
30
0
0
VERTEX
8
0
10
42.976800000000004
20
106.17200000000001
30
0
0
VERTEX
8
0
10
42.380565625
20
106.17200000000001
30
0
0
VERTEX
8
0
10
42.306056250000005
20
106.1646625
30
0
42
0.9063472543261978
0
VERTEX
8
0
10
42.380565625
20
104.64800000000001
30
0
0
VERTEX
8
0
10
43.979434375000004
20
104.64800000000001
30
0
0
VERTEX
8
0
10
44.05394375
20
104.6553375
30
0
42
0.9063472543261978
0
VERTEX
8
0
10
43.979434375000004
20
106.17200000000001
30
0
0
VERTEX
8
0
10
43.3832
20
106.17200000000001
30
0
0
VERTEX
8
0
10
43.3832
20
121.2596
30
0
0
VERTEX
8
0
10
43.45354375
20
121.2596
30
0
0
VERTEX
8
0
10
43.8404
20
121.64645625
30
0
0
VERTEX
8
0
10
43.8404
20
122.19354375
30
0
0
VERTEX
8
0
10
43.45354375
20
122.58040000000001
30
0
0
VERTEX
8
0
10
43.3832
20
122.58040000000001
30
0
0
VERTEX
8
0
10
43.3832
20
127.6096
30
0
0
VERTEX
8
0
10
43.45354375
20
127.6096
30
0
0
VERTEX
8
0
10
43.8404
20
127.99645625000001
30
0
0
VERTEX
8
0
10
43.8404
20
128.54354375
30
0
0
VERTEX
8
0
10
43.45354375
20
128.93040000000002
30
0
0
VERTEX
8
0
10
43.3832
20
128.93040000000002
30
0
0
VERTEX
8
0
10
43.3832
20
133.9596
30
0
0
VERTEX
8
0
10
43.45354375
20
133.9596
30
0
0
VERTEX
8
0
10
43.8404
20
134.34645625000002
30
0
0
VERTEX
8
0
10
43.8404
20
134.89354375000002
30
0
0
VERTEX
8
0
10
43.45354375
20
135.28040000000001
30
0
0
VERTEX
8
0
10
43.3832
20
135.28040000000001
30
0
0
VERTEX
8
0
10
43.3832
20
140.30960000000002
30
0
0
VERTEX
8
0
10
43.45354375
20
140.30960000000002
30
0
0
VERTEX
8
0
10
43.8404
20
140.69645625
30
0
0
VERTEX
8
0
10
43.8404
20
141.24354375000001
30
0
0
VERTEX
8
0
10
43.45354375
20
141.6304
30
0
0
VERTEX
8
0
10
42.906456250000005
20
141.6304
30
0
0
VERTEX
8
0
10
42.519600000000004
20
141.24354375000001
30
0
0
VERTEX
8
0
10
42.519600000000004
20
140.69645625
30
0
0
VERTEX
8
0
10
42.906456250000005
20
140.30960000000002
30
0
0
VERTEX
8
0
10
42.976800000000004
20
140.30960000000002
30
0
0
VERTEX
8
0
10
42.976800000000004
20
135.28040000000001
30
0
0
VERTEX
8
0
10
42.906456250000005
20
135.28040000000001
30
0
0
VERTEX
8
0
10
42.519600000000004
20
134.89354375000002
30
0
0
VERTEX
8
0
10
42.519600000000004
20
134.34645625000002
30
0
0
VERTEX
8
0
10
42.906456250000005
20
133.9596
30
0
0
VERTEX
8
0
10
42.976800000000004
20
133.9596
30
0
0
VERTEX
8
0
10
42.976800000000004
20
133.43416875
30
0
0
VERTEX
8
0
10
41.82583125
20
132.2832
30
0
0
VERTEX
8
0
10
33.02
20
132.2832
30
0
0
VERTEX
8
0
10
33.009896875
20
132.28231250000002
30
0
0
VERTEX
8
0
10
32.999734375
20
132.28218750000002
30
0
42
0.13234210275356542
0
VERTEX
8
0
10
32.900909375000005
20
132.24464375
30
0
0
VERTEX
8
0
10
32.894543750000004
20
132.23921875000002
30
0
42
0.01802390080028543
0
VERTEX
8
0
10
32.883425
20
132.22974375
30
0
0
VERTEX
8
0
10
32.876315625000004
20
132.223684375
30
0
0
VERTEX
8
0
10
31.75
20
131.09736875000002
30
0
0
VERTEX
8
0
10
30.623684375
20
132.223684375
30
0
0
VERTEX
8
0
10
30.61589375
20
132.230215625
30
0
0
VERTEX
8
0
10
30.6086375
20
132.237296875
30
0
42
0.13234447677005623
0
VERTEX
8
0
10
30.512209375
20
132.28063125
30
0
0
VERTEX
8
0
10
30.503884375000002
20
132.28129375
30
0
42
0.01805948283611007
0
VERTEX
8
0
10
30.48929375
20
132.282459375
30
0
0
VERTEX
8
0
10
30.48
20
132.2832
30
0
0
VERTEX
8
0
10
15.32416875
20
132.2832
30
0
0
VERTEX
8
0
10
14.173200000000001
20
133.43416875
30
0
0
VERTEX
8
0
10
14.173200000000001
20
138.43
30
0
0
VERTEX
8
0
10
14.1723125
20
138.440103125
30
0
0
VERTEX
8
0
10
14.172187500000001
20
138.45026562500001
30
0
42
0.13234210275356542
0
VERTEX
8
0
10
14.13464375
20
138.54909062500002
30
0
0
VERTEX
8
0
10
14.129218750000001
20
138.55545625000002
30
0
42
0.01802390080028543
0
VERTEX
8
0
10
14.119743750000001
20
138.566575
30
0
0
VERTEX
8
0
10
14.113684375
20
138.573684375
30
0
0
VERTEX
8
0
10
12.843684375
20
139.843684375
30
0
0
VERTEX
8
0
10
12.83589375
20
139.850215625
30
0
0
VERTEX
8
0
10
12.828637500000001
20
139.857296875
30
0
42
0.13234447677005623
0
VERTEX
8
0
10
12.732209375
20
139.90063125
30
0
0
VERTEX
8
0
10
12.723884375
20
139.90129375
30
0
42
0.01805948283611007
0
VERTEX
8
0
10
12.70929375
20
139.902459375
30
0
0
VERTEX
8
0
10
12.700000000000001
20
139.9032
30
0
0
VERTEX
8
0
10
7.70416875
20
139.9032
30
0
0
VERTEX
8
0
10
6.7671125000000005
20
140.84025625
30
0
0
VERTEX
8
0
10
6.804468750000001
20
140.86521875
30
0
42
0.22455782798648444
0
VERTEX
8
0
10
7.112
20
141.440565625
30
0
0
VERTEX
8
0
10
7.112
20
143.039434375
30
0
0
VERTEX
8
0
10
7.104662500000001
20
143.11394375
30
0
42
0.9063472543261978
0
VERTEX
8
0
10
5.588
20
143.039434375
30
0
0
VERTEX
8
0
10
5.588
20
141.440565625
30
0
0
VERTEX
8
0
10
5.5953375
20
141.36605625
30
0
42
0.3578057741447831
0
VERTEX
8
0
10
6.312565625
20
140.716
30
0
0
VERTEX
8
0
10
6.31663125
20
140.716
30
0
0
VERTEX
8
0
10
7.476315625000001
20
139.556315625
30
0
0
VERTEX
8
0
10
7.48410625
20
139.549784375
30
0
0
VERTEX
8
0
10
7.4913625
20
139.542703125
30
0
42
0.13234447677005623
0
VERTEX
8
0
10
7.587790625
20
139.49936875
30
0
0
VERTEX
8
0
10
7.596115625
20
139.49870625
30
0
42
0.01805948283611007
0
VERTEX
8
0
10
7.610706250000001
20
139.497540625
30
0
0
VERTEX
8
0
10
7.62
20
139.4968
30
0
0
VERTEX
8
0
10
12.615831250000001
20
139.4968
30
0
0
VERTEX
8
0
10
13.7668
20
138.34583125
30
0
0
VERTEX
8
0
10
13.7668
20
127.08416875
30
0
0
VERTEX
8
0
10
12.82974375
20
126.1471125
30
0
0
VERTEX
8
0
10
12.804781250000001
20
126.18446875000001
30
0
42
0.22455782798648444
0
VERTEX
8
0
10
12.229434375
20
126.492
30
0
0
VERTEX
8
0
10
10.630565625000001
20
126.492
30
0
0
VERTEX
8
0
10
10.556056250000001
20
126.48466250000001
30
0
42
0.9063472543261978
0
VERTEX
8
0
10
10.630565625000001
20
124.968
30
0
0
VERTEX
8
0
10
12.229434375
20
124.968
30
0
0
VERTEX
8
0
10
12.30394375
20
124.97533750000001
30
0
42
0.3578057741447831
0
VERTEX
8
0
10
12.954
20
125.692565625
30
0
0
VERTEX
8
0
10
12.954
20
125.69663125000001
30
0
0
VERTEX
8
0
10
13.7668
20
126.50943125
30
0
0
VERTEX
8
0
10
13.7668
20
116.92416875
30
0
0
VERTEX
8
0
10
12.82974375
20
115.98711250000001
30
0
0
VERTEX
8
0
10
12.804781250000001
20
116.02446875000001
30
0
42
0.22455782798648444
0
VERTEX
8
0
10
12.229434375
20
116.33200000000001
30
0
0
VERTEX
8
0
10
10.630565625000001
20
116.33200000000001
30
0
0
VERTEX
8
0
10
10.556056250000001
20
116.3246625
30
0
42
0.9063472543261978
0
VERTEX
8
0
10
10.630565625000001
20
114.808
30
0
0
VERTEX
8
0
10
12.229434375
20
114.808
30
0
0
VERTEX
8
0
10
12.30394375
20
114.81533750000001
30
0
42
0.3578057741447831
0
VERTEX
8
0
10
12.954
20
115.532565625
30
0
0
VERTEX
8
0
10
12.954
20
115.53663125
30
0
0
VERTEX
8
0
10
14.113684375
20
116.69631562500001
30
0
0
VERTEX
8
0
10
14.120215625
20
116.70410625000001
30
0
0
VERTEX
8
0
10
14.127296875
20
116.7113625
30
0
42
0.13234447677005623
0
VERTEX
8
0
10
14.170631250000001
20
116.80779062500001
30
0
0
VERTEX
8
0
10
14.17129375
20
116.81611562500001
30
0
42
0.01805948283611007
0
VERTEX
8
0
10
14.172459375
20
116.83070625
30
0
0
VERTEX
8
0
10
14.173200000000001
20
116.84
30
0
0
VERTEX
8
0
10
14.173200000000001
20
132.85943125
30
0
0
VERTEX
8
0
10
15.096315625
20
131.93631562500002
30
0
0
VERTEX
8
0
10
15.104106250000001
20
131.929784375
30
0
0
VERTEX
8
0
10
15.1113625
20
131.922703125
30
0
42
0.13234447677005623
0
VERTEX
8
0
10
15.207790625000001
20
131.87936875
30
0
0
VERTEX
8
0
10
15.216115625
20
131.87870625
30
0
42
0.01805948283611007
0
VERTEX
8
0
10
15.23070625
20
131.877540625
30
0
0
VERTEX
8
0
10
15.24
20
131.8768
30
0
0
VERTEX
8
0
10
30.39583125
20
131.8768
30
0
0
VERTEX
8
0
10
31.5468
20
130.72583125
30
0
0
VERTEX
8
0
10
31.5468
20
106.68
30
0
0
VERTEX
8
0
10
31.547687500000002
20
106.669896875
30
0
0
VERTEX
8
0
10
31.547812500000003
20
106.659734375
30
0
42
0.13234210275356542
0
VERTEX
8
0
10
31.58535625
20
106.56090937500001
30
0
0
VERTEX
8
0
10
31.590781250000003
20
106.55454375000001
30
0
42
0.01802390080028543
0
VERTEX
8
0
10
31.60025625
20
106.543425
30
0
0
VERTEX
8
0
10
31.606315625
20
106.536315625
30
0
0
VERTEX
8
0
10
32.8168
20
105.32583125000001
30
0
0
VERTEX
8
0
10
32.8168
20
78.82416875
30
0
0
VERTEX
8
0
10
31.75
20
77.75736875
30
0
0
VERTEX
8
0
10
30.623684375
20
78.883684375
30
0
0
VERTEX
8
0
10
30.61589375
20
78.89021562500001
30
0
0
VERTEX
8
0
10
30.6086375
20
78.89729687500001
30
0
42
0.13234447677005623
0
VERTEX
8
0
10
30.512209375
20
78.94063125000001
30
0
0
VERTEX
8
0
10
30.503884375000002
20
78.94129375
30
0
42
0.01805948283611007
0
VERTEX
8
0
10
30.48929375
20
78.942459375
30
0
0
VERTEX
8
0
10
30.48
20
78.9432
30
0
0
VERTEX
8
0
10
15.32416875
20
78.9432
30
0
0
VERTEX
8
0
10
14.173200000000001
20
80.09416875000001
30
0
0
VERTEX
8
0
10
14.173200000000001
20
92.71000000000001
30
0
0
VERTEX
8
0
10
14.1723125
20
92.72010312500001
30
0
0
VERTEX
8
0
10
14.172187500000001
20
92.730265625
30
0
42
0.13234210275356542
0
VERTEX
8
0
10
14.13464375
20
92.829090625
30
0
0
VERTEX
8
0
10
14.129218750000001
20
92.83545625000001
30
0
42
0.01802390080028543
0
VERTEX
8
0
10
14.119743750000001
20
92.846575
30
0
0
VERTEX
8
0
10
14.113684375
20
92.853684375
30
0
0
VERTEX
8
0
10
12.843684375
20
94.12368437500001
30
0
0
VERTEX
8
0
10
12.83589375
20
94.130215625
30
0
0
VERTEX
8
0
10
12.828637500000001
20
94.137296875
30
0
42
0.13234447677005623
0
VERTEX
8
0
10
12.732209375
20
94.18063125
30
0
0
VERTEX
8
0
10
12.723884375
20
94.18129375000001
30
0
42
0.01805948283611007
0
VERTEX
8
0
10
12.70929375
20
94.18245937500001
30
0
0
VERTEX
8
0
10
12.700000000000001
20
94.1832
30
0
0
VERTEX
8
0
10
4.03665
20
94.1832
30
0
0
VERTEX
8
0
10
4.0203218750000005
20
94.23701875
30
0
42
0.30334709750080463
0
VERTEX
8
0
10
3.339434375
20
94.742
30
0
0
VERTEX
8
0
10
1.7405656250000001
20
94.742
30
0
0
VERTEX
8
0
10
1.66605625
20
94.7346625
30
0
42
0.9063472543261978
0
VERTEX
8
0
10
1.7405656250000001
20
93.218
30
0
0
VERTEX
8
0
10
3.339434375
20
93.218
30
0
0
VERTEX
8
0
10
3.41394375
20
93.22533750000001
30
0
42
0.2767375280948381
0
VERTEX
8
0
10
4.0203218750000005
20
93.72298125
30
0
0
VERTEX
8
0
10
4.03665
20
93.77680000000001
30
0
0
VERTEX
8
0
10
12.615831250000001
20
93.77680000000001
30
0
0
VERTEX
8
0
10
13.7668
20
92.62583125
30
0
0
VERTEX
8
0
10
13.7668
20
88.12056875
30
0
0
VERTEX
8
0
10
12.843684375
20
89.043684375
30
0
0
VERTEX
8
0
10
12.83589375
20
89.050215625
30
0
0
VERTEX
8
0
10
12.828637500000001
20
89.057296875
30
0
42
0.13234447677005623
0
VERTEX
8
0
10
12.732209375
20
89.10063125
30
0
0
VERTEX
8
0
10
12.723884375
20
89.10129375000001
30
0
42
0.01805948283611007
0
VERTEX
8
0
10
12.70929375
20
89.10245937500001
30
0
0
VERTEX
8
0
10
12.700000000000001
20
89.1032
30
0
0
VERTEX
8
0
10
10.386650000000001
20
89.1032
30
0
0
VERTEX
8
0
10
10.370321875
20
89.15701875
30
0
42
0.30334709750080463
0
VERTEX
8
0
10
9.689434375000001
20
89.662
30
0
0
VERTEX
8
0
10
8.090565625
20
89.662
30
0
0
VERTEX
8
0
10
8.01605625
20
89.6546625
30
0
42
0.9063472543261978
0
VERTEX
8
0
10
8.090565625
20
88.138
30
0
0
VERTEX
8
0
10
9.689434375000001
20
88.138
30
0
0
VERTEX
8
0
10
9.763943750000001
20
88.14533750000001
30
0
42
0.2767375280948381
0
VERTEX
8
0
10
10.370321875
20
88.64298125
30
0
0
VERTEX
8
0
10
10.386650000000001
20
88.69680000000001
30
0
0
VERTEX
8
0
10
12.615831250000001
20
88.69680000000001
30
0
0
VERTEX
8
0
10
13.7668
20
87.54583125
30
0
0
VERTEX
8
0
10
13.7668
20
80.01
30
0
0
VERTEX
8
0
10
13.767687500000001
20
79.999896875
30
0
0
VERTEX
8
0
10
13.7678125
20
79.989734375
30
0
42
0.13234210275356542
0
VERTEX
8
0
10
13.80535625
20
79.890909375
30
0
0
VERTEX
8
0
10
13.81078125
20
79.88454375
30
0
42
0.01802390080028543
0
VERTEX
8
0
10
13.82025625
20
79.873425
30
0
0
VERTEX
8
0
10
13.826315625000001
20
79.866315625
30
0
0
VERTEX
8
0
10
15.096315625
20
78.596315625
30
0
0
VERTEX
8
0
10
15.104106250000001
20
78.58978437500001
30
0
0
VERTEX
8
0
10
15.1113625
20
78.58270312500001
30
0
42
0.13234447677005623
0
VERTEX
8
0
10
15.207790625000001
20
78.53936875000001
30
0
0
VERTEX
8
0
10
15.216115625
20
78.53870625
30
0
42
0.01805948283611007
0
VERTEX
8
0
10
15.23070625
20
78.537540625
30
0
0
VERTEX
8
0
10
15.24
20
78.5368
30
0
0
VERTEX
8
0
10
30.39583125
20
78.5368
30
0
0
VERTEX
8
0
10
31.5468
20
77.38583125000001
30
0
0
VERTEX
8
0
10
31.5468
20
23.063200000000002
30
0
0
VERTEX
8
0
10
11.514168750000001
20
23.063200000000002
30
0
0
VERTEX
8
0
10
10.3632
20
24.214168750000002
30
0
0
VERTEX
8
0
10
10.3632
20
25.908
30
0
0
VERTEX
8
0
10
10.959434375
20
25.908
30
0
0
VERTEX
8
0
10
11.03394375
20
25.9153375
30
0
42
0.9063472543261978
0
VERTEX
8
0
10
10.959434375
20
27.432000000000002
30
0
0
VERTEX
8
0
10
9.360565625000001
20
27.432000000000002
30
0
0
VERTEX
8
0
10
9.28605625
20
27.4246625
30
0
42
0.2767375280948381
0
VERTEX
8
0
10
8.679678125
20
26.927018750000002
30
0
0
VERTEX
8
0
10
8.663350000000001
20
26.8732
30
0
0
VERTEX
8
0
10
5.16416875
20
26.8732
30
0
0
VERTEX
8
0
10
4.0132
20
28.02416875
30
0
0
VERTEX
8
0
10
4.0132
20
46.228
30
0
0
VERTEX
8
0
10
4.609434375
20
46.228
30
0
0
VERTEX
8
0
10
4.68394375
20
46.2353375
30
0
42
0.9063472543261978
0
VERTEX
8
0
10
4.609434375
20
47.752
30
0
0
VERTEX
8
0
10
3.0105656250000004
20
47.752
30
0
0
VERTEX
8
0
10
2.93605625
20
47.744662500000004
30
0
42
0.19891253782644208
0
VERTEX
8
0
10
2.43521875
20
47.444468750000006
30
0
0
VERTEX
8
0
10
2.41025625
20
47.407112500000004
30
0
0
VERTEX
8
0
10
1.6256000000000002
20
48.19176875
30
0
0
VERTEX
8
0
10
1.6256000000000002
20
62.29823125
30
0
0
VERTEX
8
0
10
2.41025625
20
63.082887500000005
30
0
0
VERTEX
8
0
10
2.43521875
20
63.04553125
30
0
42
0.22455782798648444
0
VERTEX
8
0
10
3.0105656250000004
20
62.738
30
0
0
VERTEX
8
0
10
4.609434375
20
62.738
30
0
0
VERTEX
8
0
10
4.68394375
20
62.745337500000005
30
0
42
0.9063472543261978
0
VERTEX
8
0
10
4.609434375
20
64.262
30
0
0
VERTEX
8
0
10
4.0132
20
64.262
30
0
0
VERTEX
8
0
10
4.0132
20
65.278
30
0
0
VERTEX
8
0
10
4.609434375
20
65.278
30
0
0
VERTEX
8
0
10
4.68394375
20
65.2853375
30
0
42
0.9063472543261978
0
VERTEX
8
0
10
4.609434375
20
66.802
30
0
0
VERTEX
8
0
10
3.0105656250000004
20
66.802
30
0
0
VERTEX
8
0
10
2.93605625
20
66.7946625
30
0
42
0.9063472543261978
0
VERTEX
8
0
10
3.0105656250000004
20
65.278
30
0
0
VERTEX
8
0
10
3.6068000000000002
20
65.278
30
0
0
VERTEX
8
0
10
3.6068000000000002
20
64.262
30
0
0
VERTEX
8
0
10
3.0105656250000004
20
64.262
30
0
0
VERTEX
8
0
10
2.93605625
20
64.25466250000001
30
0
42
0.3578057741447831
0
VERTEX
8
0
10
2.286
20
63.537434375000004
30
0
0
VERTEX
8
0
10
2.286
20
63.53336875
30
0
0
VERTEX
8
0
10
1.278715625
20
62.526084375
30
0
0
VERTEX
8
0
10
1.2721843750000001
20
62.518293750000005
30
0
0
VERTEX
8
0
10
1.265103125
20
62.5110375
30
0
42
0.13234447677005623
0
VERTEX
8
0
10
1.22176875
20
62.414609375000005
30
0
0
VERTEX
8
0
10
1.22110625
20
62.406284375000006
30
0
42
0.01805948283611007
0
VERTEX
8
0
10
1.219940625
20
62.39169375
30
0
0
VERTEX
8
0
10
1.2192
20
62.382400000000004
30
0
0
VERTEX
8
0
10
1.2192
20
48.107600000000005
30
0
0
VERTEX
8
0
10
1.2200875
20
48.097496875000004
30
0
0
VERTEX
8
0
10
1.2202125000000001
20
48.087334375000005
30
0
42
0.13234210275356542
0
VERTEX
8
0
10
1.2577562500000001
20
47.988509375
30
0
0
VERTEX
8
0
10
1.2631812500000001
20
47.98214375
30
0
42
0.01802390080028543
0
VERTEX
8
0
10
1.27265625
20
47.971025000000004
30
0
0
VERTEX
8
0
10
1.278715625
20
47.963915625000006
30
0
0
VERTEX
8
0
10
2.286
20
46.95663125
30
0
0
VERTEX
8
0
10
2.286
20
46.952565625000005
30
0
42
0.3857427802303482
0
VERTEX
8
0
10
3.0105656250000004
20
46.228
30
0
0
VERTEX
8
0
10
3.6068000000000002
20
46.228
30
0
0
VERTEX
8
0
10
3.6068000000000002
20
27.94
30
0
0
VERTEX
8
0
10
3.6076875000000004
20
27.929896875
30
0
0
VERTEX
8
0
10
3.6078125
20
27.919734375
30
0
42
0.13234210275356542
0
VERTEX
8
0
10
3.6453562500000003
20
27.820909375000003
30
0
0
VERTEX
8
0
10
3.65078125
20
27.814543750000002
30
0
42
0.01802390080028543
0
VERTEX
8
0
10
3.66025625
20
27.803425
30
0
0
VERTEX
8
0
10
3.666315625
20
27.796315625000002
30
0
0
VERTEX
8
0
10
4.936315625000001
20
26.526315625000002
30
0
0
VERTEX
8
0
10
4.94410625
20
26.519784375
30
0
0
VERTEX
8
0
10
4.9513625
20
26.512703125
30
0
42
0.13234447677005623
0
VERTEX
8
0
10
5.047790625
20
26.46936875
30
0
0
VERTEX
8
0
10
5.056115625
20
26.46870625
30
0
42
0.01805948283611007
0
VERTEX
8
0
10
5.070706250000001
20
26.467540625
30
0
0
VERTEX
8
0
10
5.08
20
26.466800000000003
30
0
0
VERTEX
8
0
10
8.663350000000001
20
26.466800000000003
30
0
0
VERTEX
8
0
10
8.679678125
20
26.41298125
30
0
42
0.30334709750080463
0
VERTEX
8
0
10
9.360565625000001
20
25.908
30
0
0
VERTEX
8
0
10
9.956800000000001
20
25.908
30
0
0
VERTEX
8
0
10
9.956800000000001
20
24.130000000000003
30
0
0
VERTEX
8
0
10
9.9576875
20
24.119896875000002
30
0
0
VERTEX
8
0
10
9.957812500000001
20
24.109734375000002
30
0
42
0.13234210275356542
0
VERTEX
8
0
10
9.99535625
20
24.010909375
30
0
0
VERTEX
8
0
10
10.000781250000001
20
24.00454375
30
0
42
0.01802390080028543
0
VERTEX
8
0
10
10.010256250000001
20
23.993425000000002
30
0
0
VERTEX
8
0
10
10.016315625
20
23.986315625
30
0
0
VERTEX
8
0
10
11.286315625
20
22.716315625
30
0
0
VERTEX
8
0
10
11.29410625
20
22.709784375
30
0
0
VERTEX
8
0
10
11.3013625
20
22.702703125
30
0
42
0.13234447677005623
0
VERTEX
8
0
10
11.397790625
20
22.659368750000002
30
0
0
VERTEX
8
0
10
11.406115625
20
22.65870625
30
0
42
0.01805948283611007
0
VERTEX
8
0
10
11.42070625
20
22.657540625
30
0
0
VERTEX
8
0
10
11.43
20
22.6568
30
0
0
VERTEX
8
0
10
36.74583125
20
22.6568
30
0
0
VERTEX
8
0
10
37.8968
20
21.50583125
30
0
0
VERTEX
8
0
10
37.8968
20
19.8501
30
0
0
VERTEX
8
0
10
37.768590625
20
19.8501
30
0
0
VERTEX
8
0
10
37.2999
20
19.381409375
30
0
0
VERTEX
8
0
10
37.2999
20
18.718590625
30
0
0
VERTEX
8
0
10
37.768590625
20
18.2499
30
0
0
VERTEX
8
0
10
37.8968
20
18.2499
30
0
0
VERTEX
8
0
10
37.8968
20
12.3180375
30
0
0
VERTEX
8
0
10
37.86254375
20
12.307646875000001
30
0
42
0.3033471877540829
0
VERTEX
8
0
10
37.396
20
11.678584375
30
0
0
VERTEX
8
0
10
37.396
20
10.201415625000001
30
0
0
VERTEX
8
0
10
37.402781250000004
20
10.132578125
30
0
42
0.1483358745509181
0
VERTEX
8
0
10
37.577740625000004
20
9.762653125
30
0
0
VERTEX
8
0
10
37.592
20
9.74839375
30
0
0
VERTEX
8
0
10
37.592
20
4.02041875
30
0
0
VERTEX
8
0
10
36.61958125
20
3.048
30
0
0
VERTEX
8
0
10
22.38536875
20
3.048
30
0
0
VERTEX
8
0
10
23.003684375000002
20
3.666315625
30
0
0
VERTEX
8
0
10
23.010215625
20
3.6741062500000004
30
0
0
VERTEX
8
0
10
23.017296875
20
3.6813625
30
0
42
0.13234447677005623
0
VERTEX
8
0
10
23.06063125
20
3.777790625
30
0
0
VERTEX
8
0
10
23.06129375
20
3.7861156250000003
30
0
42
0.01805948283611007
0
VERTEX
8
0
10
23.062459375
20
3.80070625
30
0
0
VERTEX
8
0
10
23.063200000000002
20
3.81
30
0
0
VERTEX
8
0
10
23.063200000000002
20
4.85335
30
0
0
VERTEX
8
0
10
23.11701875
20
4.869678125
30
0
42
0.30334709750080463
0
VERTEX
8
0
10
23.622
20
5.550565625
30
0
0
VERTEX
8
0
10
23.622
20
7.149434375
30
0
0
VERTEX
8
0
10
23.6146625
20
7.22394375
30
0
42
0.9063472543261978
0
VERTEX
8
0
10
22.098000000000003
20
7.149434375
30
0
0
VERTEX
8
0
10
22.098000000000003
20
5.550565625
30
0
0
VERTEX
8
0
10
22.1053375
20
5.47605625
30
0
42
0.2767375280948381
0
VERTEX
8
0
10
22.602981250000003
20
4.869678125
30
0
0
VERTEX
8
0
10
22.6568
20
4.85335
30
0
0
VERTEX
8
0
10
22.6568
20
3.8941687500000004
30
0
0
VERTEX
8
0
10
21.81063125
20
3.048
30
0
0
VERTEX
8
0
10
6.087990625000001
20
3.048
30
0
0
VERTEX
8
0
10
6.059696875
20
3.0884062500000002
30
0
42
0.22169497074983996
0
VERTEX
8
0
10
5.38429375
20
3.44
30
0
0
VERTEX
8
0
10
3.5057062500000002
20
3.44
30
0
0
VERTEX
8
0
10
3.427415625
20
3.4331500000000004
30
0
42
0.9163322674645454
0
VERTEX
8
0
10
3.5057062500000002
20
1.6400000000000001
30
0
0
VERTEX
8
0
10
5.38429375
20
1.6400000000000001
30
0
0
VERTEX
8
0
10
5.4625843750000005
20
1.6468500000000001
30
0
42
0.19891265727797133
0
VERTEX
8
0
10
6.059696875
20
1.99159375
30
0
0
VERTEX
8
0
10
6.087990625000001
20
2.032
30
0
0
VERTEX
8
0
10
36.83
20
2.032
30
0
0
SEQEND
0
POLYLINE
66
1
8
1_copper
10
0.0
20
0.0
30
0.0
70
1
0
VERTEX
8
0
10
36.503421875
20
5.63878125
30
0
42
0.35780639137000503
0
VERTEX
8
0
10
37.104
20
6.301415625000001
30
0
0
VERTEX
8
0
10
37.104
20
7.778584375
30
0
0
VERTEX
8
0
10
37.09721875
20
7.847421875
30
0
42
0.9063482509838228
0
VERTEX
8
0
10
35.696000000000005
20
7.778584375
30
0
0
VERTEX
8
0
10
35.696000000000005
20
6.301415625000001
30
0
0
VERTEX
8
0
10
35.70278125
20
6.232578125
30
0
42
0.3857424939469317
0
VERTEX
8
0
10
36.434584375
20
5.632000000000001
30
0
0
SEQEND
0
POLYLINE
66
1
8
1_copper
10
0.0
20
0.0
30
0.0
70
1
0
VERTEX
8
0
10
25.51194375
20
4.8333375
30
0
42
0.3578057741447831
0
VERTEX
8
0
10
26.162000000000003
20
5.550565625
30
0
0
VERTEX
8
0
10
26.162000000000003
20
7.149434375
30
0
0
VERTEX
8
0
10
26.1546625
20
7.22394375
30
0
42
0.9063472543261978
0
VERTEX
8
0
10
24.638
20
7.149434375
30
0
0
VERTEX
8
0
10
24.638
20
5.550565625
30
0
0
VERTEX
8
0
10
24.6453375
20
5.47605625
30
0
42
0.38574240611503685
0
VERTEX
8
0
10
25.437434375000002
20
4.8260000000000005
30
0
0
SEQEND
0
POLYLINE
66
1
8
16_copper
10
0.0
20
0.0
30
0.0
70
1
0
VERTEX
8
0
10
25.51194375
20
4.8333375
30
0
42
0.3578057741447831
0
VERTEX
8
0
10
26.162000000000003
20
5.550565625
30
0
0
VERTEX
8
0
10
26.162000000000003
20
6.146800000000001
30
0
0
VERTEX
8
0
10
33.02
20
6.146800000000001
30
0
0
VERTEX
8
0
10
33.030103125000004
20
6.1476875
30
0
0
VERTEX
8
0
10
33.040265625
20
6.147812500000001
30
0
42
0.13234210275356542
0
VERTEX
8
0
10
33.139090625
20
6.18535625
30
0
0
VERTEX
8
0
10
33.14545625
20
6.190781250000001
30
0
42
0.01802390080028543
0
VERTEX
8
0
10
33.156575000000004
20
6.200256250000001
30
0
0
VERTEX
8
0
10
33.163684375
20
6.206315625
30
0
0
VERTEX
8
0
10
33.794168750000004
20
6.8368
30
0
0
VERTEX
8
0
10
35.696000000000005
20
6.8368
30
0
0
VERTEX
8
0
10
35.696000000000005
20
6.301415625000001
30
0
0
VERTEX
8
0
10
35.70278125
20
6.232578125
30
0
42
0.9063482509838228
0
VERTEX
8
0
10
37.104
20
6.301415625000001
30
0
0
VERTEX
8
0
10
37.104
20
7.778584375
30
0
0
VERTEX
8
0
10
37.09721875
20
7.847421875
30
0
42
0.9063482509838228
0
VERTEX
8
0
10
35.696000000000005
20
7.778584375
30
0
0
VERTEX
8
0
10
35.696000000000005
20
7.243200000000001
30
0
0
VERTEX
8
0
10
33.71
20
7.243200000000001
30
0
0
VERTEX
8
0
10
33.699896875
20
7.242312500000001
30
0
0
VERTEX
8
0
10
33.689734375
20
7.2421875
30
0
42
0.13234210275356542
0
VERTEX
8
0
10
33.590909375
20
7.204643750000001
30
0
0
VERTEX
8
0
10
33.58454375
20
7.19921875
30
0
42
0.01802390080028543
0
VERTEX
8
0
10
33.573425
20
7.189743750000001
30
0
0
VERTEX
8
0
10
33.566315625
20
7.183684375
30
0
0
VERTEX
8
0
10
32.93583125
20
6.5532
30
0
0
VERTEX
8
0
10
26.162000000000003
20
6.5532
30
0
0
VERTEX
8
0
10
26.162000000000003
20
7.149434375
30
0
0
VERTEX
8
0
10
26.1546625
20
7.22394375
30
0
42
0.9063472543261978
0
VERTEX
8
0
10
24.638
20
7.149434375
30
0
0
VERTEX
8
0
10
24.638
20
5.550565625
30
0
0
VERTEX
8
0
10
24.6453375
20
5.47605625
30
0
42
0.38574240611503685
0
VERTEX
8
0
10
25.437434375000002
20
4.8260000000000005
30
0
0
SEQEND
0
POLYLINE
66
1
8
1_copper
10
0.0
20
0.0
30
0.0
70
1
0
VERTEX
8
0
10
5.4625843750000005
20
4.186850000000001
30
0
42
0.19891265727797133
0
VERTEX
8
0
10
6.059696875
20
4.53159375
30
0
0
VERTEX
8
0
10
6.087990625000001
20
4.572
30
0
0
VERTEX
8
0
10
7.29
20
4.572
30
0
0
VERTEX
8
0
10
7.29
20
4.33
30
0
0
VERTEX
8
0
10
8.59
20
4.33
30
0
0
VERTEX
8
0
10
8.59
20
5.83
30
0
0
VERTEX
8
0
10
7.29
20
5.83
30
0
0
VERTEX
8
0
10
7.29
20
5.588
30
0
0
VERTEX
8
0
10
6.087990625000001
20
5.588
30
0
0
VERTEX
8
0
10
6.059696875
20
5.62840625
30
0
42
0.22169497074983996
0
VERTEX
8
0
10
5.38429375
20
5.98
30
0
0
VERTEX
8
0
10
3.5057062500000002
20
5.98
30
0
0
VERTEX
8
0
10
3.427415625
20
5.97315
30
0
42
0.9163322674645454
0
VERTEX
8
0
10
3.5057062500000002
20
4.180000000000001
30
0
0
VERTEX
8
0
10
5.38429375
20
4.180000000000001
30
0
0
SEQEND
0
POLYLINE
66
1
8
16_copper
10
0.0
20
0.0
30
0.0
70
1
0
VERTEX
8
0
10
5.4625843750000005
20
4.186850000000001
30
0
42
0.9163322674645454
0
VERTEX
8
0
10
5.38429375
20
5.98
30
0
0
VERTEX
8
0
10
3.5057062500000002
20
5.98
30
0
0
VERTEX
8
0
10
3.427415625
20
5.97315
30
0
42
0.9163322674645454
0
VERTEX
8
0
10
3.5057062500000002
20
4.180000000000001
30
0
0
VERTEX
8
0
10
5.38429375
20
4.180000000000001
30
0
0
SEQEND
0
POLYLINE
66
1
8
1_copper
10
0.0
20
0.0
30
0.0
70
1
0
VERTEX
8
0
10
4.68394375
20
51.315337500000005
30
0
42
0.9063472543261978
0
VERTEX
8
0
10
4.609434375
20
52.832
30
0
0
VERTEX
8
0
10
3.0105656250000004
20
52.832
30
0
0
VERTEX
8
0
10
2.93605625
20
52.8246625
30
0
42
0.9063472543261978
0
VERTEX
8
0
10
3.0105656250000004
20
51.308
30
0
0
VERTEX
8
0
10
4.609434375
20
51.308
30
0
0
SEQEND
0
POLYLINE
66
1
8
16_copper
10
0.0
20
0.0
30
0.0
70
1
0
VERTEX
8
0
10
4.68394375
20
51.315337500000005
30
0
42
0.9063472543261978
0
VERTEX
8
0
10
4.609434375
20
52.832
30
0
0
VERTEX
8
0
10
3.0105656250000004
20
52.832
30
0
0
VERTEX
8
0
10
2.93605625
20
52.8246625
30
0
42
0.9063472543261978
0
VERTEX
8
0
10
3.0105656250000004
20
51.308
30
0
0
VERTEX
8
0
10
4.609434375
20
51.308
30
0
0
SEQEND
0
POLYLINE
66
1
8
1_copper
10
0.0
20
0.0
30
0.0
70
1
0
VERTEX
8
0
10
42.78394375
20
51.315337500000005
30
0
42
0.9063472543261978
0
VERTEX
8
0
10
42.709434375
20
52.832
30
0
0
VERTEX
8
0
10
41.110565625
20
52.832
30
0
0
VERTEX
8
0
10
41.03605625
20
52.8246625
30
0
42
0.9063472543261978
0
VERTEX
8
0
10
41.110565625
20
51.308
30
0
0
VERTEX
8
0
10
42.709434375
20
51.308
30
0
0
SEQEND
0
POLYLINE
66
1
8
16_copper
10
0.0
20
0.0
30
0.0
70
1
0
VERTEX
8
0
10
42.78394375
20
51.315337500000005
30
0
42
0.9063472543261978
0
VERTEX
8
0
10
42.709434375
20
52.832
30
0
0
VERTEX
8
0
10
41.110565625
20
52.832
30
0
0
VERTEX
8
0
10
41.03605625
20
52.8246625
30
0
42
0.9063472543261978
0
VERTEX
8
0
10
41.110565625
20
51.308
30
0
0
VERTEX
8
0
10
42.709434375
20
51.308
30
0
0
SEQEND
0
POLYLINE
66
1
8
1_copper
10
0.0
20
0.0
30
0.0
70
1
0
VERTEX
8
0
10
10.49
20
5.014803125
30
0
0
VERTEX
8
0
10
10.509534375000001
20
5.03136875
30
0
42
0.16795336777800665
0
VERTEX
8
0
10
10.66256875
20
5.325903125
30
0
0
VERTEX
8
0
10
10.668000000000001
20
5.4
30
0
0
VERTEX
8
0
10
10.668000000000001
20
9.94958125
30
0
0
VERTEX
8
0
10
11.15041875
20
10.432
30
0
0
VERTEX
8
0
10
33.996
20
10.432
30
0
0
VERTEX
8
0
10
33.996
20
10.201415625000001
30
0
0
VERTEX
8
0
10
34.00278125
20
10.132578125
30
0
42
0.9063482509838228
0
VERTEX
8
0
10
35.404
20
10.201415625000001
30
0
0
VERTEX
8
0
10
35.404
20
11.678584375
30
0
0
VERTEX
8
0
10
35.39721875
20
11.747421875
30
0
42
0.9063482509838228
0
VERTEX
8
0
10
33.996
20
11.678584375
30
0
0
VERTEX
8
0
10
33.996
20
11.448
30
0
0
VERTEX
8
0
10
10.940000000000001
20
11.448
30
0
0
VERTEX
8
0
10
10.91861875
20
11.4468125
30
0
0
VERTEX
8
0
10
10.897203125
20
11.44619375
30
0
42
0.13956369316960346
0
VERTEX
8
0
10
10.637025000000001
20
11.3477625
30
0
0
VERTEX
8
0
10
10.632796875
20
11.344112500000001
30
0
0
VERTEX
8
0
10
10.62629375
20
11.339565625
30
0
0
VERTEX
8
0
10
10.583987500000001
20
11.302378125
30
0
0
VERTEX
8
0
10
10.58224375
20
11.300465625000001
30
0
0
VERTEX
8
0
10
10.580790625
20
11.299209375
30
0
0
VERTEX
8
0
10
9.800790625000001
20
10.519209375
30
0
0
VERTEX
8
0
10
9.786521875
20
10.5032625
30
0
0
VERTEX
8
0
10
9.771803125
20
10.487668750000001
30
0
42
0.1395618413384444
0
VERTEX
8
0
10
9.65743125
20
10.234096875
30
0
0
VERTEX
8
0
10
9.657021875
20
10.22850625
30
0
0
VERTEX
8
0
10
9.655640625
20
10.220709375
30
0
0
VERTEX
8
0
10
9.65201875
20
10.164503125000001
30
0
0
VERTEX
8
0
10
9.652140625000001
20
10.161906250000001
30
0
0
VERTEX
8
0
10
9.652000000000001
20
10.16
30
0
0
VERTEX
8
0
10
9.652000000000001
20
5.83
30
0
0
VERTEX
8
0
10
9.190000000000001
20
5.83
30
0
0
VERTEX
8
0
10
9.190000000000001
20
4.33
30
0
0
VERTEX
8
0
10
10.49
20
4.33
30
0
0
SEQEND
0
POLYLINE
66
1
8
16_copper
10
0.0
20
0.0
30
0.0
70
1
0
VERTEX
8
0
10
34.803421875000005
20
9.538781250000001
30
0
42
0.35780639137000503
0
VERTEX
8
0
10
35.404
20
10.201415625000001
30
0
0
VERTEX
8
0
10
35.404
20
11.678584375
30
0
0
VERTEX
8
0
10
35.39721875
20
11.747421875
30
0
42
0.9063482509838228
0
VERTEX
8
0
10
33.996
20
11.678584375
30
0
0
VERTEX
8
0
10
33.996
20
10.201415625000001
30
0
0
VERTEX
8
0
10
34.00278125
20
10.132578125
30
0
42
0.3857424939469317
0
VERTEX
8
0
10
34.734584375000004
20
9.532
30
0
0
SEQEND
0
POLYLINE
66
1
8
1_copper
10
0.0
20
0.0
30
0.0
70
1
0
VERTEX
8
0
10
39.903421875
20
5.63878125
30
0
42
0.35780639137000503
0
VERTEX
8
0
10
40.504000000000005
20
6.301415625000001
30
0
0
VERTEX
8
0
10
40.504000000000005
20
7.778584375
30
0
0
VERTEX
8
0
10
40.49721875
20
7.847421875
30
0
42
0.2767376993831506
0
VERTEX
8
0
10
40.037456250000005
20
8.407646875000001
30
0
0
VERTEX
8
0
10
40.0032
20
8.4180375
30
0
0
VERTEX
8
0
10
40.0032
20
12.270000000000001
30
0
0
VERTEX
8
0
10
40.0023125
20
12.280103125
30
0
0
VERTEX
8
0
10
40.002187500000005
20
12.290265625
30
0
42
0.13234210275356542
0
VERTEX
8
0
10
39.96464375
20
12.389090625000001
30
0
0
VERTEX
8
0
10
39.959218750000005
20
12.39545625
30
0
42
0.01802390080028543
0
VERTEX
8
0
10
39.94974375
20
12.406575
30
0
0
VERTEX
8
0
10
39.943684375000004
20
12.413684375
30
0
0
VERTEX
8
0
10
38.243684375
20
14.113684375
30
0
0
VERTEX
8
0
10
38.23589375
20
14.120215625
30
0
0
VERTEX
8
0
10
38.228637500000005
20
14.127296875
30
0
42
0.13234447677005623
0
VERTEX
8
0
10
38.132209375
20
14.170631250000001
30
0
0
VERTEX
8
0
10
38.123884375
20
14.17129375
30
0
42
0.01805948283611007
0
VERTEX
8
0
10
38.10929375
20
14.172459375
30
0
0
VERTEX
8
0
10
38.1
20
14.173200000000001
30
0
0
VERTEX
8
0
10
8.97416875
20
14.173200000000001
30
0
0
VERTEX
8
0
10
7.8232
20
15.32416875
30
0
0
VERTEX
8
0
10
7.8232
20
16.18
30
0
0
VERTEX
8
0
10
8.370000000000001
20
16.18
30
0
0
VERTEX
8
0
10
8.370000000000001
20
17.48
30
0
0
VERTEX
8
0
10
6.87
20
17.48
30
0
0
VERTEX
8
0
10
6.87
20
16.18
30
0
0
VERTEX
8
0
10
7.4168
20
16.18
30
0
0
VERTEX
8
0
10
7.4168
20
15.24
30
0
0
VERTEX
8
0
10
7.4176875
20
15.229896875000001
30
0
0
VERTEX
8
0
10
7.4178125
20
15.219734375000002
30
0
42
0.13234210275356542
0
VERTEX
8
0
10
7.45535625
20
15.120909375
30
0
0
VERTEX
8
0
10
7.46078125
20
15.114543750000001
30
0
42
0.01802390080028543
0
VERTEX
8
0
10
7.47025625
20
15.103425000000001
30
0
0
VERTEX
8
0
10
7.476315625000001
20
15.096315625
30
0
0
VERTEX
8
0
10
8.746315625000001
20
13.826315625000001
30
0
0
VERTEX
8
0
10
8.75410625
20
13.819784375000001
30
0
0
VERTEX
8
0
10
8.7613625
20
13.812703125
30
0
42
0.13234447677005623
0
VERTEX
8
0
10
8.857790625
20
13.76936875
30
0
0
VERTEX
8
0
10
8.866115625
20
13.768706250000001
30
0
42
0.01805948283611007
0
VERTEX
8
0
10
8.880706250000001
20
13.767540625
30
0
0
VERTEX
8
0
10
8.89
20
13.7668
30
0
0
VERTEX
8
0
10
38.015831250000005
20
13.7668
30
0
0
VERTEX
8
0
10
39.5968
20
12.185831250000001
30
0
0
VERTEX
8
0
10
39.5968
20
8.4180375
30
0
0
VERTEX
8
0
10
39.56254375
20
8.407646875000001
30
0
42
0.3033471877540829
0
VERTEX
8
0
10
39.096000000000004
20
7.778584375
30
0
0
VERTEX
8
0
10
39.096000000000004
20
6.301415625000001
30
0
0
VERTEX
8
0
10
39.10278125
20
6.232578125
30
0
42
0.3857424939469317
0
VERTEX
8
0
10
39.834584375
20
5.632000000000001
30
0
0
SEQEND
0
POLYLINE
66
1
8
1_copper
10
0.0
20
0.0
30
0.0
70
1
0
VERTEX
8
0
10
41.603421875
20
9.538781250000001
30
0
42
0.35780639137000503
0
VERTEX
8
0
10
42.204
20
10.201415625000001
30
0
0
VERTEX
8
0
10
42.204
20
11.678584375
30
0
0
VERTEX
8
0
10
42.197218750000005
20
11.747421875
30
0
42
0.9063482509838228
0
VERTEX
8
0
10
40.796
20
11.678584375
30
0
0
VERTEX
8
0
10
40.796
20
10.201415625000001
30
0
0
VERTEX
8
0
10
40.80278125
20
10.132578125
30
0
42
0.3857424939469317
0
VERTEX
8
0
10
41.534584375
20
9.532
30
0
0
SEQEND
0
POLYLINE
66
1
8
16_copper
10
0.0
20
0.0
30
0.0
70
1
0
VERTEX
8
0
10
39.903421875
20
5.63878125
30
0
42
0.35780639137000503
0
VERTEX
8
0
10
40.504000000000005
20
6.301415625000001
30
0
0
VERTEX
8
0
10
40.504000000000005
20
7.19663125
30
0
0
VERTEX
8
0
10
41.643684375
20
8.336315625000001
30
0
0
VERTEX
8
0
10
41.650215625
20
8.344106250000001
30
0
0
VERTEX
8
0
10
41.657296875
20
8.3513625
30
0
42
0.13234447677005623
0
VERTEX
8
0
10
41.70063125
20
8.447790625
30
0
0
VERTEX
8
0
10
41.701293750000005
20
8.456115625
30
0
42
0.01805948283611007
0
VERTEX
8
0
10
41.702459375000004
20
8.470706250000001
30
0
0
VERTEX
8
0
10
41.7032
20
8.48
30
0
0
VERTEX
8
0
10
41.7032
20
9.5619625
30
0
0
VERTEX
8
0
10
41.73745625
20
9.572353125000001
30
0
42
0.3033471877540829
0
VERTEX
8
0
10
42.204
20
10.201415625000001
30
0
0
VERTEX
8
0
10
42.204
20
11.678584375
30
0
0
VERTEX
8
0
10
42.197218750000005
20
11.747421875
30
0
42
0.2767376993831506
0
VERTEX
8
0
10
41.73745625
20
12.307646875000001
30
0
0
VERTEX
8
0
10
41.7032
20
12.3180375
30
0
0
VERTEX
8
0
10
41.7032
20
13.110000000000001
30
0
0
VERTEX
8
0
10
41.702312500000005
20
13.120103125
30
0
0
VERTEX
8
0
10
41.7021875
20
13.130265625
30
0
42
0.13234210275356542
0
VERTEX
8
0
10
41.66464375
20
13.229090625000001
30
0
0
VERTEX
8
0
10
41.65921875
20
13.23545625
30
0
42
0.01802390080028543
0
VERTEX
8
0
10
41.64974375
20
13.246575
30
0
0
VERTEX
8
0
10
41.643684375
20
13.253684375
30
0
0
VERTEX
8
0
10
40.8432
20
14.05416875
30
0
0
VERTEX
8
0
10
40.8432
20
19.05
30
0
0
VERTEX
8
0
10
40.840081250000004
20
19.085465625
30
0
42
0.9159168875285966
0
VERTEX
8
0
10
40.436800000000005
20
19.05
30
0
0
VERTEX
8
0
10
40.436800000000005
20
13.97
30
0
0
VERTEX
8
0
10
40.4376875
20
13.959896875
30
0
0
VERTEX
8
0
10
40.4378125
20
13.949734375
30
0
42
0.13234210275356542
0
VERTEX
8
0
10
40.475356250000004
20
13.850909375
30
0
0
VERTEX
8
0
10
40.48078125
20
13.844543750000001
30
0
42
0.01802390080028543
0
VERTEX
8
0
10
40.49025625
20
13.833425
30
0
0
VERTEX
8
0
10
40.496315625
20
13.826315625000001
30
0
0
VERTEX
8
0
10
41.296800000000005
20
13.025831250000001
30
0
0
VERTEX
8
0
10
41.296800000000005
20
12.3180375
30
0
0
VERTEX
8
0
10
41.26254375
20
12.307646875000001
30
0
42
0.3033471877540829
0
VERTEX
8
0
10
40.796
20
11.678584375
30
0
0
VERTEX
8
0
10
40.796
20
10.201415625000001
30
0
0
VERTEX
8
0
10
40.80278125
20
10.132578125
30
0
42
0.2767376993831506
0
VERTEX
8
0
10
41.26254375
20
9.572353125000001
30
0
0
VERTEX
8
0
10
41.296800000000005
20
9.5619625
30
0
0
VERTEX
8
0
10
41.296800000000005
20
8.56416875
30
0
0
VERTEX
8
0
10
40.504000000000005
20
7.771368750000001
30
0
0
VERTEX
8
0
10
40.504000000000005
20
7.778584375
30
0
42
0.9520803991738168
0
VERTEX
8
0
10
39.096000000000004
20
7.778584375
30
0
0
VERTEX
8
0
10
39.096000000000004
20
6.301415625000001
30
0
0
VERTEX
8
0
10
39.10278125
20
6.232578125
30
0
42
0.3857424939469317
0
VERTEX
8
0
10
39.834584375
20
5.632000000000001
30
0
0
SEQEND
0
POLYLINE
66
1
8
1_copper
10
0.0
20
0.0
30
0.0
70
1
0
VERTEX
8
0
10
9.763943750000001
20
90.6853375
30
0
42
0.9063472543261978
0
VERTEX
8
0
10
9.689434375000001
20
92.202
30
0
0
VERTEX
8
0
10
8.090565625
20
92.202
30
0
0
VERTEX
8
0
10
8.01605625
20
92.1946625
30
0
42
0.9063472543261978
0
VERTEX
8
0
10
8.090565625
20
90.678
30
0
0
VERTEX
8
0
10
9.689434375000001
20
90.678
30
0
0
SEQEND
0
POLYLINE
66
1
8
1_copper
10
0.0
20
0.0
30
0.0
70
1
0
VERTEX
8
0
10
11.03394375
20
66.55533750000001
30
0
42
0.9063472543261978
0
VERTEX
8
0
10
10.959434375
20
68.072
30
0
0
VERTEX
8
0
10
9.360565625000001
20
68.072
30
0
0
VERTEX
8
0
10
9.28605625
20
68.0646625
30
0
42
0.9063472543261978
0
VERTEX
8
0
10
9.360565625000001
20
66.548
30
0
0
VERTEX
8
0
10
10.959434375
20
66.548
30
0
0
SEQEND
0
POLYLINE
66
1
8
16_copper
10
0.0
20
0.0
30
0.0
70
1
0
VERTEX
8
0
10
11.03394375
20
66.55533750000001
30
0
42
0.9063472543261978
0
VERTEX
8
0
10
10.959434375
20
68.072
30
0
0
VERTEX
8
0
10
9.360565625000001
20
68.072
30
0
0
VERTEX
8
0
10
9.28605625
20
68.0646625
30
0
42
0.19891253782644208
0
VERTEX
8
0
10
8.78521875
20
67.76446875
30
0
0
VERTEX
8
0
10
8.760256250000001
20
67.7271125
30
0
0
VERTEX
8
0
10
7.8232
20
68.66416875
30
0
0
VERTEX
8
0
10
7.8232
20
83.82000000000001
30
0
0
VERTEX
8
0
10
7.822312500000001
20
83.83010312500001
30
0
0
VERTEX
8
0
10
7.8221875
20
83.840265625
30
0
42
0.13234210275356542
0
VERTEX
8
0
10
7.784643750000001
20
83.939090625
30
0
0
VERTEX
8
0
10
7.77921875
20
83.94545625
30
0
42
0.01802390080028543
0
VERTEX
8
0
10
7.76974375
20
83.956575
30
0
0
VERTEX
8
0
10
7.763684375
20
83.963684375
30
0
0
VERTEX
8
0
10
5.2832
20
86.44416875
30
0
0
VERTEX
8
0
10
5.2832
20
90.08583125
30
0
0
VERTEX
8
0
10
6.43416875
20
91.2368
30
0
0
VERTEX
8
0
10
7.393350000000001
20
91.2368
30
0
0
VERTEX
8
0
10
7.409678125
20
91.18298125
30
0
42
0.30334709750080463
0
VERTEX
8
0
10
8.090565625
20
90.678
30
0
0
VERTEX
8
0
10
9.689434375000001
20
90.678
30
0
0
VERTEX
8
0
10
9.763943750000001
20
90.6853375
30
0
42
0.9063472543261978
0
VERTEX
8
0
10
9.689434375000001
20
92.202
30
0
0
VERTEX
8
0
10
8.090565625
20
92.202
30
0
0
VERTEX
8
0
10
8.01605625
20
92.1946625
30
0
42
0.2767375280948381
0
VERTEX
8
0
10
7.409678125
20
91.69701875
30
0
0
VERTEX
8
0
10
7.393350000000001
20
91.64320000000001
30
0
0
VERTEX
8
0
10
6.3500000000000005
20
91.64320000000001
30
0
0
VERTEX
8
0
10
6.339896875
20
91.6423125
30
0
0
VERTEX
8
0
10
6.329734375
20
91.6421875
30
0
42
0.13234210275356542
0
VERTEX
8
0
10
6.230909375
20
91.60464375000001
30
0
0
VERTEX
8
0
10
6.2245437500000005
20
91.59921875
30
0
42
0.01802390080028543
0
VERTEX
8
0
10
6.213425
20
91.58974375000001
30
0
0
VERTEX
8
0
10
6.206315625
20
91.583684375
30
0
0
VERTEX
8
0
10
4.936315625000001
20
90.31368437500001
30
0
0
VERTEX
8
0
10
4.9297843750000006
20
90.30589375000001
30
0
0
VERTEX
8
0
10
4.922703125
20
90.2986375
30
0
42
0.13234447677005623
0
VERTEX
8
0
10
4.87936875
20
90.20220937500001
30
0
0
VERTEX
8
0
10
4.8787062500000005
20
90.19388437500001
30
0
42
0.01805948283611007
0
VERTEX
8
0
10
4.877540625
20
90.17929375
30
0
0
VERTEX
8
0
10
4.8768
20
90.17
30
0
0
VERTEX
8
0
10
4.8768
20
86.36
30
0
0
VERTEX
8
0
10
4.8776875
20
86.349896875
30
0
0
VERTEX
8
0
10
4.8778125
20
86.339734375
30
0
42
0.13234210275356542
0
VERTEX
8
0
10
4.91535625
20
86.240909375
30
0
0
VERTEX
8
0
10
4.92078125
20
86.23454375
30
0
42
0.01802390080028543
0
VERTEX
8
0
10
4.93025625
20
86.223425
30
0
0
VERTEX
8
0
10
4.936315625000001
20
86.21631562500001
30
0
0
VERTEX
8
0
10
7.4168
20
83.73583125
30
0
0
VERTEX
8
0
10
7.4168
20
68.58
30
0
0
VERTEX
8
0
10
7.4176875
20
68.569896875
30
0
0
VERTEX
8
0
10
7.4178125
20
68.559734375
30
0
42
0.13234210275356542
0
VERTEX
8
0
10
7.45535625
20
68.460909375
30
0
0
VERTEX
8
0
10
7.46078125
20
68.45454375
30
0
42
0.01802390080028543
0
VERTEX
8
0
10
7.47025625
20
68.443425
30
0
0
VERTEX
8
0
10
7.476315625000001
20
68.436315625
30
0
0
VERTEX
8
0
10
8.636000000000001
20
67.27663125000001
30
0
0
VERTEX
8
0
10
8.636000000000001
20
67.272565625
30
0
42
0.3857427802303482
0
VERTEX
8
0
10
9.360565625000001
20
66.548
30
0
0
VERTEX
8
0
10
10.959434375
20
66.548
30
0
0
SEQEND
0
POLYLINE
66
1
8
1_copper
10
0.0
20
0.0
30
0.0
70
1
0
VERTEX
8
0
10
4.470400000000001
20
122.91645625000001
30
0
0
VERTEX
8
0
10
4.470400000000001
20
123.46354375
30
0
0
VERTEX
8
0
10
4.0835437500000005
20
123.85040000000001
30
0
0
VERTEX
8
0
10
4.0132
20
123.85040000000001
30
0
0
VERTEX
8
0
10
4.0132
20
125.06960000000001
30
0
0
VERTEX
8
0
10
4.0835437500000005
20
125.06960000000001
30
0
0
VERTEX
8
0
10
4.470400000000001
20
125.45645625
30
0
0
VERTEX
8
0
10
4.470400000000001
20
126.00354375
30
0
0
VERTEX
8
0
10
4.0835437500000005
20
126.3904
30
0
0
VERTEX
8
0
10
3.53645625
20
126.3904
30
0
0
VERTEX
8
0
10
3.1496
20
126.00354375
30
0
0
VERTEX
8
0
10
3.1496
20
125.45645625
30
0
0
VERTEX
8
0
10
3.53645625
20
125.06960000000001
30
0
0
VERTEX
8
0
10
3.6068000000000002
20
125.06960000000001
30
0
0
VERTEX
8
0
10
3.6068000000000002
20
123.85040000000001
30
0
0
VERTEX
8
0
10
3.53645625
20
123.85040000000001
30
0
0
VERTEX
8
0
10
3.1496
20
123.46354375
30
0
0
VERTEX
8
0
10
3.1496
20
122.91645625000001
30
0
0
VERTEX
8
0
10
3.53645625
20
122.5296
30
0
0
VERTEX
8
0
10
4.0835437500000005
20
122.5296
30
0
0
SEQEND
0
POLYLINE
66
1
8
16_copper
10
0.0
20
0.0
30
0.0
70
1
0
VERTEX
8
0
10
4.470400000000001
20
125.45645625
30
0
0
VERTEX
8
0
10
4.470400000000001
20
126.00354375
30
0
0
VERTEX
8
0
10
4.0835437500000005
20
126.3904
30
0
0
VERTEX
8
0
10
3.53645625
20
126.3904
30
0
0
VERTEX
8
0
10
3.1496
20
126.00354375
30
0
0
VERTEX
8
0
10
3.1496
20
125.45645625
30
0
0
VERTEX
8
0
10
3.53645625
20
125.06960000000001
30
0
0
VERTEX
8
0
10
4.0835437500000005
20
125.06960000000001
30
0
0
SEQEND
0
POLYLINE
66
1
8
16_copper
10
0.0
20
0.0
30
0.0
70
1
0
VERTEX
8
0
10
4.470400000000001
20
122.91645625000001
30
0
0
VERTEX
8
0
10
4.470400000000001
20
123.46354375
30
0
0
VERTEX
8
0
10
4.0835437500000005
20
123.85040000000001
30
0
0
VERTEX
8
0
10
3.53645625
20
123.85040000000001
30
0
0
VERTEX
8
0
10
3.1496
20
123.46354375
30
0
0
VERTEX
8
0
10
3.1496
20
122.91645625000001
30
0
0
VERTEX
8
0
10
3.53645625
20
122.5296
30
0
0
VERTEX
8
0
10
4.0835437500000005
20
122.5296
30
0
0
SEQEND
0
POLYLINE
66
1
8
1_copper
10
0.0
20
0.0
30
0.0
70
1
0
VERTEX
8
0
10
4.470400000000001
20
138.15645625000002
30
0
0
VERTEX
8
0
10
4.470400000000001
20
138.70354375
30
0
0
VERTEX
8
0
10
4.0835437500000005
20
139.09040000000002
30
0
0
VERTEX
8
0
10
4.0132
20
139.09040000000002
30
0
0
VERTEX
8
0
10
4.0132
20
140.74335000000002
30
0
0
VERTEX
8
0
10
4.06701875
20
140.759678125
30
0
42
0.30334709750080463
0
VERTEX
8
0
10
4.572
20
141.440565625
30
0
0
VERTEX
8
0
10
4.572
20
143.039434375
30
0
0
VERTEX
8
0
10
4.5646625
20
143.11394375
30
0
42
0.9063472543261978
0
VERTEX
8
0
10
3.048
20
143.039434375
30
0
0
VERTEX
8
0
10
3.048
20
141.440565625
30
0
0
VERTEX
8
0
10
3.0553375000000003
20
141.36605625
30
0
42
0.2767375280948381
0
VERTEX
8
0
10
3.55298125
20
140.759678125
30
0
0
VERTEX
8
0
10
3.6068000000000002
20
140.74335000000002
30
0
0
VERTEX
8
0
10
3.6068000000000002
20
139.09040000000002
30
0
0
VERTEX
8
0
10
3.53645625
20
139.09040000000002
30
0
0
VERTEX
8
0
10
3.1496
20
138.70354375
30
0
0
VERTEX
8
0
10
3.1496
20
138.15645625000002
30
0
0
VERTEX
8
0
10
3.53645625
20
137.7696
30
0
0
VERTEX
8
0
10
4.0835437500000005
20
137.7696
30
0
0
SEQEND
0
POLYLINE
66
1
8
16_copper
10
0.0
20
0.0
30
0.0
70
1
0
VERTEX
8
0
10
3.92194375
20
140.7233375
30
0
42
0.3578057741447831
0
VERTEX
8
0
10
4.572
20
141.440565625
30
0
0
VERTEX
8
0
10
4.572
20
143.039434375
30
0
0
VERTEX
8
0
10
4.5646625
20
143.11394375
30
0
42
0.9063472543261978
0
VERTEX
8
0
10
3.048
20
143.039434375
30
0
0
VERTEX
8
0
10
3.048
20
141.440565625
30
0
0
VERTEX
8
0
10
3.0553375000000003
20
141.36605625
30
0
42
0.38574240611503685
0
VERTEX
8
0
10
3.847434375
20
140.716
30
0
0
SEQEND
0
POLYLINE
66
1
8
16_copper
10
0.0
20
0.0
30
0.0
70
1
0
VERTEX
8
0
10
4.470400000000001
20
138.15645625000002
30
0
0
VERTEX
8
0
10
4.470400000000001
20
138.70354375
30
0
0
VERTEX
8
0
10
4.0835437500000005
20
139.09040000000002
30
0
0
VERTEX
8
0
10
3.53645625
20
139.09040000000002
30
0
0
VERTEX
8
0
10
3.1496
20
138.70354375
30
0
0
VERTEX
8
0
10
3.1496
20
138.15645625000002
30
0
0
VERTEX
8
0
10
3.53645625
20
137.7696
30
0
0
VERTEX
8
0
10
4.0835437500000005
20
137.7696
30
0
0
SEQEND
0
POLYLINE
66
1
8
1_copper
10
0.0
20
0.0
30
0.0
70
1
0
VERTEX
8
0
10
36.433943750000005
20
71.6353375
30
0
42
0.2767375280948381
0
VERTEX
8
0
10
37.040321875000004
20
72.13298125
30
0
0
VERTEX
8
0
10
37.056650000000005
20
72.1868
30
0
0
VERTEX
8
0
10
40.41335
20
72.1868
30
0
0
VERTEX
8
0
10
40.429678125
20
72.13298125
30
0
42
0.30334709750080463
0
VERTEX
8
0
10
41.110565625
20
71.628
30
0
0
VERTEX
8
0
10
42.709434375
20
71.628
30
0
0
VERTEX
8
0
10
42.78394375
20
71.6353375
30
0
42
0.9063472543261978
0
VERTEX
8
0
10
42.709434375
20
73.152
30
0
0
VERTEX
8
0
10
41.110565625
20
73.152
30
0
0
VERTEX
8
0
10
41.03605625
20
73.14466250000001
30
0
42
0.2767375280948381
0
VERTEX
8
0
10
40.429678125
20
72.64701875
30
0
0
VERTEX
8
0
10
40.41335
20
72.59320000000001
30
0
0
VERTEX
8
0
10
37.056650000000005
20
72.59320000000001
30
0
0
VERTEX
8
0
10
37.040321875000004
20
72.64701875
30
0
42
0.30334709750080463
0
VERTEX
8
0
10
36.359434375
20
73.152
30
0
0
VERTEX
8
0
10
34.760565625
20
73.152
30
0
0
VERTEX
8
0
10
34.68605625
20
73.14466250000001
30
0
42
0.9063472543261978
0
VERTEX
8
0
10
34.760565625
20
71.628
30
0
0
VERTEX
8
0
10
36.359434375
20
71.628
30
0
0
SEQEND
0
POLYLINE
66
1
8
16_copper
10
0.0
20
0.0
30
0.0
70
1
0
VERTEX
8
0
10
42.78394375
20
71.6353375
30
0
42
0.9063472543261978
0
VERTEX
8
0
10
42.709434375
20
73.152
30
0
0
VERTEX
8
0
10
41.110565625
20
73.152
30
0
0
VERTEX
8
0
10
41.03605625
20
73.14466250000001
30
0
42
0.9063472543261978
0
VERTEX
8
0
10
41.110565625
20
71.628
30
0
0
VERTEX
8
0
10
42.709434375
20
71.628
30
0
0
SEQEND
0
POLYLINE
66
1
8
16_copper
10
0.0
20
0.0
30
0.0
70
1
0
VERTEX
8
0
10
36.433943750000005
20
71.6353375
30
0
42
0.9063472543261978
0
VERTEX
8
0
10
36.359434375
20
73.152
30
0
0
VERTEX
8
0
10
34.760565625
20
73.152
30
0
0
VERTEX
8
0
10
34.68605625
20
73.14466250000001
30
0
42
0.9063472543261978
0
VERTEX
8
0
10
34.760565625
20
71.628
30
0
0
VERTEX
8
0
10
36.359434375
20
71.628
30
0
0
SEQEND
0
POLYLINE
66
1
8
1_copper
10
0.0
20
0.0
30
0.0
70
1
0
VERTEX
8
0
10
36.433943750000005
20
69.0953375
30
0
42
0.2767375280948381
0
VERTEX
8
0
10
37.040321875000004
20
69.59298125000001
30
0
0
VERTEX
8
0
10
37.056650000000005
20
69.6468
30
0
0
VERTEX
8
0
10
40.41335
20
69.6468
30
0
0
VERTEX
8
0
10
40.429678125
20
69.59298125000001
30
0
42
0.30334709750080463
0
VERTEX
8
0
10
41.110565625
20
69.08800000000001
30
0
0
VERTEX
8
0
10
42.709434375
20
69.08800000000001
30
0
0
VERTEX
8
0
10
42.78394375
20
69.0953375
30
0
42
0.9063472543261978
0
VERTEX
8
0
10
42.709434375
20
70.61200000000001
30
0
0
VERTEX
8
0
10
41.110565625
20
70.61200000000001
30
0
0
VERTEX
8
0
10
41.03605625
20
70.6046625
30
0
42
0.2767375280948381
0
VERTEX
8
0
10
40.429678125
20
70.10701875000001
30
0
0
VERTEX
8
0
10
40.41335
20
70.0532
30
0
0
VERTEX
8
0
10
37.056650000000005
20
70.0532
30
0
0
VERTEX
8
0
10
37.040321875000004
20
70.10701875000001
30
0
42
0.30334709750080463
0
VERTEX
8
0
10
36.359434375
20
70.61200000000001
30
0
0
VERTEX
8
0
10
34.760565625
20
70.61200000000001
30
0
0
VERTEX
8
0
10
34.68605625
20
70.6046625
30
0
42
0.9063472543261978
0
VERTEX
8
0
10
34.760565625
20
69.08800000000001
30
0
0
VERTEX
8
0
10
36.359434375
20
69.08800000000001
30
0
0
SEQEND
0
POLYLINE
66
1
8
16_copper
10
0.0
20
0.0
30
0.0
70
1
0
VERTEX
8
0
10
42.78394375
20
69.0953375
30
0
42
0.9063472543261978
0
VERTEX
8
0
10
42.709434375
20
70.61200000000001
30
0
0
VERTEX
8
0
10
41.110565625
20
70.61200000000001
30
0
0
VERTEX
8
0
10
41.03605625
20
70.6046625
30
0
42
0.9063472543261978
0
VERTEX
8
0
10
41.110565625
20
69.08800000000001
30
0
0
VERTEX
8
0
10
42.709434375
20
69.08800000000001
30
0
0
SEQEND
0
POLYLINE
66
1
8
16_copper
10
0.0
20
0.0
30
0.0
70
1
0
VERTEX
8
0
10
36.433943750000005
20
69.0953375
30
0
42
0.9063472543261978
0
VERTEX
8
0
10
36.359434375
20
70.61200000000001
30
0
0
VERTEX
8
0
10
34.760565625
20
70.61200000000001
30
0
0
VERTEX
8
0
10
34.68605625
20
70.6046625
30
0
42
0.9063472543261978
0
VERTEX
8
0
10
34.760565625
20
69.08800000000001
30
0
0
VERTEX
8
0
10
36.359434375
20
69.08800000000001
30
0
0
SEQEND
0
POLYLINE
66
1
8
1_copper
10
0.0
20
0.0
30
0.0
70
1
0
VERTEX
8
0
10
4.68394375
20
69.0953375
30
0
42
0.2767375280948381
0
VERTEX
8
0
10
5.290321875
20
69.59298125000001
30
0
0
VERTEX
8
0
10
5.30665
20
69.6468
30
0
0
VERTEX
8
0
10
8.663350000000001
20
69.6468
30
0
0
VERTEX
8
0
10
8.679678125
20
69.59298125000001
30
0
42
0.30334709750080463
0
VERTEX
8
0
10
9.360565625000001
20
69.08800000000001
30
0
0
VERTEX
8
0
10
10.959434375
20
69.08800000000001
30
0
0
VERTEX
8
0
10
11.03394375
20
69.0953375
30
0
42
0.9063472543261978
0
VERTEX
8
0
10
10.959434375
20
70.61200000000001
30
0
0
VERTEX
8
0
10
9.360565625000001
20
70.61200000000001
30
0
0
VERTEX
8
0
10
9.28605625
20
70.6046625
30
0
42
0.2767375280948381
0
VERTEX
8
0
10
8.679678125
20
70.10701875000001
30
0
0
VERTEX
8
0
10
8.663350000000001
20
70.0532
30
0
0
VERTEX
8
0
10
5.30665
20
70.0532
30
0
0
VERTEX
8
0
10
5.290321875
20
70.10701875000001
30
0
42
0.30334709750080463
0
VERTEX
8
0
10
4.609434375
20
70.61200000000001
30
0
0
VERTEX
8
0
10
3.0105656250000004
20
70.61200000000001
30
0
0
VERTEX
8
0
10
2.93605625
20
70.6046625
30
0
42
0.9063472543261978
0
VERTEX
8
0
10
3.0105656250000004
20
69.08800000000001
30
0
0
VERTEX
8
0
10
4.609434375
20
69.08800000000001
30
0
0
SEQEND
0
POLYLINE
66
1
8
16_copper
10
0.0
20
0.0
30
0.0
70
1
0
VERTEX
8
0
10
4.68394375
20
69.0953375
30
0
42
0.9063472543261978
0
VERTEX
8
0
10
4.609434375
20
70.61200000000001
30
0
0
VERTEX
8
0
10
3.0105656250000004
20
70.61200000000001
30
0
0
VERTEX
8
0
10
2.93605625
20
70.6046625
30
0
42
0.9063472543261978
0
VERTEX
8
0
10
3.0105656250000004
20
69.08800000000001
30
0
0
VERTEX
8
0
10
4.609434375
20
69.08800000000001
30
0
0
SEQEND
0
POLYLINE
66
1
8
16_copper
10
0.0
20
0.0
30
0.0
70
1
0
VERTEX
8
0
10
11.03394375
20
69.0953375
30
0
42
0.9063472543261978
0
VERTEX
8
0
10
10.959434375
20
70.61200000000001
30
0
0
VERTEX
8
0
10
9.360565625000001
20
70.61200000000001
30
0
0
VERTEX
8
0
10
9.28605625
20
70.6046625
30
0
42
0.9063472543261978
0
VERTEX
8
0
10
9.360565625000001
20
69.08800000000001
30
0
0
VERTEX
8
0
10
10.959434375
20
69.08800000000001
30
0
0
SEQEND
0
POLYLINE
66
1
8
1_copper
10
0.0
20
0.0
30
0.0
70
1
0
VERTEX
8
0
10
4.68394375
20
71.6353375
30
0
42
0.2767375280948381
0
VERTEX
8
0
10
5.290321875
20
72.13298125
30
0
0
VERTEX
8
0
10
5.30665
20
72.1868
30
0
0
VERTEX
8
0
10
8.663350000000001
20
72.1868
30
0
0
VERTEX
8
0
10
8.679678125
20
72.13298125
30
0
42
0.30334709750080463
0
VERTEX
8
0
10
9.360565625000001
20
71.628
30
0
0
VERTEX
8
0
10
10.959434375
20
71.628
30
0
0
VERTEX
8
0
10
11.03394375
20
71.6353375
30
0
42
0.9063472543261978
0
VERTEX
8
0
10
10.959434375
20
73.152
30
0
0
VERTEX
8
0
10
9.360565625000001
20
73.152
30
0
0
VERTEX
8
0
10
9.28605625
20
73.14466250000001
30
0
42
0.2767375280948381
0
VERTEX
8
0
10
8.679678125
20
72.64701875
30
0
0
VERTEX
8
0
10
8.663350000000001
20
72.59320000000001
30
0
0
VERTEX
8
0
10
5.30665
20
72.59320000000001
30
0
0
VERTEX
8
0
10
5.290321875
20
72.64701875
30
0
42
0.30334709750080463
0
VERTEX
8
0
10
4.609434375
20
73.152
30
0
0
VERTEX
8
0
10
3.0105656250000004
20
73.152
30
0
0
VERTEX
8
0
10
2.93605625
20
73.14466250000001
30
0
42
0.9063472543261978
0
VERTEX
8
0
10
3.0105656250000004
20
71.628
30
0
0
VERTEX
8
0
10
4.609434375
20
71.628
30
0
0
SEQEND
0
POLYLINE
66
1
8
16_copper
10
0.0
20
0.0
30
0.0
70
1
0
VERTEX
8
0
10
4.68394375
20
71.6353375
30
0
42
0.9063472543261978
0
VERTEX
8
0
10
4.609434375
20
73.152
30
0
0
VERTEX
8
0
10
3.0105656250000004
20
73.152
30
0
0
VERTEX
8
0
10
2.93605625
20
73.14466250000001
30
0
42
0.9063472543261978
0
VERTEX
8
0
10
3.0105656250000004
20
71.628
30
0
0
VERTEX
8
0
10
4.609434375
20
71.628
30
0
0
SEQEND
0
POLYLINE
66
1
8
16_copper
10
0.0
20
0.0
30
0.0
70
1
0
VERTEX
8
0
10
11.03394375
20
71.6353375
30
0
42
0.9063472543261978
0
VERTEX
8
0
10
10.959434375
20
73.152
30
0
0
VERTEX
8
0
10
9.360565625000001
20
73.152
30
0
0
VERTEX
8
0
10
9.28605625
20
73.14466250000001
30
0
42
0.9063472543261978
0
VERTEX
8
0
10
9.360565625000001
20
71.628
30
0
0
VERTEX
8
0
10
10.959434375
20
71.628
30
0
0
SEQEND
0
POLYLINE
66
1
8
1_copper
10
0.0
20
0.0
30
0.0
70
1
0
VERTEX
8
0
10
18.53
20
73.99000000000001
30
0
0
VERTEX
8
0
10
17.9832
20
73.99000000000001
30
0
0
VERTEX
8
0
10
17.9832
20
78.65583125
30
0
0
VERTEX
8
0
10
19.13416875
20
79.80680000000001
30
0
0
VERTEX
8
0
10
25.400000000000002
20
79.80680000000001
30
0
0
VERTEX
8
0
10
25.410103125000003
20
79.8076875
30
0
0
VERTEX
8
0
10
25.420265625000003
20
79.8078125
30
0
42
0.13234210275356542
0
VERTEX
8
0
10
25.519090625
20
79.84535625000001
30
0
0
VERTEX
8
0
10
25.52545625
20
79.85078125
30
0
42
0.01802390080028543
0
VERTEX
8
0
10
25.536575000000003
20
79.86025625
30
0
0
VERTEX
8
0
10
25.543684375
20
79.866315625
30
0
0
VERTEX
8
0
10
31.893684375000003
20
86.21631562500001
30
0
0
VERTEX
8
0
10
31.900215625
20
86.22410625
30
0
0
VERTEX
8
0
10
31.907296875
20
86.2313625
30
0
42
0.13234447677005623
0
VERTEX
8
0
10
31.95063125
20
86.327790625
30
0
0
VERTEX
8
0
10
31.95129375
20
86.336115625
30
0
42
0.01805948283611007
0
VERTEX
8
0
10
31.952459375
20
86.35070625
30
0
0
VERTEX
8
0
10
31.953200000000002
20
86.36
30
0
0
VERTEX
8
0
10
31.953200000000002
20
100.24583125000001
30
0
0
VERTEX
8
0
10
33.10416875
20
101.3968
30
0
0
VERTEX
8
0
10
35.56
20
101.3968
30
0
0
VERTEX
8
0
10
35.570103125
20
101.3976875
30
0
0
VERTEX
8
0
10
35.580265625
20
101.3978125
30
0
42
0.13234210275356542
0
VERTEX
8
0
10
35.679090625
20
101.43535625
30
0
0
VERTEX
8
0
10
35.68545625
20
101.44078125
30
0
42
0.01802390080028543
0
VERTEX
8
0
10
35.696575
20
101.45025625000001
30
0
0
VERTEX
8
0
10
35.703684375
20
101.456315625
30
0
0
VERTEX
8
0
10
36.973684375000005
20
102.726315625
30
0
0
VERTEX
8
0
10
36.980215625
20
102.73410625000001
30
0
0
VERTEX
8
0
10
36.987296875
20
102.74136250000001
30
0
42
0.13234447677005623
0
VERTEX
8
0
10
37.03063125
20
102.83779062500001
30
0
0
VERTEX
8
0
10
37.03129375
20
102.84611562500001
30
0
42
0.01805948283611007
0
VERTEX
8
0
10
37.032459375
20
102.86070625
30
0
0
VERTEX
8
0
10
37.0332
20
102.87
30
0
0
VERTEX
8
0
10
37.0332
20
139.61583125
30
0
0
VERTEX
8
0
10
38.184168750000005
20
140.76680000000002
30
0
0
VERTEX
8
0
10
39.979600000000005
20
140.76680000000002
30
0
0
VERTEX
8
0
10
39.979600000000005
20
140.69645625
30
0
0
VERTEX
8
0
10
40.36645625
20
140.30960000000002
30
0
0
VERTEX
8
0
10
40.91354375
20
140.30960000000002
30
0
0
VERTEX
8
0
10
41.3004
20
140.69645625
30
0
0
VERTEX
8
0
10
41.3004
20
141.24354375000001
30
0
0
VERTEX
8
0
10
40.91354375
20
141.6304
30
0
0
VERTEX
8
0
10
40.36645625
20
141.6304
30
0
0
VERTEX
8
0
10
39.979600000000005
20
141.24354375000001
30
0
0
VERTEX
8
0
10
39.979600000000005
20
141.1732
30
0
0
VERTEX
8
0
10
38.1
20
141.1732
30
0
0
VERTEX
8
0
10
38.089896875
20
141.1723125
30
0
0
VERTEX
8
0
10
38.079734375
20
141.1721875
30
0
42
0.13234210275356542
0
VERTEX
8
0
10
37.980909375
20
141.13464375
30
0
0
VERTEX
8
0
10
37.97454375
20
141.12921875
30
0
42
0.01802390080028543
0
VERTEX
8
0
10
37.963425
20
141.11974375
30
0
0
VERTEX
8
0
10
37.956315625
20
141.11368437500002
30
0
0
VERTEX
8
0
10
36.686315625
20
139.843684375
30
0
0
VERTEX
8
0
10
36.679784375000004
20
139.83589375
30
0
0
VERTEX
8
0
10
36.672703125000005
20
139.8286375
30
0
42
0.13234447677005623
0
VERTEX
8
0
10
36.629368750000005
20
139.732209375
30
0
0
VERTEX
8
0
10
36.62870625
20
139.723884375
30
0
42
0.01805948283611007
0
VERTEX
8
0
10
36.627540625
20
139.70929375
30
0
0
VERTEX
8
0
10
36.6268
20
139.70000000000002
30
0
0
VERTEX
8
0
10
36.6268
20
102.95416875000001
30
0
0
VERTEX
8
0
10
35.47583125
20
101.8032
30
0
0
VERTEX
8
0
10
33.02
20
101.8032
30
0
0
VERTEX
8
0
10
33.009896875
20
101.8023125
30
0
0
VERTEX
8
0
10
32.999734375
20
101.8021875
30
0
42
0.13234210275356542
0
VERTEX
8
0
10
32.900909375000005
20
101.76464375
30
0
0
VERTEX
8
0
10
32.894543750000004
20
101.75921875
30
0
42
0.01802390080028543
0
VERTEX
8
0
10
32.883425
20
101.74974375000001
30
0
0
VERTEX
8
0
10
32.876315625000004
20
101.743684375
30
0
0
VERTEX
8
0
10
31.606315625
20
100.473684375
30
0
0
VERTEX
8
0
10
31.599784375000002
20
100.46589375
30
0
0
VERTEX
8
0
10
31.592703125
20
100.45863750000001
30
0
42
0.13234447677005623
0
VERTEX
8
0
10
31.549368750000003
20
100.362209375
30
0
0
VERTEX
8
0
10
31.548706250000002
20
100.353884375
30
0
42
0.01805948283611007
0
VERTEX
8
0
10
31.547540625
20
100.33929375000001
30
0
0
VERTEX
8
0
10
31.5468
20
100.33
30
0
0
VERTEX
8
0
10
31.5468
20
86.44416875
30
0
0
VERTEX
8
0
10
25.315831250000002
20
80.2132
30
0
0
VERTEX
8
0
10
19.05
20
80.2132
30
0
0
VERTEX
8
0
10
19.039896875
20
80.21231250000001
30
0
0
VERTEX
8
0
10
19.029734375
20
80.2121875
30
0
42
0.13234210275356542
0
VERTEX
8
0
10
18.930909375000002
20
80.17464375
30
0
0
VERTEX
8
0
10
18.92454375
20
80.16921875
30
0
42
0.01802390080028543
0
VERTEX
8
0
10
18.913425
20
80.15974375
30
0
0
VERTEX
8
0
10
18.906315625
20
80.153684375
30
0
0
VERTEX
8
0
10
17.636315625
20
78.883684375
30
0
0
VERTEX
8
0
10
17.629784375
20
78.87589375
30
0
0
VERTEX
8
0
10
17.622703125
20
78.8686375
30
0
42
0.13234447677005623
0
VERTEX
8
0
10
17.57936875
20
78.772209375
30
0
0
VERTEX
8
0
10
17.57870625
20
78.763884375
30
0
42
0.01805948283611007
0
VERTEX
8
0
10
17.577540625
20
78.74929375
30
0
0
VERTEX
8
0
10
17.576800000000002
20
78.74000000000001
30
0
0
VERTEX
8
0
10
17.576800000000002
20
73.99000000000001
30
0
0
VERTEX
8
0
10
17.03
20
73.99000000000001
30
0
0
VERTEX
8
0
10
17.03
20
72.69
30
0
0
VERTEX
8
0
10
18.53
20
72.69
30
0
0
SEQEND
0
POLYLINE
66
1
8
16_copper
10
0.0
20
0.0
30
0.0
70
1
0
VERTEX
8
0
10
41.3004
20
140.69645625
30
0
0
VERTEX
8
0
10
41.3004
20
141.24354375000001
30
0
0
VERTEX
8
0
10
40.91354375
20
141.6304
30
0
0
VERTEX
8
0
10
40.36645625
20
141.6304
30
0
0
VERTEX
8
0
10
39.979600000000005
20
141.24354375000001
30
0
0
VERTEX
8
0
10
39.979600000000005
20
140.69645625
30
0
0
VERTEX
8
0
10
40.36645625
20
140.30960000000002
30
0
0
VERTEX
8
0
10
40.91354375
20
140.30960000000002
30
0
0
SEQEND
0
POLYLINE
66
1
8
1_copper
10
0.0
20
0.0
30
0.0
70
1
0
VERTEX
8
0
10
22.34
20
73.99000000000001
30
0
0
VERTEX
8
0
10
21.793200000000002
20
73.99000000000001
30
0
0
VERTEX
8
0
10
21.793200000000002
20
77.38583125000001
30
0
0
VERTEX
8
0
10
22.94416875
20
78.5368
30
0
0
VERTEX
8
0
10
25.400000000000002
20
78.5368
30
0
0
VERTEX
8
0
10
25.410103125000003
20
78.5376875
30
0
0
VERTEX
8
0
10
25.420265625000003
20
78.5378125
30
0
42
0.13234210275356542
0
VERTEX
8
0
10
25.519090625
20
78.57535625
30
0
0
VERTEX
8
0
10
25.52545625
20
78.58078125
30
0
42
0.01802390080028543
0
VERTEX
8
0
10
25.536575000000003
20
78.59025625000001
30
0
0
VERTEX
8
0
10
25.543684375
20
78.596315625
30
0
0
VERTEX
8
0
10
33.163684375
20
86.21631562500001
30
0
0
VERTEX
8
0
10
33.170215625000004
20
86.22410625
30
0
0
VERTEX
8
0
10
33.177296875
20
86.2313625
30
0
42
0.13234447677005623
0
VERTEX
8
0
10
33.220631250000004
20
86.327790625
30
0
0
VERTEX
8
0
10
33.22129375
20
86.336115625
30
0
42
0.01805948283611007
0
VERTEX
8
0
10
33.222459375
20
86.35070625
30
0
0
VERTEX
8
0
10
33.2232
20
86.36
30
0
0
VERTEX
8
0
10
33.2232
20
98.97583125
30
0
0
VERTEX
8
0
10
34.37416875
20
100.1268
30
0
0
VERTEX
8
0
10
35.56
20
100.1268
30
0
0
VERTEX
8
0
10
35.570103125
20
100.12768750000001
30
0
0
VERTEX
8
0
10
35.580265625
20
100.1278125
30
0
42
0.13234210275356542
0
VERTEX
8
0
10
35.679090625
20
100.16535625
30
0
0
VERTEX
8
0
10
35.68545625
20
100.17078125
30
0
42
0.01802390080028543
0
VERTEX
8
0
10
35.696575
20
100.18025625
30
0
0
VERTEX
8
0
10
35.703684375
20
100.186315625
30
0
0
VERTEX
8
0
10
38.243684375
20
102.726315625
30
0
0
VERTEX
8
0
10
38.250215625
20
102.73410625000001
30
0
0
VERTEX
8
0
10
38.257296875
20
102.74136250000001
30
0
42
0.13234447677005623
0
VERTEX
8
0
10
38.30063125
20
102.83779062500001
30
0
0
VERTEX
8
0
10
38.30129375
20
102.84611562500001
30
0
42
0.01805948283611007
0
VERTEX
8
0
10
38.302459375000005
20
102.86070625
30
0
0
VERTEX
8
0
10
38.303200000000004
20
102.87
30
0
0
VERTEX
8
0
10
38.303200000000004
20
133.26583125000002
30
0
0
VERTEX
8
0
10
39.45416875
20
134.4168
30
0
0
VERTEX
8
0
10
39.979600000000005
20
134.4168
30
0
0
VERTEX
8
0
10
39.979600000000005
20
134.34645625000002
30
0
0
VERTEX
8
0
10
40.36645625
20
133.9596
30
0
0
VERTEX
8
0
10
40.91354375
20
133.9596
30
0
0
VERTEX
8
0
10
41.3004
20
134.34645625000002
30
0
0
VERTEX
8
0
10
41.3004
20
134.89354375000002
30
0
0
VERTEX
8
0
10
40.91354375
20
135.28040000000001
30
0
0
VERTEX
8
0
10
40.36645625
20
135.28040000000001
30
0
0
VERTEX
8
0
10
39.979600000000005
20
134.89354375000002
30
0
0
VERTEX
8
0
10
39.979600000000005
20
134.8232
30
0
0
VERTEX
8
0
10
39.370000000000005
20
134.8232
30
0
0
VERTEX
8
0
10
39.359896875000004
20
134.8223125
30
0
0
VERTEX
8
0
10
39.349734375000004
20
134.8221875
30
0
42
0.13234210275356542
0
VERTEX
8
0
10
39.250909375
20
134.78464375000001
30
0
0
VERTEX
8
0
10
39.244543750000005
20
134.77921875
30
0
42
0.01802390080028543
0
VERTEX
8
0
10
39.233425000000004
20
134.76974375
30
0
0
VERTEX
8
0
10
39.226315625000005
20
134.763684375
30
0
0
VERTEX
8
0
10
37.956315625
20
133.49368437500002
30
0
0
VERTEX
8
0
10
37.949784375
20
133.48589375
30
0
0
VERTEX
8
0
10
37.942703125
20
133.47863750000002
30
0
42
0.13234447677005623
0
VERTEX
8
0
10
37.89936875
20
133.382209375
30
0
0
VERTEX
8
0
10
37.898706250000004
20
133.37388437500002
30
0
42
0.01805948283611007
0
VERTEX
8
0
10
37.897540625000005
20
133.35929375
30
0
0
VERTEX
8
0
10
37.8968
20
133.35
30
0
0
VERTEX
8
0
10
37.8968
20
102.95416875000001
30
0
0
VERTEX
8
0
10
35.47583125
20
100.53320000000001
30
0
0
VERTEX
8
0
10
34.29
20
100.53320000000001
30
0
0
VERTEX
8
0
10
34.279896875
20
100.5323125
30
0
0
VERTEX
8
0
10
34.269734375
20
100.5321875
30
0
42
0.13234210275356542
0
VERTEX
8
0
10
34.170909375
20
100.49464375000001
30
0
0
VERTEX
8
0
10
34.16454375
20
100.48921875
30
0
42
0.01802390080028543
0
VERTEX
8
0
10
34.153425
20
100.47974375000001
30
0
0
VERTEX
8
0
10
34.146315625
20
100.473684375
30
0
0
VERTEX
8
0
10
32.876315625000004
20
99.20368437500001
30
0
0
VERTEX
8
0
10
32.869784375
20
99.19589375000001
30
0
0
VERTEX
8
0
10
32.862703125
20
99.1886375
30
0
42
0.13234447677005623
0
VERTEX
8
0
10
32.81936875
20
99.09220937500001
30
0
0
VERTEX
8
0
10
32.81870625
20
99.08388437500001
30
0
42
0.01805948283611007
0
VERTEX
8
0
10
32.817540625
20
99.06929375
30
0
0
VERTEX
8
0
10
32.8168
20
99.06
30
0
0
VERTEX
8
0
10
32.8168
20
86.44416875
30
0
0
VERTEX
8
0
10
25.315831250000002
20
78.9432
30
0
0
VERTEX
8
0
10
22.86
20
78.9432
30
0
0
VERTEX
8
0
10
22.849896875000002
20
78.9423125
30
0
0
VERTEX
8
0
10
22.839734375000003
20
78.9421875
30
0
42
0.13234210275356542
0
VERTEX
8
0
10
22.740909375
20
78.90464375
30
0
0
VERTEX
8
0
10
22.73454375
20
78.89921875
30
0
42
0.01802390080028543
0
VERTEX
8
0
10
22.723425000000002
20
78.88974375000001
30
0
0
VERTEX
8
0
10
22.716315625
20
78.883684375
30
0
0
VERTEX
8
0
10
21.446315625
20
77.613684375
30
0
0
VERTEX
8
0
10
21.439784375000002
20
77.60589375
30
0
0
VERTEX
8
0
10
21.432703125
20
77.59863750000001
30
0
42
0.13234447677005623
0
VERTEX
8
0
10
21.389368750000003
20
77.502209375
30
0
0
VERTEX
8
0
10
21.388706250000002
20
77.49388437500001
30
0
42
0.01805948283611007
0
VERTEX
8
0
10
21.387540625
20
77.47929375000001
30
0
0
VERTEX
8
0
10
21.3868
20
77.47
30
0
0
VERTEX
8
0
10
21.3868
20
73.99000000000001
30
0
0
VERTEX
8
0
10
20.84
20
73.99000000000001
30
0
0
VERTEX
8
0
10
20.84
20
72.69
30
0
0
VERTEX
8
0
10
22.34
20
72.69
30
0
0
SEQEND
0
POLYLINE
66
1
8
16_copper
10
0.0
20
0.0
30
0.0
70
1
0
VERTEX
8
0
10
41.3004
20
134.34645625000002
30
0
0
VERTEX
8
0
10
41.3004
20
134.89354375000002
30
0
0
VERTEX
8
0
10
40.91354375
20
135.28040000000001
30
0
0
VERTEX
8
0
10
40.36645625
20
135.28040000000001
30
0
0
VERTEX
8
0
10
39.979600000000005
20
134.89354375000002
30
0
0
VERTEX
8
0
10
39.979600000000005
20
134.34645625000002
30
0
0
VERTEX
8
0
10
40.36645625
20
133.9596
30
0
0
VERTEX
8
0
10
40.91354375
20
133.9596
30
0
0
SEQEND
0
POLYLINE
66
1
8
1_copper
10
0.0
20
0.0
30
0.0
70
1
0
VERTEX
8
0
10
26.150000000000002
20
73.99000000000001
30
0
0
VERTEX
8
0
10
25.6032
20
73.99000000000001
30
0
0
VERTEX
8
0
10
25.6032
20
77.38583125000001
30
0
0
VERTEX
8
0
10
34.433684375
20
86.21631562500001
30
0
0
VERTEX
8
0
10
34.440215625
20
86.22410625
30
0
0
VERTEX
8
0
10
34.447296875
20
86.2313625
30
0
42
0.13234447677005623
0
VERTEX
8
0
10
34.49063125
20
86.327790625
30
0
0
VERTEX
8
0
10
34.491293750000004
20
86.336115625
30
0
42
0.01805948283611007
0
VERTEX
8
0
10
34.492459375
20
86.35070625
30
0
0
VERTEX
8
0
10
34.4932
20
86.36
30
0
0
VERTEX
8
0
10
34.4932
20
97.70583125
30
0
0
VERTEX
8
0
10
39.513684375000004
20
102.726315625
30
0
0
VERTEX
8
0
10
39.520215625
20
102.73410625000001
30
0
0
VERTEX
8
0
10
39.527296875000005
20
102.74136250000001
30
0
42
0.13234447677005623
0
VERTEX
8
0
10
39.570631250000005
20
102.83779062500001
30
0
0
VERTEX
8
0
10
39.57129375
20
102.84611562500001
30
0
42
0.01805948283611007
0
VERTEX
8
0
10
39.572459375
20
102.86070625
30
0
0
VERTEX
8
0
10
39.5732
20
102.87
30
0
0
VERTEX
8
0
10
39.5732
20
125.64583125
30
0
0
VERTEX
8
0
10
40.783684375
20
126.85631562500001
30
0
0
VERTEX
8
0
10
40.790215625
20
126.86410625
30
0
0
VERTEX
8
0
10
40.797296875
20
126.8713625
30
0
42
0.13234447677005623
0
VERTEX
8
0
10
40.84063125
20
126.967790625
30
0
0
VERTEX
8
0
10
40.841293750000006
20
126.976115625
30
0
42
0.01805948283611007
0
VERTEX
8
0
10
40.842459375000004
20
126.99070625
30
0
0
VERTEX
8
0
10
40.8432
20
127
30
0
0
VERTEX
8
0
10
40.8432
20
127.6096
30
0
0
VERTEX
8
0
10
40.91354375
20
127.6096
30
0
0
VERTEX
8
0
10
41.3004
20
127.99645625000001
30
0
0
VERTEX
8
0
10
41.3004
20
128.54354375
30
0
0
VERTEX
8
0
10
40.91354375
20
128.93040000000002
30
0
0
VERTEX
8
0
10
40.36645625
20
128.93040000000002
30
0
0
VERTEX
8
0
10
39.979600000000005
20
128.54354375
30
0
0
VERTEX
8
0
10
39.979600000000005
20
127.99645625000001
30
0
0
VERTEX
8
0
10
40.36645625
20
127.6096
30
0
0
VERTEX
8
0
10
40.436800000000005
20
127.6096
30
0
0
VERTEX
8
0
10
40.436800000000005
20
127.08416875
30
0
0
VERTEX
8
0
10
39.226315625000005
20
125.87368437500001
30
0
0
VERTEX
8
0
10
39.219784375
20
125.86589375000001
30
0
0
VERTEX
8
0
10
39.212703125000004
20
125.8586375
30
0
42
0.13234447677005623
0
VERTEX
8
0
10
39.169368750000004
20
125.76220937500001
30
0
0
VERTEX
8
0
10
39.16870625
20
125.75388437500001
30
0
42
0.01805948283611007
0
VERTEX
8
0
10
39.167540625
20
125.73929375
30
0
0
VERTEX
8
0
10
39.1668
20
125.73
30
0
0
VERTEX
8
0
10
39.1668
20
102.95416875000001
30
0
0
VERTEX
8
0
10
34.146315625
20
97.933684375
30
0
0
VERTEX
8
0
10
34.139784375000005
20
97.92589375
30
0
0
VERTEX
8
0
10
34.132703125
20
97.9186375
30
0
42
0.13234447677005623
0
VERTEX
8
0
10
34.08936875
20
97.822209375
30
0
0
VERTEX
8
0
10
34.08870625
20
97.813884375
30
0
42
0.01805948283611007
0
VERTEX
8
0
10
34.087540625
20
97.79929375
30
0
0
VERTEX
8
0
10
34.086800000000004
20
97.79
30
0
0
VERTEX
8
0
10
34.086800000000004
20
86.44416875
30
0
0
VERTEX
8
0
10
25.256315625000003
20
77.613684375
30
0
0
VERTEX
8
0
10
25.249784375
20
77.60589375
30
0
0
VERTEX
8
0
10
25.242703125000002
20
77.59863750000001
30
0
42
0.13234447677005623
0
VERTEX
8
0
10
25.19936875
20
77.502209375
30
0
0
VERTEX
8
0
10
25.19870625
20
77.49388437500001
30
0
42
0.01805948283611007
0
VERTEX
8
0
10
25.197540625000002
20
77.47929375000001
30
0
0
VERTEX
8
0
10
25.1968
20
77.47
30
0
0
VERTEX
8
0
10
25.1968
20
73.99000000000001
30
0
0
VERTEX
8
0
10
24.650000000000002
20
73.99000000000001
30
0
0
VERTEX
8
0
10
24.650000000000002
20
72.69
30
0
0
VERTEX
8
0
10
26.150000000000002
20
72.69
30
0
0
SEQEND
0
POLYLINE
66
1
8
16_copper
10
0.0
20
0.0
30
0.0
70
1
0
VERTEX
8
0
10
41.3004
20
127.99645625000001
30
0
0
VERTEX
8
0
10
41.3004
20
128.54354375
30
0
0
VERTEX
8
0
10
40.91354375
20
128.93040000000002
30
0
0
VERTEX
8
0
10
40.36645625
20
128.93040000000002
30
0
0
VERTEX
8
0
10
39.979600000000005
20
128.54354375
30
0
0
VERTEX
8
0
10
39.979600000000005
20
127.99645625000001
30
0
0
VERTEX
8
0
10
40.36645625
20
127.6096
30
0
0
VERTEX
8
0
10
40.91354375
20
127.6096
30
0
0
SEQEND
0
POLYLINE
66
1
8
1_copper
10
0.0
20
0.0
30
0.0
70
1
0
VERTEX
8
0
10
29.96
20
73.99000000000001
30
0
0
VERTEX
8
0
10
29.4132
20
73.99000000000001
30
0
0
VERTEX
8
0
10
29.4132
20
79.92583125
30
0
0
VERTEX
8
0
10
35.703684375
20
86.21631562500001
30
0
0
VERTEX
8
0
10
35.710215625000004
20
86.22410625
30
0
0
VERTEX
8
0
10
35.717296875
20
86.2313625
30
0
42
0.13234447677005623
0
VERTEX
8
0
10
35.76063125
20
86.327790625
30
0
0
VERTEX
8
0
10
35.76129375
20
86.336115625
30
0
42
0.01805948283611007
0
VERTEX
8
0
10
35.762459375
20
86.35070625
30
0
0
VERTEX
8
0
10
35.763200000000005
20
86.36
30
0
0
VERTEX
8
0
10
35.763200000000005
20
97.70583125
30
0
0
VERTEX
8
0
10
40.783684375
20
102.726315625
30
0
0
VERTEX
8
0
10
40.790215625
20
102.73410625000001
30
0
0
VERTEX
8
0
10
40.797296875
20
102.74136250000001
30
0
42
0.13234447677005623
0
VERTEX
8
0
10
40.84063125
20
102.83779062500001
30
0
0
VERTEX
8
0
10
40.841293750000006
20
102.84611562500001
30
0
42
0.01805948283611007
0
VERTEX
8
0
10
40.842459375000004
20
102.86070625
30
0
0
VERTEX
8
0
10
40.8432
20
102.87
30
0
0
VERTEX
8
0
10
40.8432
20
121.2596
30
0
0
VERTEX
8
0
10
40.91354375
20
121.2596
30
0
0
VERTEX
8
0
10
41.3004
20
121.64645625
30
0
0
VERTEX
8
0
10
41.3004
20
122.19354375
30
0
0
VERTEX
8
0
10
40.91354375
20
122.58040000000001
30
0
0
VERTEX
8
0
10
40.36645625
20
122.58040000000001
30
0
0
VERTEX
8
0
10
39.979600000000005
20
122.19354375
30
0
0
VERTEX
8
0
10
39.979600000000005
20
121.64645625
30
0
0
VERTEX
8
0
10
40.36645625
20
121.2596
30
0
0
VERTEX
8
0
10
40.436800000000005
20
121.2596
30
0
0
VERTEX
8
0
10
40.436800000000005
20
102.95416875000001
30
0
0
VERTEX
8
0
10
35.416315625
20
97.933684375
30
0
0
VERTEX
8
0
10
35.409784375
20
97.92589375
30
0
0
VERTEX
8
0
10
35.402703125
20
97.9186375
30
0
42
0.13234447677005623
0
VERTEX
8
0
10
35.35936875
20
97.822209375
30
0
0
VERTEX
8
0
10
35.358706250000004
20
97.813884375
30
0
42
0.01805948283611007
0
VERTEX
8
0
10
35.357540625
20
97.79929375
30
0
0
VERTEX
8
0
10
35.3568
20
97.79
30
0
0
VERTEX
8
0
10
35.3568
20
86.44416875
30
0
0
VERTEX
8
0
10
29.066315625
20
80.153684375
30
0
0
VERTEX
8
0
10
29.059784375000003
20
80.14589375
30
0
0
VERTEX
8
0
10
29.052703125
20
80.1386375
30
0
42
0.13234447677005623
0
VERTEX
8
0
10
29.00936875
20
80.042209375
30
0
0
VERTEX
8
0
10
29.008706250000003
20
80.033884375
30
0
42
0.01805948283611007
0
VERTEX
8
0
10
29.007540625
20
80.01929375
30
0
0
VERTEX
8
0
10
29.006800000000002
20
80.01
30
0
0
VERTEX
8
0
10
29.006800000000002
20
73.99000000000001
30
0
0
VERTEX
8
0
10
28.46
20
73.99000000000001
30
0
0
VERTEX
8
0
10
28.46
20
72.69
30
0
0
VERTEX
8
0
10
29.96
20
72.69
30
0
0
SEQEND
0
POLYLINE
66
1
8
16_copper
10
0.0
20
0.0
30
0.0
70
1
0
VERTEX
8
0
10
41.3004
20
121.64645625
30
0
0
VERTEX
8
0
10
41.3004
20
122.19354375
30
0
0
VERTEX
8
0
10
40.91354375
20
122.58040000000001
30
0
0
VERTEX
8
0
10
40.36645625
20
122.58040000000001
30
0
0
VERTEX
8
0
10
39.979600000000005
20
122.19354375
30
0
0
VERTEX
8
0
10
39.979600000000005
20
121.64645625
30
0
0
VERTEX
8
0
10
40.36645625
20
121.2596
30
0
0
VERTEX
8
0
10
40.91354375
20
121.2596
30
0
0
SEQEND
0
POLYLINE
66
1
8
1_copper
10
0.0
20
0.0
30
0.0
70
1
0
VERTEX
8
0
10
36.433943750000005
20
61.4753375
30
0
42
0.9063472543261978
0
VERTEX
8
0
10
36.359434375
20
62.992000000000004
30
0
0
VERTEX
8
0
10
34.760565625
20
62.992000000000004
30
0
0
VERTEX
8
0
10
34.68605625
20
62.984662500000006
30
0
42
0.2767375280948381
0
VERTEX
8
0
10
34.079678125
20
62.487018750000004
30
0
0
VERTEX
8
0
10
34.06335
20
62.43320000000001
30
0
0
VERTEX
8
0
10
30.56416875
20
62.43320000000001
30
0
0
VERTEX
8
0
10
29.4132
20
63.58416875
30
0
0
VERTEX
8
0
10
29.4132
20
70.79
30
0
0
VERTEX
8
0
10
29.96
20
70.79
30
0
0
VERTEX
8
0
10
29.96
20
72.09
30
0
0
VERTEX
8
0
10
28.46
20
72.09
30
0
0
VERTEX
8
0
10
28.46
20
70.79
30
0
0
VERTEX
8
0
10
29.006800000000002
20
70.79
30
0
0
VERTEX
8
0
10
29.006800000000002
20
63.5
30
0
0
VERTEX
8
0
10
29.007687500000003
20
63.48989687500001
30
0
0
VERTEX
8
0
10
29.0078125
20
63.479734375
30
0
42
0.13234210275356542
0
VERTEX
8
0
10
29.04535625
20
63.380909375
30
0
0
VERTEX
8
0
10
29.05078125
20
63.37454375
30
0
42
0.01802390080028543
0
VERTEX
8
0
10
29.060256250000002
20
63.36342500000001
30
0
0
VERTEX
8
0
10
29.066315625
20
63.356315625
30
0
0
VERTEX
8
0
10
30.336315625
20
62.086315625000005
30
0
0
VERTEX
8
0
10
30.344106250000003
20
62.079784375
30
0
0
VERTEX
8
0
10
30.3513625
20
62.072703125000004
30
0
42
0.13234447677005623
0
VERTEX
8
0
10
30.447790625000003
20
62.02936875
30
0
0
VERTEX
8
0
10
30.456115625000002
20
62.028706250000006
30
0
42
0.01805948283611007
0
VERTEX
8
0
10
30.470706250000003
20
62.027540625
30
0
0
VERTEX
8
0
10
30.48
20
62.0268
30
0
0
VERTEX
8
0
10
34.06335
20
62.0268
30
0
0
VERTEX
8
0
10
34.079678125
20
61.972981250000004
30
0
42
0.30334709750080463
0
VERTEX
8
0
10
34.760565625
20
61.468
30
0
0
VERTEX
8
0
10
36.359434375
20
61.468
30
0
0
SEQEND
0
POLYLINE
66
1
8
16_copper
10
0.0
20
0.0
30
0.0
70
1
0
VERTEX
8
0
10
36.433943750000005
20
61.4753375
30
0
42
0.9063472543261978
0
VERTEX
8
0
10
36.359434375
20
62.992000000000004
30
0
0
VERTEX
8
0
10
34.760565625
20
62.992000000000004
30
0
0
VERTEX
8
0
10
34.68605625
20
62.984662500000006
30
0
42
0.9063472543261978
0
VERTEX
8
0
10
34.760565625
20
61.468
30
0
0
VERTEX
8
0
10
36.359434375
20
61.468
30
0
0
SEQEND
0
POLYLINE
66
1
8
1_copper
10
0.0
20
0.0
30
0.0
70
1
0
VERTEX
8
0
10
36.433943750000005
20
58.9353375
30
0
42
0.9063472543261978
0
VERTEX
8
0
10
36.359434375
20
60.452000000000005
30
0
0
VERTEX
8
0
10
34.760565625
20
60.452000000000005
30
0
0
VERTEX
8
0
10
34.68605625
20
60.4446625
30
0
42
0.2767375280948381
0
VERTEX
8
0
10
34.079678125
20
59.947018750000005
30
0
0
VERTEX
8
0
10
34.06335
20
59.8932
30
0
0
VERTEX
8
0
10
26.75416875
20
59.8932
30
0
0
VERTEX
8
0
10
25.6032
20
61.044168750000004
30
0
0
VERTEX
8
0
10
25.6032
20
70.79
30
0
0
VERTEX
8
0
10
26.150000000000002
20
70.79
30
0
0
VERTEX
8
0
10
26.150000000000002
20
72.09
30
0
0
VERTEX
8
0
10
24.650000000000002
20
72.09
30
0
0
VERTEX
8
0
10
24.650000000000002
20
70.79
30
0
0
VERTEX
8
0
10
25.1968
20
70.79
30
0
0
VERTEX
8
0
10
25.1968
20
60.96
30
0
0
VERTEX
8
0
10
25.1976875
20
60.949896875
30
0
0
VERTEX
8
0
10
25.1978125
20
60.939734375
30
0
42
0.13234210275356542
0
VERTEX
8
0
10
25.235356250000002
20
60.840909375
30
0
0
VERTEX
8
0
10
25.24078125
20
60.83454375
30
0
42
0.01802390080028543
0
VERTEX
8
0
10
25.25025625
20
60.823425
30
0
0
VERTEX
8
0
10
25.256315625000003
20
60.816315625
30
0
0
VERTEX
8
0
10
26.526315625000002
20
59.546315625000005
30
0
0
VERTEX
8
0
10
26.53410625
20
59.539784375
30
0
0
VERTEX
8
0
10
26.5413625
20
59.532703125000005
30
0
42
0.13234447677005623
0
VERTEX
8
0
10
26.637790625
20
59.489368750000004
30
0
0
VERTEX
8
0
10
26.646115625
20
59.48870625
30
0
42
0.01805948283611007
0
VERTEX
8
0
10
26.66070625
20
59.487540625
30
0
0
VERTEX
8
0
10
26.67
20
59.4868
30
0
0
VERTEX
8
0
10
34.06335
20
59.4868
30
0
0
VERTEX
8
0
10
34.079678125
20
59.432981250000005
30
0
42
0.30334709750080463
0
VERTEX
8
0
10
34.760565625
20
58.928000000000004
30
0
0
VERTEX
8
0
10
36.359434375
20
58.928000000000004
30
0
0
SEQEND
0
POLYLINE
66
1
8
16_copper
10
0.0
20
0.0
30
0.0
70
1
0
VERTEX
8
0
10
36.433943750000005
20
58.9353375
30
0
42
0.9063472543261978
0
VERTEX
8
0
10
36.359434375
20
60.452000000000005
30
0
0
VERTEX
8
0
10
34.760565625
20
60.452000000000005
30
0
0
VERTEX
8
0
10
34.68605625
20
60.4446625
30
0
42
0.9063472543261978
0
VERTEX
8
0
10
34.760565625
20
58.928000000000004
30
0
0
VERTEX
8
0
10
36.359434375
20
58.928000000000004
30
0
0
SEQEND
0
POLYLINE
66
1
8
1_copper
10
0.0
20
0.0
30
0.0
70
1
0
VERTEX
8
0
10
36.433943750000005
20
56.395337500000004
30
0
42
0.9063472543261978
0
VERTEX
8
0
10
36.359434375
20
57.912000000000006
30
0
0
VERTEX
8
0
10
34.760565625
20
57.912000000000006
30
0
0
VERTEX
8
0
10
34.68605625
20
57.9046625
30
0
42
0.2767375280948381
0
VERTEX
8
0
10
34.079678125
20
57.407018750000006
30
0
0
VERTEX
8
0
10
34.06335
20
57.3532
30
0
0
VERTEX
8
0
10
22.94416875
20
57.3532
30
0
0
VERTEX
8
0
10
21.793200000000002
20
58.504168750000005
30
0
0
VERTEX
8
0
10
21.793200000000002
20
70.79
30
0
0
VERTEX
8
0
10
22.34
20
70.79
30
0
0
VERTEX
8
0
10
22.34
20
72.09
30
0
0
VERTEX
8
0
10
20.84
20
72.09
30
0
0
VERTEX
8
0
10
20.84
20
70.79
30
0
0
VERTEX
8
0
10
21.3868
20
70.79
30
0
0
VERTEX
8
0
10
21.3868
20
58.42
30
0
0
VERTEX
8
0
10
21.387687500000002
20
58.409896875
30
0
0
VERTEX
8
0
10
21.387812500000003
20
58.399734375
30
0
42
0.13234210275356542
0
VERTEX
8
0
10
21.42535625
20
58.300909375
30
0
0
VERTEX
8
0
10
21.430781250000003
20
58.29454375
30
0
42
0.01802390080028543
0
VERTEX
8
0
10
21.44025625
20
58.283425
30
0
0
VERTEX
8
0
10
21.446315625
20
58.276315625
30
0
0
VERTEX
8
0
10
22.716315625
20
57.006315625000006
30
0
0
VERTEX
8
0
10
22.724106250000002
20
56.999784375000004
30
0
0
VERTEX
8
0
10
22.7313625
20
56.992703125000006
30
0
42
0.13234447677005623
0
VERTEX
8
0
10
22.827790625000002
20
56.949368750000005
30
0
0
VERTEX
8
0
10
22.836115625
20
56.94870625
30
0
42
0.01805948283611007
0
VERTEX
8
0
10
22.85070625
20
56.947540625
30
0
0
VERTEX
8
0
10
22.86
20
56.9468
30
0
0
VERTEX
8
0
10
34.06335
20
56.9468
30
0
0
VERTEX
8
0
10
34.079678125
20
56.892981250000005
30
0
42
0.30334709750080463
0
VERTEX
8
0
10
34.760565625
20
56.388000000000005
30
0
0
VERTEX
8
0
10
36.359434375
20
56.388000000000005
30
0
0
SEQEND
0
POLYLINE
66
1
8
16_copper
10
0.0
20
0.0
30
0.0
70
1
0
VERTEX
8
0
10
36.433943750000005
20
56.395337500000004
30
0
42
0.9063472543261978
0
VERTEX
8
0
10
36.359434375
20
57.912000000000006
30
0
0
VERTEX
8
0
10
34.760565625
20
57.912000000000006
30
0
0
VERTEX
8
0
10
34.68605625
20
57.9046625
30
0
42
0.9063472543261978
0
VERTEX
8
0
10
34.760565625
20
56.388000000000005
30
0
0
VERTEX
8
0
10
36.359434375
20
56.388000000000005
30
0
0
SEQEND
0
POLYLINE
66
1
8
1_copper
10
0.0
20
0.0
30
0.0
70
1
0
VERTEX
8
0
10
36.433943750000005
20
53.855337500000005
30
0
42
0.9063472543261978
0
VERTEX
8
0
10
36.359434375
20
55.372
30
0
0
VERTEX
8
0
10
34.760565625
20
55.372
30
0
0
VERTEX
8
0
10
34.68605625
20
55.3646625
30
0
42
0.2767375280948381
0
VERTEX
8
0
10
34.079678125
20
54.86701875
30
0
0
VERTEX
8
0
10
34.06335
20
54.8132
30
0
0
VERTEX
8
0
10
19.13416875
20
54.8132
30
0
0
VERTEX
8
0
10
17.9832
20
55.964168750000006
30
0
0
VERTEX
8
0
10
17.9832
20
70.79
30
0
0
VERTEX
8
0
10
18.53
20
70.79
30
0
0
VERTEX
8
0
10
18.53
20
72.09
30
0
0
VERTEX
8
0
10
17.03
20
72.09
30
0
0
VERTEX
8
0
10
17.03
20
70.79
30
0
0
VERTEX
8
0
10
17.576800000000002
20
70.79
30
0
0
VERTEX
8
0
10
17.576800000000002
20
55.88
30
0
0
VERTEX
8
0
10
17.5776875
20
55.869896875
30
0
0
VERTEX
8
0
10
17.5778125
20
55.859734375
30
0
42
0.13234210275356542
0
VERTEX
8
0
10
17.61535625
20
55.760909375000004
30
0
0
VERTEX
8
0
10
17.62078125
20
55.75454375
30
0
42
0.01802390080028543
0
VERTEX
8
0
10
17.630256250000002
20
55.743425
30
0
0
VERTEX
8
0
10
17.636315625
20
55.736315625
30
0
0
VERTEX
8
0
10
18.906315625
20
54.466315625
30
0
0
VERTEX
8
0
10
18.91410625
20
54.459784375000005
30
0
0
VERTEX
8
0
10
18.9213625
20
54.452703125
30
0
42
0.13234447677005623
0
VERTEX
8
0
10
19.017790625
20
54.409368750000006
30
0
0
VERTEX
8
0
10
19.026115625
20
54.40870625
30
0
42
0.01805948283611007
0
VERTEX
8
0
10
19.04070625
20
54.407540625
30
0
0
VERTEX
8
0
10
19.05
20
54.406800000000004
30
0
0
VERTEX
8
0
10
34.06335
20
54.406800000000004
30
0
0
VERTEX
8
0
10
34.079678125
20
54.35298125
30
0
42
0.30334709750080463
0
VERTEX
8
0
10
34.760565625
20
53.848000000000006
30
0
0
VERTEX
8
0
10
36.359434375
20
53.848000000000006
30
0
0
SEQEND
0
POLYLINE
66
1
8
16_copper
10
0.0
20
0.0
30
0.0
70
1
0
VERTEX
8
0
10
36.433943750000005
20
53.855337500000005
30
0
42
0.9063472543261978
0
VERTEX
8
0
10
36.359434375
20
55.372
30
0
0
VERTEX
8
0
10
34.760565625
20
55.372
30
0
0
VERTEX
8
0
10
34.68605625
20
55.3646625
30
0
42
0.9063472543261978
0
VERTEX
8
0
10
34.760565625
20
53.848000000000006
30
0
0
VERTEX
8
0
10
36.359434375
20
53.848000000000006
30
0
0
SEQEND
0
POLYLINE
66
1
8
1_copper
10
0.0
20
0.0
30
0.0
70
1
0
VERTEX
8
0
10
36.433943750000005
20
74.1753375
30
0
42
0.2767375280948381
0
VERTEX
8
0
10
37.040321875000004
20
74.67298125
30
0
0
VERTEX
8
0
10
37.056650000000005
20
74.7268
30
0
0
VERTEX
8
0
10
38.1
20
74.7268
30
0
0
VERTEX
8
0
10
38.110103125
20
74.7276875
30
0
0
VERTEX
8
0
10
38.120265625
20
74.7278125
30
0
42
0.13234210275356542
0
VERTEX
8
0
10
38.219090625
20
74.76535625000001
30
0
0
VERTEX
8
0
10
38.22545625
20
74.77078125
30
0
42
0.01802390080028543
0
VERTEX
8
0
10
38.236575
20
74.78025625000001
30
0
0
VERTEX
8
0
10
38.243684375
20
74.786315625
30
0
0
VERTEX
8
0
10
39.513684375000004
20
76.05631562500001
30
0
0
VERTEX
8
0
10
39.520215625
20
76.06410625000001
30
0
0
VERTEX
8
0
10
39.527296875000005
20
76.0713625
30
0
42
0.13234447677005623
0
VERTEX
8
0
10
39.570631250000005
20
76.16779062500001
30
0
0
VERTEX
8
0
10
39.57129375
20
76.17611562500001
30
0
42
0.01805948283611007
0
VERTEX
8
0
10
39.572459375
20
76.19070625
30
0
0
VERTEX
8
0
10
39.5732
20
76.2
30
0
0
VERTEX
8
0
10
39.5732
20
78.65583125
30
0
0
VERTEX
8
0
10
40.724168750000004
20
79.80680000000001
30
0
0
VERTEX
8
0
10
41.683350000000004
20
79.80680000000001
30
0
0
VERTEX
8
0
10
41.699678125000005
20
79.75298125
30
0
42
0.30334709750080463
0
VERTEX
8
0
10
42.380565625
20
79.248
30
0
0
VERTEX
8
0
10
43.979434375000004
20
79.248
30
0
0
VERTEX
8
0
10
44.05394375
20
79.25533750000001
30
0
42
0.9063472543261978
0
VERTEX
8
0
10
43.979434375000004
20
80.772
30
0
0
VERTEX
8
0
10
42.380565625
20
80.772
30
0
0
VERTEX
8
0
10
42.306056250000005
20
80.7646625
30
0
42
0.2767375280948381
0
VERTEX
8
0
10
41.699678125000005
20
80.26701875
30
0
0
VERTEX
8
0
10
41.683350000000004
20
80.2132
30
0
0
VERTEX
8
0
10
40.64
20
80.2132
30
0
0
VERTEX
8
0
10
40.629896875
20
80.21231250000001
30
0
0
VERTEX
8
0
10
40.619734375
20
80.2121875
30
0
42
0.13234210275356542
0
VERTEX
8
0
10
40.520909375
20
80.17464375
30
0
0
VERTEX
8
0
10
40.51454375
20
80.16921875
30
0
42
0.01802390080028543
0
VERTEX
8
0
10
40.503425
20
80.15974375
30
0
0
VERTEX
8
0
10
40.496315625
20
80.153684375
30
0
0
VERTEX
8
0
10
39.226315625000005
20
78.883684375
30
0
0
VERTEX
8
0
10
39.219784375
20
78.87589375
30
0
0
VERTEX
8
0
10
39.212703125000004
20
78.8686375
30
0
42
0.13234447677005623
0
VERTEX
8
0
10
39.169368750000004
20
78.772209375
30
0
0
VERTEX
8
0
10
39.16870625
20
78.763884375
30
0
42
0.01805948283611007
0
VERTEX
8
0
10
39.167540625
20
78.74929375
30
0
0
VERTEX
8
0
10
39.1668
20
78.74000000000001
30
0
0
VERTEX
8
0
10
39.1668
20
76.28416875
30
0
0
VERTEX
8
0
10
38.015831250000005
20
75.1332
30
0
0
VERTEX
8
0
10
37.056650000000005
20
75.1332
30
0
0
VERTEX
8
0
10
37.040321875000004
20
75.18701875000001
30
0
42
0.30334709750080463
0
VERTEX
8
0
10
36.359434375
20
75.69200000000001
30
0
0
VERTEX
8
0
10
34.760565625
20
75.69200000000001
30
0
0
VERTEX
8
0
10
34.68605625
20
75.6846625
30
0
42
0.9063472543261978
0
VERTEX
8
0
10
34.760565625
20
74.168
30
0
0
VERTEX
8
0
10
36.359434375
20
74.168
30
0
0
SEQEND
0
POLYLINE
66
1
8
16_copper
10
0.0
20
0.0
30
0.0
70
1
0
VERTEX
8
0
10
44.05394375
20
79.25533750000001
30
0
42
0.9063472543261978
0
VERTEX
8
0
10
43.979434375000004
20
80.772
30
0
0
VERTEX
8
0
10
42.380565625
20
80.772
30
0
0
VERTEX
8
0
10
42.306056250000005
20
80.7646625
30
0
42
0.9063472543261978
0
VERTEX
8
0
10
42.380565625
20
79.248
30
0
0
VERTEX
8
0
10
43.979434375000004
20
79.248
30
0
0
SEQEND
0
POLYLINE
66
1
8
16_copper
10
0.0
20
0.0
30
0.0
70
1
0
VERTEX
8
0
10
36.433943750000005
20
74.1753375
30
0
42
0.9063472543261978
0
VERTEX
8
0
10
36.359434375
20
75.69200000000001
30
0
0
VERTEX
8
0
10
34.760565625
20
75.69200000000001
30
0
0
VERTEX
8
0
10
34.68605625
20
75.6846625
30
0
42
0.9063472543261978
0
VERTEX
8
0
10
34.760565625
20
74.168
30
0
0
VERTEX
8
0
10
36.359434375
20
74.168
30
0
0
SEQEND
0
POLYLINE
66
1
8
1_copper
10
0.0
20
0.0
30
0.0
70
1
0
VERTEX
8
0
10
12.30394375
20
112.2753375
30
0
42
0.9063472543261978
0
VERTEX
8
0
10
12.229434375
20
113.792
30
0
0
VERTEX
8
0
10
10.630565625000001
20
113.792
30
0
0
VERTEX
8
0
10
10.556056250000001
20
113.78466250000001
30
0
42
0.9063472543261978
0
VERTEX
8
0
10
10.630565625000001
20
112.268
30
0
0
VERTEX
8
0
10
12.229434375
20
112.268
30
0
0
SEQEND
0
POLYLINE
66
1
8
1_copper
10
0.0
20
0.0
30
0.0
70
1
0
VERTEX
8
0
10
31.823940625000002
20
103.76827187500001
30
0
42
0.19891249106179082
0
VERTEX
8
0
10
32.0651375
20
103.92943125000001
30
0
0
VERTEX
8
0
10
32.069390625000004
20
103.9368
30
0
0
VERTEX
8
0
10
33.970609375
20
103.9368
30
0
0
VERTEX
8
0
10
33.9748625
20
103.92943125000001
30
0
42
0.9999999999999999
0
VERTEX
8
0
10
34.605137500000005
20
104.35056875000001
30
0
0
VERTEX
8
0
10
34.57495625
20
104.38990000000001
30
0
42
0.4931449671628479
0
VERTEX
8
0
10
33.9748625
20
104.35056875000001
30
0
0
VERTEX
8
0
10
33.970609375
20
104.34320000000001
30
0
0
VERTEX
8
0
10
32.069390625000004
20
104.34320000000001
30
0
0
VERTEX
8
0
10
32.0651375
20
104.35056875000001
30
0
42
0.9999999999999999
0
VERTEX
8
0
10
31.4348625
20
103.92943125000001
30
0
0
VERTEX
8
0
10
31.465043750000003
20
103.8901
30
0
42
0.23316653745096352
0
VERTEX
8
0
10
31.774787500000002
20
103.76180000000001
30
0
0
SEQEND
0
POLYLINE
66
1
8
1_copper
10
0.0
20
0.0
30
0.0
70
1
0
VERTEX
8
0
10
44.05394375
20
102.11533750000001
30
0
42
0.9063472543261978
0
VERTEX
8
0
10
43.979434375000004
20
103.632
30
0
0
VERTEX
8
0
10
42.380565625
20
103.632
30
0
0
VERTEX
8
0
10
42.306056250000005
20
103.6246625
30
0
42
0.9063472543261978
0
VERTEX
8
0
10
42.380565625
20
102.108
30
0
0
VERTEX
8
0
10
43.979434375000004
20
102.108
30
0
0
SEQEND
0
POLYLINE
66
1
8
1_copper
10
0.0
20
0.0
30
0.0
70
1
0
VERTEX
8
0
10
3.41394375
20
95.7653375
30
0
42
0.9063472543261978
0
VERTEX
8
0
10
3.339434375
20
97.28200000000001
30
0
0
VERTEX
8
0
10
1.7405656250000001
20
97.28200000000001
30
0
0
VERTEX
8
0
10
1.66605625
20
97.2746625
30
0
42
0.9063472543261978
0
VERTEX
8
0
10
1.7405656250000001
20
95.75800000000001
30
0
0
VERTEX
8
0
10
3.339434375
20
95.75800000000001
30
0
0
SEQEND
0
POLYLINE
66
1
8
16_copper
10
0.0
20
0.0
30
0.0
70
1
0
VERTEX
8
0
10
12.615831250000001
20
96.7232
30
0
0
VERTEX
8
0
10
4.03665
20
96.7232
30
0
0
VERTEX
8
0
10
4.0203218750000005
20
96.77701875000001
30
0
42
0.30334709750080463
0
VERTEX
8
0
10
3.339434375
20
97.28200000000001
30
0
0
VERTEX
8
0
10
1.7405656250000001
20
97.28200000000001
30
0
0
VERTEX
8
0
10
1.66605625
20
97.2746625
30
0
42
0.9063472543261978
0
VERTEX
8
0
10
1.7405656250000001
20
95.75800000000001
30
0
0
VERTEX
8
0
10
3.339434375
20
95.75800000000001
30
0
0
VERTEX
8
0
10
3.41394375
20
95.7653375
30
0
42
0.2767375280948381
0
VERTEX
8
0
10
4.0203218750000005
20
96.26298125000001
30
0
0
VERTEX
8
0
10
4.03665
20
96.3168
30
0
0
VERTEX
8
0
10
12.700000000000001
20
96.3168
30
0
0
VERTEX
8
0
10
12.710103125
20
96.3176875
30
0
0
VERTEX
8
0
10
12.720265625000001
20
96.3178125
30
0
42
0.13234210275356542
0
VERTEX
8
0
10
12.819090625000001
20
96.35535625
30
0
0
VERTEX
8
0
10
12.82545625
20
96.36078125
30
0
42
0.01802390080028543
0
VERTEX
8
0
10
12.836575
20
96.37025625000001
30
0
0
VERTEX
8
0
10
12.843684375
20
96.376315625
30
0
0
VERTEX
8
0
10
14.113684375
20
97.646315625
30
0
0
VERTEX
8
0
10
14.120215625
20
97.65410625
30
0
0
VERTEX
8
0
10
14.127296875
20
97.66136250000001
30
0
42
0.13234447677005623
0
VERTEX
8
0
10
14.170631250000001
20
97.757790625
30
0
0
VERTEX
8
0
10
14.17129375
20
97.766115625
30
0
42
0.01805948283611007
0
VERTEX
8
0
10
14.172459375
20
97.78070625000001
30
0
0
VERTEX
8
0
10
14.173200000000001
20
97.79
30
0
0
VERTEX
8
0
10
14.173200000000001
20
104.91943125
30
0
0
VERTEX
8
0
10
15.096315625
20
103.99631562500001
30
0
0
VERTEX
8
0
10
15.104106250000001
20
103.989784375
30
0
0
VERTEX
8
0
10
15.1113625
20
103.982703125
30
0
42
0.13234447677005623
0
VERTEX
8
0
10
15.207790625000001
20
103.93936875
30
0
0
VERTEX
8
0
10
15.216115625
20
103.93870625000001
30
0
42
0.01805948283611007
0
VERTEX
8
0
10
15.23070625
20
103.93754062500001
30
0
0
VERTEX
8
0
10
15.24
20
103.9368
30
0
0
VERTEX
8
0
10
31.430609375000003
20
103.9368
30
0
0
VERTEX
8
0
10
31.4348625
20
103.92943125000001
30
0
42
0.9999999999999999
0
VERTEX
8
0
10
32.0651375
20
104.35056875000001
30
0
0
VERTEX
8
0
10
32.03495625
20
104.38990000000001
30
0
42
0.4931449671628479
0
VERTEX
8
0
10
31.4348625
20
104.35056875000001
30
0
0
VERTEX
8
0
10
31.430609375000003
20
104.34320000000001
30
0
0
VERTEX
8
0
10
15.32416875
20
104.34320000000001
30
0
0
VERTEX
8
0
10
14.173200000000001
20
105.49416875
30
0
0
VERTEX
8
0
10
14.173200000000001
20
111.76
30
0
0
VERTEX
8
0
10
14.1723125
20
111.770103125
30
0
0
VERTEX
8
0
10
14.172187500000001
20
111.780265625
30
0
42
0.13234210275356542
0
VERTEX
8
0
10
14.13464375
20
111.879090625
30
0
0
VERTEX
8
0
10
14.129218750000001
20
111.88545625
30
0
42
0.01802390080028543
0
VERTEX
8
0
10
14.119743750000001
20
111.896575
30
0
0
VERTEX
8
0
10
14.113684375
20
111.90368437500001
30
0
0
VERTEX
8
0
10
12.954
20
113.06336875000001
30
0
0
VERTEX
8
0
10
12.954
20
113.067434375
30
0
42
0.3857427802303482
0
VERTEX
8
0
10
12.229434375
20
113.792
30
0
0
VERTEX
8
0
10
10.630565625000001
20
113.792
30
0
0
VERTEX
8
0
10
10.556056250000001
20
113.78466250000001
30
0
42
0.9063472543261978
0
VERTEX
8
0
10
10.630565625000001
20
112.268
30
0
0
VERTEX
8
0
10
12.229434375
20
112.268
30
0
0
VERTEX
8
0
10
12.30394375
20
112.2753375
30
0
42
0.19891253782644208
0
VERTEX
8
0
10
12.804781250000001
20
112.57553125000001
30
0
0
VERTEX
8
0
10
12.82974375
20
112.6128875
30
0
0
VERTEX
8
0
10
13.7668
20
111.67583125
30
0
0
VERTEX
8
0
10
13.7668
20
97.87416875000001
30
0
0
SEQEND
0
POLYLINE
66
1
8
16_copper
10
0.0
20
0.0
30
0.0
70
1
0
VERTEX
8
0
10
44.05394375
20
102.11533750000001
30
0
42
0.9063472543261978
0
VERTEX
8
0
10
43.979434375000004
20
103.632
30
0
0
VERTEX
8
0
10
42.380565625
20
103.632
30
0
0
VERTEX
8
0
10
42.306056250000005
20
103.6246625
30
0
42
0.19891253782644208
0
VERTEX
8
0
10
41.80521875
20
103.32446875000001
30
0
0
VERTEX
8
0
10
41.78025625
20
103.2871125
30
0
0
VERTEX
8
0
10
40.783684375
20
104.283684375
30
0
0
VERTEX
8
0
10
40.77589375
20
104.290215625
30
0
0
VERTEX
8
0
10
40.768637500000004
20
104.297296875
30
0
42
0.13234447677005623
0
VERTEX
8
0
10
40.672209375
20
104.34063125
30
0
0
VERTEX
8
0
10
40.663884375
20
104.34129375
30
0
42
0.01805948283611007
0
VERTEX
8
0
10
40.649293750000005
20
104.342459375
30
0
0
VERTEX
8
0
10
40.64
20
104.34320000000001
30
0
0
VERTEX
8
0
10
34.609390625
20
104.34320000000001
30
0
0
VERTEX
8
0
10
34.605137500000005
20
104.35056875000001
30
0
42
0.9999999999999999
0
VERTEX
8
0
10
33.9748625
20
103.92943125000001
30
0
0
VERTEX
8
0
10
34.00504375
20
103.8901
30
0
42
0.4931449671628479
0
VERTEX
8
0
10
34.605137500000005
20
103.92943125000001
30
0
0
VERTEX
8
0
10
34.609390625
20
103.9368
30
0
0
VERTEX
8
0
10
40.555831250000004
20
103.9368
30
0
0
VERTEX
8
0
10
41.656
20
102.83663125000001
30
0
0
VERTEX
8
0
10
41.656
20
102.832565625
30
0
42
0.3857427802303482
0
VERTEX
8
0
10
42.380565625
20
102.108
30
0
0
VERTEX
8
0
10
43.979434375000004
20
102.108
30
0
0
SEQEND
0
POLYLINE
66
1
8
1_copper
10
0.0
20
0.0
30
0.0
70
1
0
VERTEX
8
0
10
35.671943750000004
20
79.25533750000001
30
0
42
0.9999999999999999
0
VERTEX
8
0
10
35.44805625
20
80.7646625
30
0
0
VERTEX
8
0
10
35.374625
20
80.75005625
30
0
42
0.9063466754177064
0
VERTEX
8
0
10
35.597434375
20
79.248
30
0
0
SEQEND
0
POLYLINE
66
1
8
16_copper
10
0.0
20
0.0
30
0.0
70
1
0
VERTEX
8
0
10
35.671943750000004
20
79.25533750000001
30
0
42
0.9999999999999999
0
VERTEX
8
0
10
35.44805625
20
80.7646625
30
0
0
VERTEX
8
0
10
35.374625
20
80.75005625
30
0
42
0.9063466754177064
0
VERTEX
8
0
10
35.597434375
20
79.248
30
0
0
SEQEND
0
POLYLINE
66
1
8
1_copper
10
0.0
20
0.0
30
0.0
70
1
0
VERTEX
8
0
10
10.27194375
20
79.25533750000001
30
0
42
0.9999999999999999
0
VERTEX
8
0
10
10.04805625
20
80.7646625
30
0
0
VERTEX
8
0
10
9.974625
20
80.75005625
30
0
42
0.9063466754177064
0
VERTEX
8
0
10
10.197434375
20
79.248
30
0
0
SEQEND
0
POLYLINE
66
1
8
16_copper
10
0.0
20
0.0
30
0.0
70
1
0
VERTEX
8
0
10
10.27194375
20
79.25533750000001
30
0
42
0.9999999999999999
0
VERTEX
8
0
10
10.04805625
20
80.7646625
30
0
0
VERTEX
8
0
10
9.974625
20
80.75005625
30
0
42
0.9063466754177064
0
VERTEX
8
0
10
10.197434375
20
79.248
30
0
0
SEQEND
0
POLYLINE
66
1
8
1_copper
10
0.0
20
0.0
30
0.0
70
1
0
VERTEX
8
0
10
36.433943750000005
20
66.55533750000001
30
0
42
0.9063472543261978
0
VERTEX
8
0
10
36.359434375
20
68.072
30
0
0
VERTEX
8
0
10
34.760565625
20
68.072
30
0
0
VERTEX
8
0
10
34.68605625
20
68.0646625
30
0
42
0.9063472543261978
0
VERTEX
8
0
10
34.760565625
20
66.548
30
0
0
VERTEX
8
0
10
36.359434375
20
66.548
30
0
0
SEQEND
0
POLYLINE
66
1
8
16_copper
10
0.0
20
0.0
30
0.0
70
1
0
VERTEX
8
0
10
36.433943750000005
20
66.55533750000001
30
0
42
0.9063472543261978
0
VERTEX
8
0
10
36.359434375
20
68.072
30
0
0
VERTEX
8
0
10
34.760565625
20
68.072
30
0
0
VERTEX
8
0
10
34.68605625
20
68.0646625
30
0
42
0.9063472543261978
0
VERTEX
8
0
10
34.760565625
20
66.548
30
0
0
VERTEX
8
0
10
36.359434375
20
66.548
30
0
0
SEQEND
0
POLYLINE
66
1
8
1_copper
10
0.0
20
0.0
30
0.0
70
1
0
VERTEX
8
0
10
36.433943750000005
20
64.0153375
30
0
42
0.9063472543261978
0
VERTEX
8
0
10
36.359434375
20
65.532
30
0
0
VERTEX
8
0
10
34.760565625
20
65.532
30
0
0
VERTEX
8
0
10
34.68605625
20
65.5246625
30
0
42
0.9063472543261978
0
VERTEX
8
0
10
34.760565625
20
64.00800000000001
30
0
0
VERTEX
8
0
10
36.359434375
20
64.00800000000001
30
0
0
SEQEND
0
POLYLINE
66
1
8
16_copper
10
0.0
20
0.0
30
0.0
70
1
0
VERTEX
8
0
10
36.433943750000005
20
64.0153375
30
0
42
0.9063472543261978
0
VERTEX
8
0
10
36.359434375
20
65.532
30
0
0
VERTEX
8
0
10
34.760565625
20
65.532
30
0
0
VERTEX
8
0
10
34.68605625
20
65.5246625
30
0
42
0.9063472543261978
0
VERTEX
8
0
10
34.760565625
20
64.00800000000001
30
0
0
VERTEX
8
0
10
36.359434375
20
64.00800000000001
30
0
0
SEQEND
0
POLYLINE
66
1
8
1_copper
10
0.0
20
0.0
30
0.0
70
1
0
VERTEX
8
0
10
12.30394375
20
122.4353375
30
0
42
0.9063472543261978
0
VERTEX
8
0
10
12.229434375
20
123.95200000000001
30
0
0
VERTEX
8
0
10
10.630565625000001
20
123.95200000000001
30
0
0
VERTEX
8
0
10
10.556056250000001
20
123.9446625
30
0
42
0.9063472543261978
0
VERTEX
8
0
10
10.630565625000001
20
122.42800000000001
30
0
0
VERTEX
8
0
10
12.229434375
20
122.42800000000001
30
0
0
SEQEND
0
POLYLINE
66
1
8
1_copper
10
0.0
20
0.0
30
0.0
70
1
0
VERTEX
8
0
10
3.41394375
20
100.8453375
30
0
42
0.9063472543261978
0
VERTEX
8
0
10
3.339434375
20
102.36200000000001
30
0
0
VERTEX
8
0
10
1.7405656250000001
20
102.36200000000001
30
0
0
VERTEX
8
0
10
1.66605625
20
102.3546625
30
0
42
0.9063472543261978
0
VERTEX
8
0
10
1.7405656250000001
20
100.83800000000001
30
0
0
VERTEX
8
0
10
3.339434375
20
100.83800000000001
30
0
0
SEQEND
0
POLYLINE
66
1
8
16_copper
10
0.0
20
0.0
30
0.0
70
1
0
VERTEX
8
0
10
3.41394375
20
100.8453375
30
0
42
0.2767375280948381
0
VERTEX
8
0
10
4.0203218750000005
20
101.34298125000001
30
0
0
VERTEX
8
0
10
4.03665
20
101.3968
30
0
0
VERTEX
8
0
10
6.3500000000000005
20
101.3968
30
0
0
VERTEX
8
0
10
6.360103125
20
101.3976875
30
0
0
VERTEX
8
0
10
6.370265625
20
101.3978125
30
0
42
0.13234210275356542
0
VERTEX
8
0
10
6.469090625000001
20
101.43535625
30
0
0
VERTEX
8
0
10
6.475456250000001
20
101.44078125
30
0
42
0.01802390080028543
0
VERTEX
8
0
10
6.486575
20
101.45025625000001
30
0
0
VERTEX
8
0
10
6.493684375
20
101.456315625
30
0
0
VERTEX
8
0
10
7.763684375
20
102.726315625
30
0
0
VERTEX
8
0
10
7.7702156250000005
20
102.73410625000001
30
0
0
VERTEX
8
0
10
7.777296875
20
102.74136250000001
30
0
42
0.13234447677005623
0
VERTEX
8
0
10
7.820631250000001
20
102.83779062500001
30
0
0
VERTEX
8
0
10
7.821293750000001
20
102.84611562500001
30
0
42
0.01805948283611007
0
VERTEX
8
0
10
7.822459375
20
102.86070625
30
0
0
VERTEX
8
0
10
7.8232
20
102.87
30
0
0
VERTEX
8
0
10
7.8232
20
121.83583125000001
30
0
0
VERTEX
8
0
10
8.97416875
20
122.9868
30
0
0
VERTEX
8
0
10
9.93335
20
122.9868
30
0
0
VERTEX
8
0
10
9.949678125
20
122.93298125000001
30
0
42
0.30334709750080463
0
VERTEX
8
0
10
10.630565625000001
20
122.42800000000001
30
0
0
VERTEX
8
0
10
12.229434375
20
122.42800000000001
30
0
0
VERTEX
8
0
10
12.30394375
20
122.4353375
30
0
42
0.9063472543261978
0
VERTEX
8
0
10
12.229434375
20
123.95200000000001
30
0
0
VERTEX
8
0
10
10.630565625000001
20
123.95200000000001
30
0
0
VERTEX
8
0
10
10.556056250000001
20
123.9446625
30
0
42
0.2767375280948381
0
VERTEX
8
0
10
9.949678125
20
123.44701875000001
30
0
0
VERTEX
8
0
10
9.93335
20
123.39320000000001
30
0
0
VERTEX
8
0
10
8.89
20
123.39320000000001
30
0
0
VERTEX
8
0
10
8.879896875
20
123.3923125
30
0
0
VERTEX
8
0
10
8.869734375
20
123.3921875
30
0
42
0.13234210275356542
0
VERTEX
8
0
10
8.770909375
20
123.35464375000001
30
0
0
VERTEX
8
0
10
8.76454375
20
123.34921875
30
0
42
0.01802390080028543
0
VERTEX
8
0
10
8.753425
20
123.33974375000001
30
0
0
VERTEX
8
0
10
8.746315625000001
20
123.333684375
30
0
0
VERTEX
8
0
10
7.476315625000001
20
122.06368437500001
30
0
0
VERTEX
8
0
10
7.469784375000001
20
122.05589375000001
30
0
0
VERTEX
8
0
10
7.462703125
20
122.04863750000001
30
0
42
0.13234447677005623
0
VERTEX
8
0
10
7.41936875
20
121.95220937500001
30
0
0
VERTEX
8
0
10
7.4187062500000005
20
121.94388437500001
30
0
42
0.01805948283611007
0
VERTEX
8
0
10
7.417540625
20
121.92929375
30
0
0
VERTEX
8
0
10
7.4168
20
121.92
30
0
0
VERTEX
8
0
10
7.4168
20
102.95416875000001
30
0
0
VERTEX
8
0
10
6.265831250000001
20
101.8032
30
0
0
VERTEX
8
0
10
4.03665
20
101.8032
30
0
0
VERTEX
8
0
10
4.0203218750000005
20
101.85701875000001
30
0
42
0.30334709750080463
0
VERTEX
8
0
10
3.339434375
20
102.36200000000001
30
0
0
VERTEX
8
0
10
1.7405656250000001
20
102.36200000000001
30
0
0
VERTEX
8
0
10
1.66605625
20
102.3546625
30
0
42
0.9063472543261978
0
VERTEX
8
0
10
1.7405656250000001
20
100.83800000000001
30
0
0
VERTEX
8
0
10
3.339434375
20
100.83800000000001
30
0
0
SEQEND
0
POLYLINE
66
1
8
1_copper
10
0.0
20
0.0
30
0.0
70
1
0
VERTEX
8
0
10
12.30394375
20
119.89533750000001
30
0
42
0.9063472543261978
0
VERTEX
8
0
10
12.229434375
20
121.412
30
0
0
VERTEX
8
0
10
10.630565625000001
20
121.412
30
0
0
VERTEX
8
0
10
10.556056250000001
20
121.4046625
30
0
42
0.9063472543261978
0
VERTEX
8
0
10
10.630565625000001
20
119.888
30
0
0
VERTEX
8
0
10
12.229434375
20
119.888
30
0
0
SEQEND
0
POLYLINE
66
1
8
1_copper
10
0.0
20
0.0
30
0.0
70
1
0
VERTEX
8
0
10
3.41394375
20
98.30533750000001
30
0
42
0.9063472543261978
0
VERTEX
8
0
10
3.339434375
20
99.822
30
0
0
VERTEX
8
0
10
1.7405656250000001
20
99.822
30
0
0
VERTEX
8
0
10
1.66605625
20
99.81466250000001
30
0
42
0.9063472543261978
0
VERTEX
8
0
10
1.7405656250000001
20
98.298
30
0
0
VERTEX
8
0
10
3.339434375
20
98.298
30
0
0
SEQEND
0
POLYLINE
66
1
8
16_copper
10
0.0
20
0.0
30
0.0
70
1
0
VERTEX
8
0
10
3.41394375
20
98.30533750000001
30
0
42
0.2767375280948381
0
VERTEX
8
0
10
4.0203218750000005
20
98.80298125
30
0
0
VERTEX
8
0
10
4.03665
20
98.8568
30
0
0
VERTEX
8
0
10
7.62
20
98.8568
30
0
0
VERTEX
8
0
10
7.630103125000001
20
98.85768750000001
30
0
0
VERTEX
8
0
10
7.6402656250000005
20
98.85781250000001
30
0
42
0.13234210275356542
0
VERTEX
8
0
10
7.739090625
20
98.89535625
30
0
0
VERTEX
8
0
10
7.74545625
20
98.90078125000001
30
0
42
0.01802390080028543
0
VERTEX
8
0
10
7.756575000000001
20
98.91025625
30
0
0
VERTEX
8
0
10
7.763684375
20
98.91631562500001
30
0
0
VERTEX
8
0
10
9.033684375
20
100.186315625
30
0
0
VERTEX
8
0
10
9.040215625
20
100.19410625
30
0
0
VERTEX
8
0
10
9.047296875
20
100.2013625
30
0
42
0.13234447677005623
0
VERTEX
8
0
10
9.090631250000001
20
100.297790625
30
0
0
VERTEX
8
0
10
9.09129375
20
100.306115625
30
0
42
0.01805948283611007
0
VERTEX
8
0
10
9.092459375
20
100.32070625
30
0
0
VERTEX
8
0
10
9.093200000000001
20
100.33
30
0
0
VERTEX
8
0
10
9.093200000000001
20
119.29583125
30
0
0
VERTEX
8
0
10
10.03025625
20
120.2328875
30
0
0
VERTEX
8
0
10
10.05521875
20
120.19553125
30
0
42
0.22455782798648444
0
VERTEX
8
0
10
10.630565625000001
20
119.888
30
0
0
VERTEX
8
0
10
12.229434375
20
119.888
30
0
0
VERTEX
8
0
10
12.30394375
20
119.89533750000001
30
0
42
0.9063472543261978
0
VERTEX
8
0
10
12.229434375
20
121.412
30
0
0
VERTEX
8
0
10
10.630565625000001
20
121.412
30
0
0
VERTEX
8
0
10
10.556056250000001
20
121.4046625
30
0
42
0.3578057741447831
0
VERTEX
8
0
10
9.906
20
120.68743437500001
30
0
0
VERTEX
8
0
10
9.906
20
120.68336875
30
0
0
VERTEX
8
0
10
8.746315625000001
20
119.523684375
30
0
0
VERTEX
8
0
10
8.739784375000001
20
119.51589375
30
0
0
VERTEX
8
0
10
8.732703125
20
119.5086375
30
0
42
0.13234447677005623
0
VERTEX
8
0
10
8.68936875
20
119.412209375
30
0
0
VERTEX
8
0
10
8.688706250000001
20
119.403884375
30
0
42
0.01805948283611007
0
VERTEX
8
0
10
8.687540625
20
119.38929375000001
30
0
0
VERTEX
8
0
10
8.6868
20
119.38000000000001
30
0
0
VERTEX
8
0
10
8.6868
20
100.41416875
30
0
0
VERTEX
8
0
10
7.53583125
20
99.2632
30
0
0
VERTEX
8
0
10
4.03665
20
99.2632
30
0
0
VERTEX
8
0
10
4.0203218750000005
20
99.31701875
30
0
42
0.30334709750080463
0
VERTEX
8
0
10
3.339434375
20
99.822
30
0
0
VERTEX
8
0
10
1.7405656250000001
20
99.822
30
0
0
VERTEX
8
0
10
1.66605625
20
99.81466250000001
30
0
42
0.9063472543261978
0
VERTEX
8
0
10
1.7405656250000001
20
98.298
30
0
0
VERTEX
8
0
10
3.339434375
20
98.298
30
0
0
SEQEND
0
CIRCLE
8
drills_NPTH
10
0.635
20
1.905
30
0
40
2.4892000000000003
0
CIRCLE
8
drills_NPTH
10
45.085
20
1.905
30
0
40
1.016
0
CIRCLE
8
drills_NPTH
10
45.085
20
144.145
30
0
40
1.016
0
CIRCLE
8
drills_NPTH
10
0.635
20
144.145
30
0
40
1.016
0
CIRCLE
8
drills_PTH
10
4.445
20
2.54
30
0
40
0.6
0
CIRCLE
8
drills_PTH
10
4.445
20
5.08
30
0
40
0.6
0
CIRCLE
8
drills_PTH
10
11.43
20
125.73
30
0
40
0.508
0
CIRCLE
8
drills_PTH
10
11.43
20
123.19000000000001
30
0
40
0.508
0
CIRCLE
8
drills_PTH
10
11.43
20
120.65
30
0
40
0.508
0
CIRCLE
8
drills_PTH
10
11.43
20
118.11
30
0
40
0.508
0
CIRCLE
8
drills_PTH
10
11.43
20
115.57000000000001
30
0
40
0.508
0
CIRCLE
8
drills_PTH
10
11.43
20
113.03
30
0
40
0.508
0
CIRCLE
8
drills_PTH
10
11.43
20
110.49000000000001
30
0
40
0.508
0
CIRCLE
8
drills_PTH
10
11.43
20
107.95
30
0
40
0.508
0
CIRCLE
8
drills_PTH
10
34.29
20
125.73
30
0
40
0.508
0
CIRCLE
8
drills_PTH
10
34.29
20
123.19000000000001
30
0
40
0.508
0
CIRCLE
8
drills_PTH
10
34.29
20
120.65
30
0
40
0.508
0
CIRCLE
8
drills_PTH
10
34.29
20
118.11
30
0
40
0.508
0
CIRCLE
8
drills_PTH
10
34.29
20
115.57000000000001
30
0
40
0.508
0
CIRCLE
8
drills_PTH
10
34.29
20
113.03
30
0
40
0.508
0
CIRCLE
8
drills_PTH
10
34.29
20
110.49000000000001
30
0
40
0.508
0
CIRCLE
8
drills_PTH
10
34.29
20
107.95
30
0
40
0.508
0
CIRCLE
8
drills_PTH
10
3.81
20
52.07
30
0
40
0.508
0
CIRCLE
8
drills_PTH
10
3.81
20
49.53
30
0
40
0.508
0
CIRCLE
8
drills_PTH
10
3.81
20
46.99
30
0
40
0.508
0
CIRCLE
8
drills_PTH
10
41.910000000000004
20
52.07
30
0
40
0.508
0
CIRCLE
8
drills_PTH
10
41.910000000000004
20
49.53
30
0
40
0.508
0
CIRCLE
8
drills_PTH
10
41.910000000000004
20
46.99
30
0
40
0.508
0
CIRCLE
8
drills_PTH
10
35.56
20
77.47
30
0
40
0.508
0
CIRCLE
8
drills_PTH
10
35.56
20
74.93
30
0
40
0.508
0
CIRCLE
8
drills_PTH
10
43.18
20
80.01
30
0
40
0.508
0
CIRCLE
8
drills_PTH
10
43.18
20
77.47
30
0
40
0.508
0
CIRCLE
8
drills_PTH
10
43.18
20
102.87
30
0
40
0.508
0
CIRCLE
8
drills_PTH
10
43.18
20
105.41000000000001
30
0
40
0.508
0
CIRCLE
8
drills_PTH
10
2.54
20
101.60000000000001
30
0
40
0.508
0
CIRCLE
8
drills_PTH
10
3.81
20
142.24
30
0
40
0.508
0
CIRCLE
8
drills_PTH
10
6.3500000000000005
20
142.24
30
0
40
0.508
0
CIRCLE
8
drills_PTH
10
8.89
20
86.36
30
0
40
0.508
0
CIRCLE
8
drills_PTH
10
8.89
20
88.9
30
0
40
0.508
0
CIRCLE
8
drills_PTH
10
8.89
20
91.44
30
0
40
0.508
0
CIRCLE
8
drills_PTH
10
25.400000000000002
20
6.3500000000000005
30
0
40
0.508
0
CIRCLE
8
drills_PTH
10
22.86
20
6.3500000000000005
30
0
40
0.508
0
CIRCLE
8
drills_PTH
10
2.54
20
99.06
30
0
40
0.508
0
CIRCLE
8
drills_PTH
10
2.54
20
96.52000000000001
30
0
40
0.508
0
CIRCLE
8
drills_PTH
10
2.54
20
93.98
30
0
40
0.508
0
CIRCLE
8
drills_PTH
10
10.16
20
49.53
30
0
40
0.508
0
CIRCLE
8
drills_PTH
10
3.81
20
57.150000000000006
30
0
40
0.508
0
CIRCLE
8
drills_PTH
10
3.81
20
59.690000000000005
30
0
40
0.508
0
CIRCLE
8
drills_PTH
10
41.910000000000004
20
57.150000000000006
30
0
40
0.508
0
CIRCLE
8
drills_PTH
10
41.910000000000004
20
59.690000000000005
30
0
40
0.508
0
CIRCLE
8
drills_PTH
10
3.81
20
69.85000000000001
30
0
40
0.508
0
CIRCLE
8
drills_PTH
10
3.81
20
72.39
30
0
40
0.508
0
CIRCLE
8
drills_PTH
10
41.910000000000004
20
69.85000000000001
30
0
40
0.508
0
CIRCLE
8
drills_PTH
10
41.910000000000004
20
72.39
30
0
40
0.508
0
CIRCLE
8
drills_PTH
10
3.81
20
63.5
30
0
40
0.508
0
CIRCLE
8
drills_PTH
10
3.81
20
66.04
30
0
40
0.508
0
CIRCLE
8
drills_PTH
10
41.910000000000004
20
63.5
30
0
40
0.508
0
CIRCLE
8
drills_PTH
10
41.910000000000004
20
66.04
30
0
40
0.508
0
CIRCLE
8
drills_via_1_16
10
35.56
20
80.01
30
0
40
0.508
0
CIRCLE
8
drills_via_1_16
10
10.16
20
80.01
30
0
40
0.508
0
CIRCLE
8
drills_PTH
10
10.16
20
77.47
30
0
40
0.508
0
CIRCLE
8
drills_PTH
10
10.16
20
72.39
30
0
40
0.508
0
CIRCLE
8
drills_PTH
10
10.16
20
69.85000000000001
30
0
40
0.508
0
CIRCLE
8
drills_PTH
10
10.16
20
67.31
30
0
40
0.508
0
CIRCLE
8
drills_PTH
10
10.16
20
64.77
30
0
40
0.508
0
CIRCLE
8
drills_PTH
10
10.16
20
62.230000000000004
30
0
40
0.508
0
CIRCLE
8
drills_PTH
10
10.16
20
59.690000000000005
30
0
40
0.508
0
CIRCLE
8
drills_PTH
10
10.16
20
57.150000000000006
30
0
40
0.508
0
CIRCLE
8
drills_PTH
10
10.16
20
54.61
30
0
40
0.508
0
CIRCLE
8
drills_PTH
10
10.16
20
52.07
30
0
40
0.508
0
CIRCLE
8
drills_PTH
10
10.16
20
46.99
30
0
40
0.508
0
CIRCLE
8
drills_PTH
10
10.16
20
44.45
30
0
40
0.508
0
CIRCLE
8
drills_PTH
10
10.16
20
41.910000000000004
30
0
40
0.508
0
CIRCLE
8
drills_PTH
10
10.16
20
39.370000000000005
30
0
40
0.508
0
CIRCLE
8
drills_PTH
10
10.16
20
36.83
30
0
40
0.508
0
CIRCLE
8
drills_PTH
10
10.16
20
34.29
30
0
40
0.508
0
CIRCLE
8
drills_PTH
10
10.16
20
31.75
30
0
40
0.508
0
CIRCLE
8
drills_PTH
10
10.16
20
29.21
30
0
40
0.508
0
CIRCLE
8
drills_PTH
10
10.16
20
26.67
30
0
40
0.508
0
CIRCLE
8
drills_PTH
10
35.56
20
72.39
30
0
40
0.508
0
CIRCLE
8
drills_PTH
10
35.56
20
69.85000000000001
30
0
40
0.508
0
CIRCLE
8
drills_PTH
10
35.56
20
67.31
30
0
40
0.508
0
CIRCLE
8
drills_PTH
10
35.56
20
64.77
30
0
40
0.508
0
CIRCLE
8
drills_PTH
10
35.56
20
62.230000000000004
30
0
40
0.508
0
CIRCLE
8
drills_PTH
10
35.56
20
59.690000000000005
30
0
40
0.508
0
CIRCLE
8
drills_PTH
10
35.56
20
57.150000000000006
30
0
40
0.508
0
CIRCLE
8
drills_PTH
10
35.56
20
54.61
30
0
40
0.508
0
CIRCLE
8
drills_PTH
10
35.56
20
52.07
30
0
40
0.508
0
CIRCLE
8
drills_PTH
10
35.56
20
49.53
30
0
40
0.508
0
CIRCLE
8
drills_PTH
10
35.56
20
46.99
30
0
40
0.508
0
CIRCLE
8
drills_PTH
10
35.56
20
44.45
30
0
40
0.508
0
CIRCLE
8
drills_PTH
10
35.56
20
41.910000000000004
30
0
40
0.508
0
CIRCLE
8
drills_PTH
10
35.56
20
39.370000000000005
30
0
40
0.508
0
CIRCLE
8
drills_PTH
10
35.56
20
36.83
30
0
40
0.508
0
CIRCLE
8
drills_PTH
10
35.56
20
34.29
30
0
40
0.508
0
CIRCLE
8
drills_PTH
10
35.56
20
31.75
30
0
40
0.508
0
CIRCLE
8
drills_PTH
10
35.56
20
29.21
30
0
40
0.508
0
CIRCLE
8
drills_PTH
10
35.56
20
26.67
30
0
40
0.508
0
CIRCLE
8
drills_PTH
10
10.16
20
74.93
30
0
40
0.508
0
CIRCLE
8
drills_PTH
10
39.800000000000004
20
7.04
30
0
40
0.45
0
CIRCLE
8
drills_PTH
10
36.4
20
7.04
30
0
40
0.45
0
CIRCLE
8
drills_PTH
10
41.5
20
10.940000000000001
30
0
40
0.45
0
CIRCLE
8
drills_PTH
10
38.1
20
10.940000000000001
30
0
40
0.45
0
CIRCLE
8
drills_PTH
10
34.7
20
10.940000000000001
30
0
40
0.45
0
CIRCLE
8
drills_PTH
10
38.1
20
19.05
30
0
40
0.40640000000000004
0
CIRCLE
8
drills_PTH
10
40.64
20
19.05
30
0
40
0.40640000000000004
0
CIRCLE
8
drills_PTH
10
3.81
20
125.73
30
0
40
0.40640000000000004
0
CIRCLE
8
drills_PTH
10
3.81
20
138.43
30
0
40
0.40640000000000004
0
CIRCLE
8
drills_PTH
10
3.81
20
110.49000000000001
30
0
40
0.40640000000000004
0
CIRCLE
8
drills_PTH
10
40.64
20
140.97
30
0
40
0.40640000000000004
0
CIRCLE
8
drills_PTH
10
43.18
20
140.97
30
0
40
0.40640000000000004
0
CIRCLE
8
drills_PTH
10
3.81
20
123.19000000000001
30
0
40
0.40640000000000004
0
CIRCLE
8
drills_PTH
10
40.64
20
121.92
30
0
40
0.40640000000000004
0
CIRCLE
8
drills_PTH
10
40.64
20
134.62
30
0
40
0.40640000000000004
0
CIRCLE
8
drills_PTH
10
43.18
20
121.92
30
0
40
0.40640000000000004
0
CIRCLE
8
drills_PTH
10
43.18
20
134.62
30
0
40
0.40640000000000004
0
CIRCLE
8
drills_PTH
10
40.64
20
128.27
30
0
40
0.40640000000000004
0
CIRCLE
8
drills_PTH
10
43.18
20
128.27
30
0
40
0.40640000000000004
0
CIRCLE
8
drills_via_1_16
10
34.29
20
104.14
30
0
40
0.17500000000000002
0
CIRCLE
8
drills_via_1_16
10
31.75
20
104.14
30
0
40
0.17500000000000002
0
ENDSEC
0
EOF